<svg id="Layer_1" enable-background="new 0 0 512 512" height="512" viewBox="0 0 512 512" width="512" xmlns="http://www.w3.org/2000/svg"><g><path d="m409.377 453.49c52.699-44.938 86.127-111.807 86.127-186.492 0-135.311-109.691-245.002-245.002-245.002s-245.003 109.691-245.003 245.002c0 105.849 67.126 196.016 161.13 230.265z" fill="#5895f9"/><path d="m353.114 389.789c-12.246-8.377-21.142-20.805-25.242-35.065-3.987-13.868.359-28.723 11.029-38.437 29.554-26.908 47.737-66.087 46.48-109.489-2.258-77.979-66.802-147.341-144.804-146.116-14.761.232-29.187 2.82-42.871 7.385-22.753 15.176-54.385 59.42-42.739 149.235 15.364 118.49 40.673 150.008 80.004 145.513 32.943-3.765 41.257 38.59 26.354 63.062-11.56 18.983-22.978 54.761-23.501 85.799 4.199.214 8.425.323 12.677.323 60.625 0 116.098-22.032 158.875-58.51-15.206-24.991-35.814-49.712-56.262-63.7z" fill="#e8f4fc"/><path d="m238.736 360.933c-39.331 4.495-64.64-27.023-80.004-145.513-11.765-90.734 20.639-134.024 43.437-148.756-56.225 16.789-100.93 66.897-106.742 125.193-.619 6.209-.105 12.48 1.529 18.502l1.824 6.723c1.886 6.954.271 14.386-4.323 19.936-14.438 17.445-26.535 28.851-26.535 43.051 0 10.272 20.004 12.822 25.392 14.69.859.298 1.433 1.104 1.433 2.013l-3.589 21.546c0 1.012.454 1.971 1.236 2.612l12.321 6.681c.795.652 1.142 1.705.891 2.702l-.739 2.932c-.806 3.198.158 6.583 2.529 8.875l6.348 6.138c3.95 3.819 6.18 9.078 6.18 14.573v7.277c0 8.311-.307 12.228 2.133 16.795 3.782 7.081 12.235 10.407 20.26 10.609 6.621.167 13.282-.895 19.62-3.104l17.156-5.979c.2-.07.401-.128.603-.177 3.276-.783 6.506 1.534 7.176 4.836l4.725 12.814c5.976 16.203 4.706 34.186-3.461 49.403-6.433 11.987-14.34 27.12-21.509 41.955 23.506 8.564 48.695 13.616 74.933 14.558.044-31.492 11.716-68.428 23.528-87.825 14.905-24.469 6.591-66.825-26.352-63.06z" fill="#d3dcfb"/><path d="m41.834 260c9.725-47.848 18.746-62.667 32.167-104.667 6.499-20.34-.84-36.145-10.139-47.038-36.39 42.755-58.363 98.159-58.363 158.703 0 74.287 33.068 140.845 85.28 185.776 79.235-24.714-64.116-118.133-48.945-192.774z" fill="#73acff"/><path d="m495.503 266.998c0-11.491-.81-22.791-2.34-33.861-21.538-.242-61.544 3.665-78.662 33.861-23.029 40.623-57.697 100.577 27.291 153.069 33.601-41.937 53.711-95.151 53.711-153.069z" fill="#73acff"/><path d="m237.279 139.13c42.859 19.25 72.088 45.701 88.067 69.959 3.183 4.832 10.227 4.788 13.411-.042 4.427-6.715 9.87-13.593 16.326-20.436l-21.303-24.784c-1.124-1.308-1.742-2.975-1.742-4.7v-22.622c0-2.326 1.122-4.509 3.013-5.863l27.854-19.944c2.967-2.125 2.93-6.549-.072-8.624l-27.682-19.125c-1.949-1.346-3.112-3.564-3.112-5.932v-35.828c0-4.706-2.135-9.058-5.546-12.299-.016-.015-.031-.03-.047-.045l-8.723-8.421c-34.491-33.294-91.191-24.725-114.303 17.274-20.477 37.212-4.886 84.029 33.859 101.432z" fill="#e80054"/><path d="m503.663 65.855c-13.201-46.085-66.58-67.04-107.607-42.242l-10.376 6.271c-.018.011-.037.022-.056.033-4.047 2.403-7.095 6.173-8.141 10.762l-7.961 34.93c-.526 2.31.115 4.73 1.716 6.476l22.74 24.799c2.466 2.69 1.52 7.012-1.846 8.424l-2.54 1.066.998.18c-.044 3.295.24 12.108 3.94 21.253 4.018 9.934 12.918 21.93 32.569 24.543 6.709-1.934 13.709-3.659 21.01-5.124 41.644-8.358 67.25-50.539 55.554-91.371z" fill="#ff4155"/><ellipse cx="457.724" cy="66.664" fill="#ff7186" rx="21.854" ry="21.854" transform="matrix(.23 -.973 .973 .23 287.68 496.828)"/><ellipse cx="460.668" cy="282.167" fill="#b6d9fc" rx="10.167" ry="10.167" transform="matrix(.23 -.973 .973 .23 80.209 665.682)"/><ellipse cx="153.471" cy="442.607" fill="#b6d9fc" rx="10.167" ry="10.167" transform="matrix(.924 -.383 .383 .924 -157.696 92.422)"/><ellipse cx="435.869" cy="346.632" fill="#99c7ff" rx="20.035" ry="20.035" transform="matrix(.707 -.707 .707 .707 -117.442 409.732)"/><circle cx="114.813" cy="80.083" fill="#99c7ff" r="15.167"/><path d="m431.056 161.237c-41.797-2.74-38.924-45.929-38.924-45.929l-31.589 13.255c-2.145.9-3.723 2.779-4.24 5.047l-5.027 22.056c-.383 1.682-.151 3.445.654 4.97l12.396 23.471c1.532 2.9 5.194 3.858 7.98 2.126 15.99-9.941 35.668-18.744 58.757-24.996.001 0-.004 0-.007 0z" fill="#e80054"/></g></svg>