<svg id="Layer_1" enable-background="new 0 0 512 512" height="512" viewBox="0 0 512 512" width="512" xmlns="http://www.w3.org/2000/svg"><g><path d="m409.377 453.49c52.699-44.938 86.127-111.807 86.127-186.493 0-135.311-109.691-245.002-245.002-245.002s-245.003 109.692-245.003 245.003c0 105.849 67.126 196.016 161.13 230.265z" fill="#1e9ef4"/><path d="m353.114 389.789c-12.246-8.377-21.142-20.805-25.242-35.065-3.987-13.868.359-28.723 11.029-38.437 29.554-26.908 47.737-66.087 46.48-109.489-2.258-77.979-66.802-147.341-144.804-146.116-14.761.232-29.187 2.82-42.871 7.385-22.753 15.176-54.385 59.42-42.739 149.235 15.364 118.49 40.673 150.008 80.004 145.513 32.943-3.765 41.257 38.59 26.354 63.062-11.56 18.983-22.977 54.761-23.501 85.799 4.199.214 8.425.323 12.677.323 60.626 0 116.098-22.032 158.876-58.51-15.207-24.991-35.815-49.712-56.263-63.7z" fill="#e8f4fc"/><path d="m238.736 360.933c-39.331 4.495-64.64-27.023-80.004-145.513-11.765-90.734 20.64-134.024 43.437-148.756-56.225 16.789-100.93 66.897-106.742 125.193-.619 6.209-.105 12.48 1.529 18.502l1.824 6.723c1.886 6.954.271 14.386-4.323 19.936-14.438 17.445-26.535 28.851-26.535 43.051 0 10.272 20.004 12.822 25.392 14.69.859.298 1.433 1.104 1.433 2.013l-3.59 21.546c0 1.012.454 1.971 1.236 2.612l12.321 6.682c.795.652 1.142 1.705.891 2.702l-.739 2.932c-.806 3.198.158 6.583 2.529 8.875l6.348 6.138c3.95 3.819 6.18 9.078 6.18 14.573v7.277c0 8.311-.307 12.228 2.133 16.795 3.782 7.081 12.235 10.407 20.261 10.609 6.621.167 13.282-.895 19.62-3.104l17.156-5.979c.2-.07.401-.128.603-.177 3.276-.783 6.506 1.534 7.176 4.836l4.726 12.814c5.975 16.203 4.706 34.186-3.461 49.403-6.433 11.988-14.34 27.12-21.509 41.955 23.506 8.564 48.695 13.616 74.933 14.558.044-31.492 11.716-68.428 23.529-87.825 14.903-24.47 6.589-66.825-26.354-63.061z" fill="#d3dcfb"/><path d="m41.834 260c9.725-47.848 18.746-62.667 32.167-104.667 6.499-20.34-.84-36.145-10.139-47.038-36.39 42.755-58.363 98.159-58.363 158.703 0 74.287 33.068 140.846 85.28 185.776 79.235-24.714-64.116-118.132-48.945-192.774z" fill="#49b1f7"/><path d="m495.503 266.998c0-11.491-.809-22.791-2.34-33.861-21.538-.242-61.544 3.665-78.662 33.861-23.029 40.623-57.697 100.577 27.291 153.069 33.601-41.937 53.711-95.151 53.711-153.069z" fill="#49b1f7"/><g><ellipse cx="464.88" cy="128.427" fill="#ff4155" rx="8.235" ry="8.235" transform="matrix(.989 -.15 .15 .989 -13.986 71.032)"/></g><g><path d="m464.88 108.39c-3.866 0-7-3.134-7-7v-17.496c0-7.333 5.271-13.727 12.533-15.203 13.544-2.754 23.009-15.271 22.017-29.116-.277-3.856 2.625-7.207 6.482-7.483 3.852-.274 7.206 2.626 7.482 6.481 1.495 20.84-12.774 39.685-33.19 43.837-.779.158-1.323.769-1.323 1.484v17.496c-.001 3.866-3.135 7-7.001 7z" fill="#ff4155"/></g><g><path d="m430.257 48.621c-3.866 0-7-3.134-7-7 0-1.938.135-3.889.401-5.797 3.094-22.172 23.039-37.808 45.412-35.62 3.847.379 6.66 3.804 6.281 7.651-.378 3.848-3.795 6.66-7.651 6.282-14.863-1.472-28.123 8.914-30.176 23.622-.177 1.269-.267 2.567-.267 3.861 0 3.867-3.134 7.001-7 7.001z" fill="#ff4155"/></g><path d="m351.435 249.152c-9.328 0-16.889 7.562-16.889 16.89 0 9.327 7.561 16.889 16.889 16.889s16.889-7.562 16.889-16.889c0-9.328-7.561-16.89-16.889-16.89z" fill="#e80054"/><path d="m309.945 73.49c3.15 4.749 9.394 7.27 18.561 7.515 6.988-4.788 15.541-7.412 24.659-7.041 20.091.83 37.033 17.155 38.572 37.165 1.057 13.743-5.02 26.797-15.354 34.99-.106 4.659.751 10.82 5.082 15.236 3.604 3.674 8.974 5.451 16.011 5.346 4.129-3.63 7.851-7.741 11.041-12.277 9.275-13.191 13.698-29.365 12.454-45.543-2.704-35.15-31.333-62.755-66.595-64.211-17.149-.699-33.134 4.766-45.729 14.515-.86 2.818-2.152 9.106 1.298 14.305z" fill="#ff4155"/><g><path d="m499.405 46.073c-3.638 0-6.71-2.813-6.975-6.499-.948-13.21-11.579-24.146-24.729-25.437-3.848-.378-6.66-3.804-6.282-7.651s3.812-6.655 7.65-6.282c19.85 1.95 35.896 18.444 37.325 38.368.277 3.856-2.625 7.206-6.481 7.483-.171.012-.34.018-.508.018z" fill="#ff7186"/></g><ellipse cx="460.668" cy="282.167" fill="#9bd8f9" rx="10.167" ry="10.167" transform="matrix(.231 -.973 .973 .231 79.814 665.29)"/><ellipse cx="153.471" cy="442.607" fill="#9bd8f9" rx="10.167" ry="10.167" transform="matrix(.911 -.412 .412 .911 -168.662 102.483)"/><ellipse cx="435.869" cy="346.632" fill="#73c3f9" rx="20.035" ry="20.035" transform="matrix(.707 -.707 .707 .707 -117.442 409.732)"/><circle cx="114.813" cy="80.083" fill="#73c3f9" r="15.167"/><g fill="#e80054"><path d="m296.35 129.013c8.096 0 14.659-6.563 14.659-14.659 0-1.894.131-3.798.391-5.656 1.715-12.293 8.764-22.552 18.599-28.669h-.001c-28.842 0-20.121-21.434-19.921-21.917-14.659 10.755-25.013 27.18-27.715 46.535-.446 3.197-.672 6.464-.672 9.706 0 8.097 6.563 14.66 14.66 14.66z"/><path d="m398.629 165.673c-19.423.852-21.586-12.555-21.201-20.417-4.164 3.535-9.072 6.264-14.532 7.876-15.623 4.614-26.121 18.507-26.121 34.569v26.35c0 8.096 6.563 14.66 14.659 14.66s14.659-6.563 14.659-14.66v-26.35c0-2.956 2.052-5.549 5.106-6.451 10.219-3.016 19.616-8.396 27.43-15.577z"/></g></g></svg>