<svg id="Layer_1" enable-background="new 0 0 511.999 511.999" height="512" viewBox="0 0 511.999 511.999" width="512" xmlns="http://www.w3.org/2000/svg"><g><path d="m409.376 453.489c52.699-44.938 86.127-111.807 86.127-186.492 0-135.311-109.691-245.002-245.002-245.002s-245.003 109.691-245.003 245.002c0 105.849 67.126 196.016 161.13 230.265z" fill="#ffc839"/><path d="m353.113 389.788c-12.246-8.377-21.142-20.805-25.242-35.065-3.987-13.868.359-28.723 11.029-38.437 29.554-26.908 47.737-66.087 46.48-109.489-2.258-77.979-66.802-147.341-144.804-146.116-14.761.232-29.187 2.82-42.871 7.385-22.753 15.176-54.385 59.42-42.739 149.235 15.364 118.49 40.673 150.008 80.004 145.513 32.943-3.765 41.257 38.59 26.354 63.062-11.56 18.983-22.977 54.761-23.501 85.799 4.199.214 8.425.323 12.677.323 60.625 0 116.098-22.032 158.875-58.51-15.206-24.991-35.813-49.712-56.262-63.7z" fill="#3c58a0"/><path d="m238.735 360.932c-39.331 4.495-64.64-27.023-80.004-145.513-11.765-90.734 20.639-134.024 43.436-148.756-56.225 16.789-100.93 66.897-106.742 125.193-.619 6.209-.105 12.48 1.529 18.502l1.824 6.723c1.886 6.954.271 14.386-4.323 19.936-14.438 17.445-26.535 28.85-26.535 43.051 0 10.272 20.004 12.822 25.392 14.69.859.298 1.433 1.104 1.433 2.013l-3.589 21.546c0 1.012.454 1.971 1.236 2.612l12.321 6.681c.795.652 1.142 1.705.891 2.702l-.739 2.932c-.806 3.198.158 6.583 2.529 8.875l6.348 6.138c3.95 3.819 6.18 9.079 6.18 14.573v7.277c0 8.312-.307 12.228 2.133 16.795 3.782 7.081 12.235 10.407 20.261 10.609 6.621.167 13.282-.895 19.62-3.104l17.157-5.979c.2-.07.401-.128.603-.177 3.276-.783 6.506 1.534 7.176 4.836l4.725 12.814c5.976 16.203 4.706 34.186-3.461 49.403-6.433 11.987-14.34 27.12-21.509 41.955 23.506 8.564 48.695 13.616 74.933 14.558.044-31.492 11.716-68.428 23.528-87.825 14.904-24.47 6.59-66.825-26.353-63.06z" fill="#2a428c"/><path d="m41.834 259.999c9.725-47.848 18.746-62.667 32.167-104.667 6.499-20.34-.84-36.145-10.139-47.038-36.39 42.754-58.363 98.158-58.363 158.702 0 74.287 33.068 140.845 85.28 185.776 79.235-24.713-64.116-118.132-48.945-192.773z" fill="#ffdd40"/><path d="m495.503 266.997c0-11.491-.81-22.791-2.34-33.861-21.538-.242-61.544 3.665-78.662 33.861-23.029 40.623-57.697 100.577 27.291 153.069 33.601-41.937 53.711-95.151 53.711-153.069z" fill="#ffdd40"/><g><path d="m303.895 212.604c-2.559 0-5.119-.977-7.071-2.929-3.905-3.905-3.905-10.237 0-14.143l32.827-32.827c3.905-3.904 10.237-3.904 14.143 0 3.905 3.905 3.905 10.237 0 14.143l-32.827 32.827c-1.954 1.953-4.513 2.929-7.072 2.929z" fill="#bec8f7"/></g><path d="m354.556 31.589c2.81 3.726 7.317 5.771 13.414 6.094-1.277 8.924-5.645 50.412 17.685 81.471 15.186 20.218 38.924 32.156 70.567 35.499-.129 3.184.207 10.546 5.402 15.475 3.133 2.972 7.445 4.511 12.875 4.606.816-.764 1.626-1.538 2.422-2.335 39.439-39.439 39.439-103.381 0-142.82-33.939-33.939-86.024-38.67-125.025-14.196-.624 3.174-1.499 10.689 2.66 16.206z" fill="#e9efff"/><path d="m457.83 153.306c-108.196-10.443-88.113-117.079-88.113-117.079-22.309 0-16.03-21.939-16.03-21.939-6.982 4.181-13.57 9.273-19.586 15.289-39.439 39.439-39.439 103.381 0 142.82 39.166 39.166 102.494 39.43 141.994.805-21.031.698-18.265-19.896-18.265-19.896z" fill="#d3dcfb"/><path d="m367.97 37.682c-1.277 8.924-5.645 50.412 17.685 81.471 15.186 20.218 38.924 32.156 70.567 35.499-.002.058-.003.127-.005.187.539-.508 1.085-1.005 1.613-1.533 28.848-28.849 28.848-75.788 0-104.637-24.509-24.508-62.071-28.183-90.509-11.046.22.017.426.048.649.059z" fill="#49b1f7"/><path d="m369.713 36.252c-5.924 3.273-11.5 7.398-16.519 12.417-28.848 28.849-28.848 75.788 0 104.637 28.848 28.848 75.789 28.848 104.637 0-107.655-10.39-88.315-115.995-88.118-117.054z" fill="#1e9ef4"/><g><path d="m235.536 270.964c-8.163-8.163-8.163-21.398 0-29.561l45.547-45.548c8.163-8.163 21.398-8.163 29.561 0s8.163 21.398 0 29.561l-45.547 45.548c-8.163 8.163-21.398 8.163-29.561 0z" fill="#e80054"/></g><g><path d="m253.98 262.937c-5.286-5.286-5.286-13.857 0-19.143l29.495-29.495c5.286-5.286 13.857-5.286 19.143 0s5.286 13.857 0 19.143l-29.495 29.495c-5.286 5.287-13.856 5.287-19.143 0z" fill="#ff4155"/></g><g><path d="m292.192 243.869-29.561-29.561c-2.734-2.734-2.734-7.166 0-9.9 2.734-2.731 7.167-2.731 9.899 0l29.561 29.562c2.734 2.734 2.734 7.166 0 9.9-2.734 2.733-7.166 2.733-9.899-.001z" fill="#ff7186"/></g><ellipse cx="460.667" cy="282.165" fill="#fff6d2" rx="10.167" ry="10.167" transform="matrix(.208 -.978 .978 .208 88.772 673.989)"/><ellipse cx="153.47" cy="442.606" fill="#fff6d2" rx="10.167" ry="10.167" transform="matrix(.938 -.347 .347 .938 -144.169 80.855)"/><ellipse cx="435.869" cy="346.63" fill="#ffe98d" rx="20.035" ry="20.035" transform="matrix(.451 -.893 .893 .451 -70.098 579.294)"/><circle cx="114.813" cy="80.082" fill="#ffe98d" r="15.167"/><ellipse cx="433.097" cy="78.07" fill="#73c3f9" rx="17.404" ry="17.404" transform="matrix(.228 -.974 .974 .228 258.316 481.95)"/></g></svg>