<svg id="Layer_1" enable-background="new 0 0 512 512" height="512" viewBox="0 0 512 512" width="512" xmlns="http://www.w3.org/2000/svg"><g><path d="m409.377 453.49c52.699-44.938 86.127-111.807 86.127-186.492 0-135.311-109.691-245.002-245.002-245.002s-245.003 109.691-245.003 245.002c0 105.849 67.126 196.016 161.13 230.265z" fill="#2a428c"/><path d="m353.114 389.789c-12.246-8.377-21.142-20.805-25.242-35.065-3.987-13.868.359-28.723 11.029-38.437 29.554-26.908 47.737-66.087 46.48-109.489-2.258-77.979-66.802-147.341-144.804-146.116-14.761.232-29.187 2.82-42.871 7.385-22.753 15.176-54.385 59.42-42.739 149.235 15.364 118.49 40.673 150.008 80.004 145.513 32.943-3.765 41.257 38.59 26.354 63.062-11.56 18.983-22.977 54.761-23.501 85.799 4.199.214 8.425.323 12.677.323 60.625 0 116.098-22.032 158.875-58.51-15.206-24.991-35.814-49.712-56.262-63.7z" fill="#e8f4fc"/><path d="m238.736 360.933c-39.331 4.495-64.64-27.023-80.004-145.513-11.765-90.734 20.639-134.024 43.436-148.756-56.225 16.789-100.93 66.897-106.742 125.193-.619 6.209-.105 12.48 1.529 18.502l1.824 6.723c1.886 6.954.271 14.386-4.323 19.936-14.438 17.445-26.535 28.85-26.535 43.051 0 10.272 20.004 12.822 25.392 14.69.859.298 1.433 1.104 1.433 2.013l-3.59 21.546c0 1.012.454 1.971 1.236 2.612l12.321 6.681c.795.652 1.142 1.705.891 2.702l-.739 2.932c-.806 3.198.158 6.583 2.529 8.875l6.348 6.138c3.95 3.819 6.18 9.079 6.18 14.573v7.277c0 8.312-.307 12.228 2.133 16.795 3.782 7.081 12.235 10.407 20.261 10.609 6.621.167 13.282-.895 19.62-3.104l17.157-5.979c.2-.07.401-.128.603-.177 3.276-.783 6.506 1.534 7.176 4.836l4.725 12.814c5.975 16.203 4.706 34.186-3.461 49.403-6.433 11.987-14.34 27.12-21.509 41.955 23.506 8.564 48.695 13.616 74.933 14.558.044-31.492 11.716-68.428 23.528-87.825 14.905-24.469 6.591-66.825-26.352-63.06z" fill="#d3dcfb"/><path d="m41.834 260c9.725-47.848 18.746-62.667 32.167-104.667 6.499-20.34-.84-36.145-10.139-47.038-36.39 42.755-58.363 98.159-58.363 158.703 0 74.287 33.068 140.845 85.28 185.776 79.235-24.714-64.116-118.132-48.945-192.774z" fill="#3c58a0"/><path d="m506.501 183.116c0-2.747-2.227-4.974-4.974-4.974h-14.232c-.5 0-.93-.34-1.055-.824-1.308-5.07-3.327-9.993-6.052-14.615-.254-.43-.19-.976.163-1.329l10.062-10.062c1.943-1.943 1.943-5.092 0-7.035l-11.994-11.993c-1.943-1.943-5.092-1.943-7.035 0l-10.062 10.062c-.353.353-.898.417-1.329.163-4.622-2.725-9.546-4.744-14.615-6.052-.484-.125-.824-.556-.824-1.055v-14.232c0-2.747-2.227-4.974-4.974-4.974h-16.962c-2.747 0-4.974 2.227-4.974 4.974v14.232c0 .5-.34.93-.824 1.055-5.07 1.308-9.993 3.327-14.615 6.052-.43.254-.976.19-1.329-.163l-.195-.195.012.208c-.431 1.701-2.519 11.124 2.271 17.439 2.534 3.342 6.49 5.186 11.773 5.494-.145 2.253-.265 6.621.406 11.797 1.285 9.922 4.915 18.04 10.497 23.479 7.304 7.117 17.873 9.874 31.435 8.207.343 2.633 1.56 7.742 5.871 11.091 4.176 3.243 10.079 3.948 17.544 2.095l-.14-.14c-.353-.353-.417-.898-.163-1.329 2.726-4.622 4.744-9.546 6.052-14.615.125-.484.555-.824 1.055-.824h14.232c2.747 0 4.974-2.227 4.974-4.974v-16.963z" fill="#49b1f7"/><path d="m480.351 221.82c-.353-.353-.417-.898-.163-1.329-21.646 5.408-21.746-13.414-21.746-13.414-48.059 7-42.075-43.239-42.075-43.239-20.133 0-14.162-21.324-14.161-21.329-.43.254-.976.19-1.329-.163l-10.062-10.062c-1.943-1.943-5.092-1.943-7.035 0l-11.993 11.993c-1.943 1.943-1.943 5.092 0 7.035l10.062 10.062c.353.353.417.898.163 1.329-2.725 4.622-4.744 9.546-6.052 14.615-.125.484-.555.824-1.055.824h-14.231c-2.747 0-4.974 2.227-4.974 4.974v16.962c0 2.747 2.227 4.974 4.974 4.974h14.232c.5 0 .93.34 1.055.824 1.308 5.07 3.327 9.993 6.052 14.615.254.43.19.976-.163 1.329l-10.062 10.062c-1.943 1.943-1.943 5.092 0 7.035l11.994 11.994c1.943 1.942 5.092 1.943 7.035 0l10.062-10.062c.353-.353.898-.417 1.329-.163 4.622 2.725 9.546 4.744 14.615 6.052.484.125.824.556.824 1.055v14.232c0 2.747 2.227 4.974 4.974 4.974h16.961c2.747 0 4.974-2.227 4.974-4.974v-14.231c0-.5.34-.93.824-1.055 5.07-1.308 9.993-3.327 14.615-6.052.43-.254.976-.19 1.329.163l10.062 10.062c1.942 1.943 5.092 1.943 7.034 0l11.994-11.994c1.942-1.943 1.943-5.092 0-7.035z" fill="#1e9ef4"/><path d="m414.738 165.292c-.145 2.253-.265 6.621.406 11.797 1.285 9.922 4.915 18.04 10.497 23.479 7.304 7.117 17.873 9.874 31.435 8.207.017.13.038.27.059.411 8.276-12.223 7.008-28.98-3.817-39.806-10.676-10.676-27.121-12.059-39.297-4.157.241.02.471.055.717.069z" fill="#1e9ef4"/><path d="m458.441 207.077c-48.036 6.996-42.081-43.19-42.075-43.238-2.69 1.429-5.218 3.274-7.484 5.54-12.27 12.271-12.27 32.165 0 44.435 12.271 12.271 32.165 12.271 44.436 0 2.055-2.054 3.757-4.326 5.123-6.737z" fill="#208af2"/><path d="m456.607 92.224-21.188-.001c-.744 0-1.385-.506-1.571-1.227-1.947-7.547-4.953-14.877-9.01-21.758-.378-.641-.283-1.452.243-1.979l14.98-14.98c2.892-2.892 2.892-7.581 0-10.473l-17.856-17.856c-2.892-2.892-7.581-2.892-10.473 0l-14.98 14.98c-.526.526-1.337.621-1.978.243-6.881-4.057-14.211-7.063-21.759-9.01-.72-.186-1.226-.827-1.226-1.571v-21.186c0-4.09-3.315-7.406-7.405-7.406h-25.252c-4.09 0-7.406 3.315-7.405 7.405v21.188c0 .744-.506 1.385-1.226 1.571-7.548 1.947-14.877 4.953-21.759 9.01-.503.297-1.107.292-1.599.026-.895 2.647-4.206 13.954 1.363 22.023 3.407 4.938 9.398 7.607 17.823 7.946-1.373 6.552-4.761 28.83 8.115 45.598 9.479 12.344 25.58 18.726 47.855 18.998l1.481-1.481c1.943-1.943 5.092-1.943 7.035 0l10.062 10.062c.353.353.898.417 1.329.163 4.622-2.725 9.546-4.744 14.615-6.052.484-.125.824-.555.824-1.055v-14.232c0-2.747 2.227-4.974 4.974-4.974h16.962c2.747 0 4.974 2.227 4.974 4.974v11.116h12.052c4.09 0 7.405-3.315 7.405-7.406v-25.251c.001-4.09-3.315-7.405-7.405-7.405z" fill="#ffdd40"/><path d="m383.78 132.284c-72.827-.002-55.573-64.576-55.573-64.576-30.294 0-19.466-28.534-19.466-28.534-.641.378-1.453.283-1.978-.243l-14.98-14.98c-2.892-2.892-7.581-2.892-10.473 0l-17.856 17.855c-2.892 2.892-2.892 7.581 0 10.473l14.98 14.98c.526.526.621 1.337.243 1.979-4.058 6.881-7.063 14.211-9.01 21.758-.186.721-.827 1.227-1.571 1.227h-21.187c-4.09 0-7.406 3.315-7.405 7.406v25.252c0 4.09 3.316 7.405 7.405 7.405h21.188c.744 0 1.385.506 1.571 1.227 1.947 7.547 4.953 14.877 9.01 21.759.378.64.283 1.452-.243 1.978l-14.98 14.98c-2.892 2.892-2.892 7.581 0 10.473l17.856 17.856c2.892 2.891 7.581 2.892 10.473-.001l14.98-14.98c.526-.526 1.337-.621 1.978-.243 6.882 4.057 14.211 7.063 21.759 9.01.72.186 1.226.827 1.227 1.571v21.188c0 4.09 3.315 7.405 7.405 7.405h25.252c4.09 0 7.405-3.315 7.405-7.405v-12.052h-11.116c-2.747 0-4.974-2.227-4.974-4.974v-16.962c0-2.747 2.227-4.974 4.974-4.974h14.231c.5 0 .93-.34 1.055-.824 1.308-5.07 3.327-9.993 6.052-14.615.254-.43.19-.975-.163-1.329l-10.062-10.062c-1.943-1.943-1.943-5.092 0-7.035z" fill="#ffc839"/><path d="m326.328 69.17c-1.373 6.552-4.761 28.83 8.115 45.598 9.479 12.344 25.58 18.726 47.855 18.998l1.481-1.481c1.943-1.943 5.092-1.943 7.035 0l4.784 4.783c10.889-19.215 8.158-44.058-8.219-60.435-16.731-16.73-42.297-19.223-61.672-7.499.209.011.411.027.621.036z" fill="#ffc839"/><path d="m371.787 151.312c-1.943-1.943-1.943-5.092 0-7.035l11.993-11.993c-72.769-.002-55.601-64.471-55.574-64.574-4.34 2.297-8.417 5.269-12.071 8.923-19.674 19.674-19.674 51.571 0 71.245 16.377 16.377 41.219 19.108 60.435 8.219z" fill="#ffb332"/><path d="m413.851 398.72c7.391 7.206 16.601 14.343 27.941 21.347 28.97-36.156 47.898-80.699 52.569-129.408-5.307-4.076-11.762-6.735-18.842-8.332-67.128-15.15-110.942 68.354-61.668 116.393z" fill="#3c58a0"/><circle cx="469.346" cy="309.75" fill="#6a90cc" r="8.678"/><ellipse cx="153.471" cy="442.607" fill="#6a90cc" rx="10.167" ry="10.167" transform="matrix(.924 -.383 .383 .924 -157.696 92.422)"/><g fill="#4f71b6"><circle cx="438.815" cy="352.686" r="16.314"/><circle cx="114.813" cy="80.083" r="15.167"/></g></g></svg>