<svg id="Layer_1" enable-background="new 0 0 512 512" height="512" viewBox="0 0 512 512" width="512" xmlns="http://www.w3.org/2000/svg"><g><path d="m409.377 453.49c52.699-44.938 86.127-111.807 86.127-186.492 0-135.311-109.691-245.002-245.002-245.002s-245.003 109.691-245.003 245.002c0 105.849 67.126 196.016 161.13 230.265z" fill="#6faf46"/><path d="m353.114 389.789c-12.246-8.377-21.142-20.805-25.242-35.065-3.987-13.868.359-28.723 11.029-38.437 29.554-26.908 47.737-66.087 46.48-109.489-2.258-77.979-66.802-147.341-144.804-146.116-14.761.232-29.187 2.82-42.871 7.385-22.753 15.176-54.385 59.42-42.739 149.235 15.364 118.49 40.673 150.008 80.004 145.513 32.943-3.765 41.257 38.59 26.354 63.062-11.56 18.983-22.978 54.761-23.501 85.799 4.199.214 8.425.323 12.677.323 60.626 0 116.098-22.032 158.876-58.51-15.207-24.991-35.815-49.712-56.263-63.7z" fill="#e8f4fc"/><path d="m238.736 360.933c-39.331 4.495-64.64-27.023-80.004-145.513-11.765-90.734 20.64-134.024 43.437-148.756-56.225 16.789-100.93 66.897-106.742 125.193-.619 6.209-.105 12.48 1.528 18.502l1.824 6.723c1.886 6.954.271 14.386-4.323 19.936-14.438 17.445-26.535 28.85-26.535 43.051 0 10.272 20.004 12.822 25.392 14.69.859.298 1.433 1.104 1.433 2.013l-3.589 21.546c0 1.012.454 1.971 1.236 2.612l12.321 6.681c.795.652 1.142 1.705.891 2.702l-.739 2.932c-.806 3.198.158 6.583 2.529 8.875l6.348 6.138c3.95 3.819 6.18 9.079 6.18 14.573v7.277c0 8.312-.307 12.228 2.133 16.795 3.782 7.081 12.235 10.407 20.26 10.609 6.621.167 13.282-.895 19.62-3.104l17.156-5.979c.2-.07.401-.128.603-.177 3.276-.783 6.506 1.534 7.176 4.836l4.726 12.814c5.975 16.203 4.706 34.186-3.461 49.403-6.433 11.987-14.34 27.12-21.509 41.955 23.506 8.564 48.695 13.616 74.933 14.558.044-31.492 11.716-68.428 23.528-87.825 14.905-24.469 6.591-66.825-26.352-63.06z" fill="#d3dcfb"/><path d="m41.834 260c9.725-47.848 18.746-62.667 32.167-104.667 6.499-20.34-.84-36.145-10.139-47.038-36.39 42.755-58.363 98.159-58.363 158.703 0 74.287 33.068 140.845 85.28 185.776 79.235-24.714-64.116-118.132-48.945-192.774z" fill="#88ce65"/><path d="m495.503 266.998c0-11.491-.81-22.791-2.34-33.861-21.538-.242-61.544 3.665-78.662 33.861-23.029 40.623-57.697 100.577 27.291 153.069 33.601-41.937 53.711-95.151 53.711-153.069z" fill="#88ce65"/><path d="m394.962 0c-11.051 0-21.723 1.615-31.802 4.608-.906 1.924-2.627 5.908-3.96 10.994-2.477 9.451-2.354 18.133.354 25.106 3.067 7.895 9.355 13.764 18.705 17.464-.921 1.991-2.082 5.517-.868 8.905.924 2.577 2.999 4.538 6.178 5.844-2.086 5.841-8.736 27.711.805 46.654 6.047 12.004 17.415 20.358 33.808 24.85-.722 2.368-1.573 6.888.581 11.123 1.879 3.693 5.564 6.274 10.971 7.686-1.812 4.667-5.991 17.954.017 28.852 4.156 7.539 12.304 12.278 24.213 14.118 31.546-19.703 52.538-54.73 52.538-94.665-.001-61.601-49.939-111.539-111.54-111.539z" fill="#49b1f7"/><path d="m455.896 204.97c-41.611-5.283-24.093-42.797-24.093-42.797-18.557-3.744-11.651-18.778-11.651-18.778-57.874-14.689-34.642-71.366-34.642-71.366-12.141-3.846-5.124-14.66-5.124-14.66-36.635-13.045-15.286-53.31-15.279-53.322-47.104 13.055-81.684 56.232-81.684 107.492 0 61.602 49.938 111.539 111.539 111.539 22.488.001 43.417-6.66 60.934-18.108z" fill="#208af2"/><g fill="#e9efff"><path d="m326.742 111.539c0-18.347 7.293-35.013 19.117-47.286-19.864 6.274-38.082 16.253-53.846 29.125-11.455 9.353-11.454 26.97 0 36.323 15.763 12.872 33.982 22.85 53.845 29.124-11.822-12.273-19.116-28.939-19.116-47.286z"/><path d="m497.91 93.378c-15.764-12.872-33.982-22.85-53.846-29.125 11.823 12.273 19.117 28.939 19.117 47.286s-7.293 35.012-19.116 47.285c19.864-6.274 38.082-16.252 53.845-29.124 11.455-9.352 11.455-26.969 0-36.322z"/></g><path d="m378.26 58.173c-.921 1.991-2.082 5.517-.868 8.905.924 2.577 2.999 4.538 6.178 5.844-2.086 5.841-8.736 27.711.805 46.654 6.047 12.004 17.415 20.358 33.808 24.85-.722 2.368-1.573 6.888.581 11.123 1.738 3.417 5.042 5.869 9.805 7.336 6.367-1.336 12.598-3.042 18.667-5.097 10.92-12.328 17.569-28.522 17.569-46.248s-6.649-33.92-17.57-46.249c-16.407-5.557-33.987-8.572-52.273-8.572-6.032 0-11.985.335-17.847.974.379.162.755.326 1.145.48z" fill="#3c58a0"/><path d="m431.799 162.172c-18.552-3.745-11.647-18.777-11.647-18.777-57.874-14.689-34.642-71.366-34.642-71.366-12.128-3.842-5.14-14.636-5.125-14.659-13.07 1.16-25.698 3.857-37.697 7.921-10.92 12.329-17.57 28.523-17.57 46.249 0 17.725 6.649 33.919 17.569 46.248 16.408 5.558 33.988 8.572 52.274 8.572 12.67-.001 25.001-1.45 36.838-4.188z" fill="#2a428c"/><path d="m383.569 72.922c-2.086 5.841-8.736 27.711.805 46.654 6.047 12.004 17.415 20.358 33.808 24.85-.052.171-.105.355-.157.547 10.605-7.329 17.558-19.567 17.558-33.434 0-22.435-18.187-40.621-40.621-40.621-4.14 0-8.133.623-11.896 1.774.169.076.328.158.503.23z" fill="#2a428c"/><path d="m420.152 143.395c-57.724-14.651-34.764-71.066-34.644-71.359-17.873 4.263-31.167 20.326-31.167 39.504 0 22.435 18.187 40.621 40.621 40.621 9.518 0 18.265-3.283 25.19-8.766z" fill="#1c2e7a"/><ellipse cx="460.668" cy="282.167" fill="#d7ef95" rx="10.167" ry="10.167" transform="matrix(.23 -.973 .973 .23 80.209 665.682)"/><ellipse cx="153.471" cy="442.607" fill="#d7ef95" rx="10.167" ry="10.167" transform="matrix(.924 -.383 .383 .924 -157.696 92.422)"/><ellipse cx="435.869" cy="346.632" fill="#b4d667" rx="20.035" ry="20.035" transform="matrix(.23 -.973 .973 .23 -1.632 691.202)"/><circle cx="114.813" cy="80.083" fill="#b4d667" r="15.167"/><circle cx="408.546" cy="99.52" fill="#3c58a0" r="12.019"/></g></svg>