<svg id="Layer_1" enable-background="new 0 0 512 512" height="512" viewBox="0 0 512 512" width="512" xmlns="http://www.w3.org/2000/svg"><g><path d="m409.377 453.49c52.699-44.938 86.127-111.807 86.127-186.492 0-135.311-109.691-245.002-245.002-245.002s-245.003 109.691-245.003 245.002c0 105.849 67.126 196.016 161.13 230.265z" fill="#816ae2"/><path d="m353.114 389.789c-12.246-8.377-21.142-20.805-25.242-35.065-3.987-13.868.359-28.723 11.029-38.437 29.554-26.908 47.737-66.087 46.48-109.489-2.258-77.979-66.802-147.341-144.804-146.116-14.761.232-29.187 2.82-42.871 7.385-22.753 15.176-54.385 59.42-42.739 149.235 15.364 118.49 40.673 150.008 80.004 145.513 32.943-3.765 41.257 38.59 26.354 63.062-11.56 18.983-22.977 54.761-23.501 85.799 4.199.214 8.425.323 12.677.323 60.625 0 116.098-22.032 158.875-58.51-15.206-24.991-35.813-49.712-56.262-63.7z" fill="#e8f4fc"/><path d="m238.736 360.933c-39.331 4.495-64.64-27.023-80.004-145.513-11.765-90.734 20.64-134.024 43.437-148.756-56.225 16.789-100.93 66.897-106.742 125.193-.619 6.209-.105 12.48 1.528 18.502l1.824 6.723c1.886 6.954.271 14.386-4.323 19.936-14.438 17.445-26.535 28.85-26.535 43.051 0 10.272 20.004 12.822 25.392 14.69.859.298 1.433 1.104 1.433 2.013l-3.589 21.546c0 1.012.454 1.971 1.236 2.612l12.321 6.682c.795.652 1.142 1.705.891 2.702l-.739 2.932c-.806 3.198.158 6.583 2.529 8.875l6.348 6.138c3.95 3.819 6.18 9.078 6.18 14.573v7.277c0 8.311-.307 12.228 2.133 16.795 3.782 7.081 12.235 10.407 20.26 10.609 6.621.167 13.282-.895 19.62-3.104l17.156-5.979c.2-.07.401-.128.603-.177 3.276-.783 6.506 1.534 7.176 4.836l4.726 12.814c5.976 16.203 4.706 34.186-3.461 49.403-6.433 11.988-14.34 27.12-21.509 41.955 23.506 8.564 48.695 13.616 74.933 14.558.044-31.492 11.716-68.428 23.528-87.825 14.905-24.47 6.591-66.825-26.352-63.061z" fill="#d3dcfb"/><path d="m41.834 260c9.725-47.848 18.746-62.667 32.167-104.667 6.499-20.34-.84-36.145-10.139-47.038-36.39 42.755-58.363 98.159-58.363 158.703 0 74.287 33.068 140.845 85.28 185.776 79.235-24.714-64.116-118.132-48.945-192.774z" fill="#9181f2"/><path d="m495.966 22.934c-19.822-.298-62.97-3.115-88.616-20.974-3.753-2.613-8.681-2.613-12.434 0-12.332 8.588-28.71 13.691-44.596 16.715-.775 2.3-2.442 8.529.318 13.238 1.592 2.715 4.326 4.428 8.137 5.099l2.69 12.133c-2.332 4.655-18.702 39.799 6.599 60.574l3.037 21.072 36.637 29.568c-.594 3.565-2.02 16.434 6.156 26.051 6.574 7.733 17.602 11.281 32.779 10.551l8.665 9.072c-.395 2.44-1.137 9.755 3.181 14.169 2.332 2.384 5.693 3.481 10.009 3.298 20.621-18.959 37.974-44.653 37.974-77.447v-112.431c-.001-5.845-4.692-10.6-10.536-10.688z" fill="#49b1f7"/><path d="m456.952 205.552-9.67-10.125c-46.377 2.609-37.906-35.672-37.906-35.672l-36.875-29.761-3.037-21.072c-27.037-21.577-6.418-59.575-6.418-59.575l-3.029-13.668c-14.401-1.737-7.98-17.335-7.98-17.335l-.001-.002c-17.756 3.543-35.102 4.431-45.735 4.591-5.845.088-10.536 4.842-10.536 10.688v112.431c0 63.202 64.448 100.042 92.537 113.097 8.141 3.784 17.521 3.784 25.662 0 13.933-6.476 36.811-18.807 56.332-37.302-17.444 2.125-13.344-16.295-13.344-16.295z" fill="#208af2"/><path d="m401.133 28.393c-12.587 6.847-26.937 11.4-41.07 14.428l1.402 6.324c-2.332 4.655-18.702 39.799 6.599 60.574l3.037 21.072 36.637 29.568c-.594 3.565-2.02 16.434 6.156 26.051 6.574 7.733 17.602 11.281 32.779 10.551l4.351 4.556c.365-.341.732-.681 1.094-1.027 18.171-17.355 27.384-36.138 27.384-55.828v-96.779c-23.186-1.55-54.068-6.271-78.369-19.49z" fill="#e9efff"/><path d="m452.118 200.49-4.835-5.063c-46.377 2.609-37.906-35.672-37.906-35.672l-36.875-29.761-3.037-21.072c-27.037-21.577-6.418-59.575-6.418-59.575l-1.515-6.834c-13.656 3.027-27.173 4.594-38.766 5.369v96.778c0 19.69 9.213 38.473 27.384 55.828 17.323 16.546 38.47 27.642 49.532 32.783.924.43 1.982.429 2.903.001 11.063-5.141 32.209-16.236 49.533-32.782z" fill="#d3dcfb"/><g><path d="m401.132 240.596c-1.503 0-3.004-.325-4.403-.977-11.454-5.323-33.366-16.829-51.415-34.068-19.607-18.726-29.549-39.212-29.549-60.89v-96.778c0-3.685 2.857-6.739 6.534-6.984 13.458-.899 26.148-2.655 37.718-5.219 3.773-.838 7.513 1.544 8.349 5.319.837 3.774-1.545 7.513-5.319 8.349-10.356 2.295-21.525 3.977-33.281 5.014v90.3c0 17.704 8.485 34.784 25.218 50.766 15.848 15.137 35.149 25.565 46.15 30.794 10.998-5.228 30.303-15.658 46.149-30.793 2.796-2.67 7.227-2.569 9.897.227s2.568 7.227-.227 9.897c-18.046 17.237-39.961 28.745-51.418 34.07-1.401.648-2.902.973-4.403.973z" fill="#2a428c"/></g><g><g><path d="m350.372 108.923c-5.272 5.271-5.272 13.819 0 19.092l35.827 35.828c5.271 5.271 13.819 5.271 19.092 0 5.272-5.272 5.272-13.819 0-19.092l-35.827-35.828c-5.273-5.273-13.819-5.272-19.092 0z" fill="#ffc839"/></g></g><g><g><path d="m386.199 163.841c-5.272-5.272-5.272-13.819 0-19.092l48.604-48.604c5.272-5.271 13.819-5.271 19.092 0 5.272 5.272 5.272 13.819 0 19.092l-48.604 48.604c-5.274 5.273-13.82 5.272-19.092 0z" fill="#ffdd40"/></g></g><g><path d="m452.118 207.489c-1.846 0-3.688-.726-5.063-2.165-2.67-2.796-2.568-7.227.227-9.898 16.734-15.981 25.219-33.062 25.219-50.766 0-3.866 3.134-7 7-7s7 3.134 7 7c0 21.678-9.942 42.164-29.549 60.891-1.356 1.296-3.096 1.938-4.834 1.938z" fill="#3c58a0"/></g><g><path d="m479.508 54.883c-.157 0-.315-.005-.474-.016-21.848-1.46-52.673-5.888-77.901-18.576-10.885 5.476-23.677 9.863-38.087 13.057-3.777.838-7.513-1.545-8.349-5.319-.837-3.774 1.545-7.513 5.319-8.349 14.636-3.244 27.344-7.765 37.772-13.437 2.085-1.135 4.604-1.135 6.689 0 23.575 12.824 54.064 17.223 75.49 18.655 3.857.258 6.775 3.594 6.518 7.451-.247 3.699-3.324 6.534-6.977 6.534z" fill="#3c58a0"/></g><g><path d="m479.501 151.661c-3.866 0-7-3.134-7-7v-96.778c0-3.866 3.134-7 7-7s7 3.134 7 7v96.778c0 3.867-3.134 7-7 7z" fill="#4f71b6"/></g><path d="m387.874 348.217c2.092 23.861 16.255 48.588 53.918 71.85 32.545-40.619 52.434-91.817 53.652-147.623-14.403-2.586-30.149-2.117-44.921-.276-37.807 4.713-65.976 38.096-62.649 76.049z" fill="#9181f2"/><ellipse cx="470.834" cy="296.5" fill="#c9c8fc" rx="10.167" ry="10.167" transform="matrix(.23 -.973 .973 .23 74.091 686.618)"/><ellipse cx="153.471" cy="442.607" fill="#c9c8fc" rx="10.167" ry="10.167" transform="matrix(.924 -.383 .383 .924 -157.696 92.422)"/><g fill="#aaa2f9"><ellipse cx="435.87" cy="346.632" rx="20.035" ry="20.035" transform="matrix(.707 -.707 .707 .707 -117.442 409.732)"/><circle cx="114.813" cy="80.083" r="15.167"/></g></g></svg>