<svg id="Layer_1" enable-background="new 0 0 512 512" height="512" viewBox="0 0 512 512" width="512" xmlns="http://www.w3.org/2000/svg"><g><path d="m409.377 453.49c52.699-44.938 86.127-111.807 86.127-186.492 0-135.311-109.691-245.002-245.002-245.002s-245.003 109.691-245.003 245.002c0 105.849 67.126 196.016 161.13 230.265z" fill="#2a428c"/><path d="m353.114 389.789c-12.246-8.377-21.142-20.805-25.242-35.065-3.987-13.868.359-28.723 11.029-38.437 29.554-26.908 47.736-66.087 46.48-109.489-2.258-77.979-66.802-147.341-144.804-146.116-14.761.232-29.187 2.82-42.871 7.385-22.753 15.176-54.385 59.42-42.739 149.235 15.364 118.49 40.673 150.008 80.004 145.513 32.943-3.765 41.257 38.59 26.354 63.062-11.56 18.983-22.977 54.761-23.501 85.799 4.199.214 8.425.323 12.677.323 60.626 0 116.098-22.032 158.876-58.51-15.207-24.991-35.815-49.712-56.263-63.7z" fill="#49b1f7"/><path d="m238.736 360.933c-39.331 4.495-64.64-27.023-80.004-145.513-11.765-90.734 20.639-134.024 43.436-148.756-56.224 16.789-100.93 66.897-106.742 125.193-.619 6.209-.105 12.48 1.529 18.502l1.824 6.723c1.886 6.954.271 14.386-4.323 19.936-14.438 17.445-26.534 28.85-26.534 43.051 0 10.272 20.004 12.822 25.392 14.69.859.298 1.433 1.104 1.433 2.013l-3.589 21.546c0 1.012.454 1.971 1.236 2.612l12.321 6.681c.795.652 1.142 1.705.891 2.702l-.739 2.932c-.806 3.198.158 6.583 2.529 8.875l6.348 6.138c3.95 3.819 6.18 9.079 6.18 14.573v7.277c0 8.312-.307 12.228 2.133 16.795 3.782 7.081 12.235 10.407 20.261 10.609 6.621.167 13.282-.895 19.62-3.104l17.156-5.979c.2-.07.401-.128.603-.177 3.276-.783 6.506 1.534 7.176 4.836l4.726 12.814c5.975 16.203 4.706 34.186-3.461 49.403-6.433 11.987-14.34 27.12-21.509 41.955 23.506 8.564 48.695 13.616 74.933 14.558.044-31.492 11.716-68.428 23.529-87.825 14.902-24.469 6.588-66.825-26.355-63.06z" fill="#1e9ef4"/><path d="m41.834 260c9.725-47.848 18.746-62.667 32.167-104.667 6.499-20.34-.84-36.145-10.139-47.038-36.39 42.755-58.363 98.159-58.363 158.703 0 74.287 33.068 140.845 85.28 185.776 79.235-24.714-64.116-118.132-48.945-192.774z" fill="#3c58a0"/><path d="m477.278 0h-88.061c-2.678 2.713-8.934 10.078-9.313 20.047-.301 7.938 3.206 15.622 10.424 22.84 7.789 7.79 11.227 14.637 10.216 20.351-1.05 5.932-6.791 8.664-6.909 8.72-.361.188-8.874 4.674-11.097 13.338-1.353 5.273-.073 10.875 3.805 16.647 10.986 16.353 16.688 56.028 17.464 61.757-2.805 3.093-15.925 18.59-14.818 36.645.545 8.896 4.493 16.952 11.736 24.011h76.554c16.073 0 29.223-13.15 29.223-29.223v-165.91c-.001-16.073-13.151-29.223-29.224-29.223z" fill="#e9efff"/><path d="m391.389 0h-80.02c-16.072 0-29.223 13.15-29.223 29.223v165.909c0 16.073 13.15 29.223 29.223 29.223h91.54c-29.454-26.981 2.478-60.152 2.478-60.152s-5.665-45.036-17.799-63.098 6.736-27.815 6.736-27.815 19.569-8.961-2.935-31.464c-22.504-22.504 0-41.826 0-41.826z" fill="#d3dcfb"/><g fill="#49b1f7"><ellipse cx="346.81" cy="159.691" rx="18.007" ry="18.007" transform="matrix(.159 -.987 .987 .159 133.915 476.636)"/><path d="m342.298 46.317v.014c0 6.798 5.057 12.539 11.802 13.381 48.288 6.025 86.665 44.402 92.689 92.689.842 6.745 6.583 11.802 13.381 11.802h.014c8.166 0 14.398-7.188 13.379-15.29-7.592-60.392-55.583-108.383-115.974-115.976-8.103-1.018-15.291 5.214-15.291 13.38z"/><path d="m342.298 101.114c0 6.222 4.235 11.721 10.3 13.11 19.665 4.504 35.174 20.013 39.679 39.679 1.389 6.065 6.888 10.3 13.11 10.3 8.697 0 15.116-8.104 13.147-16.575-6.86-29.52-30.141-52.801-59.661-59.661-8.47-1.969-16.575 4.451-16.575 13.147z"/></g><path d="m387.873 348.217c2.092 23.861 16.255 48.588 53.918 71.85 32.545-40.619 52.434-91.817 53.652-147.623-14.403-2.586-30.149-2.117-44.922-.276-37.806 4.713-65.974 38.095-62.648 76.049z" fill="#3c58a0"/><circle cx="467.334" cy="302.5" fill="#6a90cc" r="10.167"/><ellipse cx="153.471" cy="442.607" fill="#6a90cc" rx="10.167" ry="10.167" transform="matrix(.923 -.385 .385 .923 -158.599 93.226)"/><ellipse cx="432.35" cy="349.43" fill="#4f71b6" rx="20.035" ry="20.035" transform="matrix(.926 -.378 .378 .926 -100.015 189.383)"/><circle cx="114.813" cy="80.083" fill="#4f71b6" r="15.167"/></g></svg>