<svg id="Layer_1" enable-background="new 0 0 512 512" height="512" viewBox="0 0 512 512" width="512" xmlns="http://www.w3.org/2000/svg"><g><path d="m409.377 453.49c52.699-44.938 86.127-111.807 86.127-186.492 0-135.311-109.691-245.002-245.002-245.002s-245.003 109.691-245.003 245.002c0 105.849 67.126 196.016 161.13 230.265z" fill="#ff7186"/><path d="m353.114 389.789c-12.246-8.377-21.142-20.805-25.242-35.065-3.987-13.868.359-28.723 11.029-38.437 29.554-26.908 47.736-66.087 46.48-109.489-2.258-77.979-66.802-147.341-144.804-146.116-14.761.232-29.187 2.82-42.871 7.385-22.753 15.176-54.385 59.42-42.739 149.235 15.364 118.49 40.673 150.008 80.004 145.513 32.943-3.765 41.257 38.59 26.354 63.062-11.56 18.983-22.977 54.761-23.501 85.799 4.199.214 8.425.323 12.677.323 60.626 0 116.098-22.032 158.876-58.51-15.207-24.991-35.814-49.712-56.263-63.7z" fill="#e8f4fc"/><path d="m238.736 360.933c-39.331 4.495-64.64-27.023-80.004-145.513-11.765-90.734 20.639-134.024 43.436-148.756-56.225 16.789-100.93 66.897-106.741 125.193-.619 6.209-.105 12.48 1.528 18.502l1.824 6.723c1.886 6.954.271 14.386-4.323 19.936-14.438 17.445-26.535 28.85-26.535 43.051 0 10.272 20.004 12.822 25.392 14.69.859.298 1.433 1.104 1.433 2.013l-3.589 21.546c0 1.012.454 1.971 1.236 2.612l12.321 6.681c.795.652 1.142 1.705.891 2.702l-.739 2.932c-.806 3.198.158 6.583 2.529 8.875l6.348 6.138c3.95 3.819 6.18 9.079 6.18 14.573v7.277c0 8.312-.307 12.228 2.132 16.795 3.782 7.081 12.235 10.407 20.261 10.609 6.621.167 13.282-.895 19.62-3.104l17.157-5.979c.2-.07.401-.128.603-.177 3.276-.783 6.506 1.534 7.176 4.836l4.725 12.814c5.976 16.203 4.706 34.186-3.461 49.403-6.433 11.987-14.34 27.12-21.509 41.955 23.506 8.564 48.695 13.616 74.933 14.558.044-31.492 11.716-68.428 23.528-87.825 14.905-24.469 6.591-66.824-26.352-63.06z" fill="#d3dcfb"/><path d="m41.834 260c9.725-47.848 18.746-62.667 32.167-104.667 6.499-20.34-.84-36.145-10.139-47.038-36.39 42.755-58.363 98.159-58.363 158.703 0 74.287 33.068 140.845 85.28 185.776 79.235-24.714-64.116-118.132-48.945-192.774z" fill="#f9a0b1"/><path d="m497.524 178.801-99.61-153.582c-21.828-33.658-71.049-33.592-92.836-.001l-1.268 1.955c.477 2.7 1.928 7.699 6.305 11.174 3.913 3.107 9.188 4.245 15.708 3.391-.748 4.398-1.658 14.489 3.615 22.727 3.579 5.591 9.315 9.237 17.062 10.849l2.766 76.709c-1.359 1.497-5.092 6.152-4.792 11.806.206 3.894 2.257 7.396 6.096 10.407 10.39 8.154 13.53 21.507 14.03 23.954-.954 2.516-5.272 15.166-.344 26.368 2.637 5.994 7.456 10.493 14.341 13.396-1.84 3.051-5.2 9.936-3.101 16.792 1.168 3.818 3.828 6.992 7.931 9.488h67.678c43.821 0 70.259-48.673 46.419-85.433z" fill="#3c58a0"/><path d="m251.885 264.234h134.7c-19.035-9.143-5.721-27-5.721-27-26.75-9.766-14.709-38.9-14.709-38.9s-2.624-15.833-14.66-25.278c-12.035-9.444-.708-20.457-.708-20.457l-2.831-78.532c-27.908-4.933-20.226-34.156-20.226-34.156-21.884 4.161-22.653-14.693-22.653-14.693l-99.61 153.583c-23.847 36.767 2.605 85.433 46.418 85.433z" fill="#2a428c"/><path d="m474.871 193.494-99.611-153.583c-11.166-17.217-36.365-17.217-47.531 0l-2.122 3.271c-.65 4.904-.933 13.842 3.83 21.283 3.579 5.591 9.315 9.237 17.062 10.849l2.766 76.709c-1.359 1.497-5.092 6.152-4.792 11.806.206 3.894 2.257 7.396 6.096 10.407 10.39 8.154 13.53 21.507 14.03 23.954-.954 2.516-5.272 15.166-.344 26.368 2.433 5.53 6.746 9.77 12.802 12.676h74.047c22.464 0 35.99-24.895 23.767-43.74z" fill="#ffdd40"/><path d="m228.119 193.494c-12.223 18.846 1.303 43.74 23.766 43.74h128.979c-26.75-9.766-14.709-38.9-14.709-38.9s-2.624-15.833-14.66-25.278c-12.035-9.444-.708-20.457-.708-20.457l-2.831-78.532c-27.908-4.933-20.226-34.156-20.226-34.156z" fill="#ffb332"/><path d="m351.495 173.056c-9.328 0-16.889 7.562-16.889 16.89 0 9.327 7.561 16.889 16.889 16.889s16.889-7.562 16.889-16.889c0-9.328-7.561-16.89-16.889-16.89z" fill="#3c58a0"/><path d="m351.495 73.634c-8.096 0-14.659 6.563-14.659 14.659v49.249c0 7.894 6.066 14.686 13.951 15.057 8.418.396 15.367-6.312 15.367-14.643v-49.663c.001-8.095-6.563-14.659-14.659-14.659z" fill="#3c58a0"/><path d="m437.395 425.39c33.248-39.186 54.391-88.957 57.655-143.553-13.555-2.012-28.128-1.49-41.861.222-37.807 4.712-65.975 38.095-62.648 76.049 1.955 22.304 14.465 45.366 46.854 67.282z" fill="#f9a0b1"/><ellipse cx="466.071" cy="307.833" fill="#fcd9e3" rx="10.167" ry="10.167" transform="matrix(.707 -.707 .707 .707 -81.162 419.724)"/><ellipse cx="153.471" cy="442.607" fill="#fcd9e3" rx="10.167" ry="10.167" transform="matrix(.23 -.973 .973 .23 -312.557 490.283)"/><g fill="#fcc0cf"><ellipse cx="435.87" cy="356.632" rx="20.035" ry="20.035" transform="matrix(.16 -.987 .987 .16 14.024 729.747)"/><circle cx="114.813" cy="80.083" r="15.167"/></g></g></svg>