<svg id="Layer_1" enable-background="new 0 0 512 512" height="512" viewBox="0 0 512 512" width="512" xmlns="http://www.w3.org/2000/svg"><g><path d="m409.377 453.49c52.699-44.938 86.127-111.807 86.127-186.492 0-135.311-109.691-245.002-245.002-245.002s-245.003 109.691-245.003 245.002c0 105.849 67.126 196.016 161.13 230.265z" fill="#fcb1df"/><path d="m353.114 389.789c-12.246-8.377-21.142-20.805-25.242-35.065-3.987-13.868.359-28.723 11.029-38.437 29.554-26.908 47.737-66.087 46.48-109.489-2.258-77.979-66.802-147.341-144.804-146.116-14.761.232-29.187 2.82-42.871 7.385-22.753 15.176-54.385 59.42-42.739 149.235 15.364 118.49 40.673 150.008 80.004 145.513 32.943-3.765 41.257 38.59 26.354 63.062-11.56 18.983-22.977 54.761-23.501 85.799 4.199.214 8.425.323 12.677.323 60.625 0 116.098-22.032 158.875-58.51-15.206-24.991-35.814-49.712-56.262-63.7z" fill="#3c58a0"/><path d="m238.736 360.933c-39.331 4.495-64.64-27.023-80.004-145.513-11.765-90.734 20.639-134.024 43.436-148.756-56.225 16.789-100.93 66.897-106.742 125.193-.619 6.209-.105 12.48 1.529 18.502l1.824 6.723c1.886 6.954.271 14.386-4.323 19.936-14.438 17.445-26.535 28.85-26.535 43.051 0 10.272 20.004 12.822 25.392 14.69.859.298 1.433 1.104 1.433 2.013l-3.59 21.546c0 1.012.454 1.971 1.236 2.612l12.321 6.681c.795.652 1.142 1.705.891 2.702l-.739 2.932c-.806 3.198.158 6.583 2.529 8.875l6.348 6.138c3.95 3.819 6.18 9.079 6.18 14.573v7.277c0 8.312-.307 12.228 2.133 16.795 3.782 7.081 12.235 10.407 20.261 10.609 6.621.167 13.282-.895 19.62-3.104l17.157-5.979c.2-.07.401-.128.603-.177 3.276-.783 6.506 1.534 7.176 4.836l4.725 12.814c5.975 16.203 4.706 34.186-3.461 49.403-6.433 11.987-14.34 27.12-21.509 41.955 23.506 8.564 48.695 13.616 74.933 14.558.044-31.492 11.716-68.428 23.528-87.825 14.905-24.469 6.591-66.825-26.352-63.06z" fill="#2a428c"/><path d="m41.834 260c9.725-47.848 18.746-62.667 32.167-104.667 6.499-20.34-.84-36.145-10.139-47.038-36.39 42.755-58.363 98.159-58.363 158.703 0 74.287 33.068 140.845 85.28 185.776 79.235-24.714-64.116-118.132-48.945-192.774z" fill="#f9d2ec"/><path d="m323.235 108.953v-42.301c0-7.456-6.044-13.5-13.5-13.5s-13.5 6.044-13.5 13.5v42.301z" fill="#ffb332"/><g><path d="m309.735 80.152c-7.456 0-13.5-6.044-13.5-13.5 0-36.752 29.9-66.652 66.652-66.652 7.456 0 13.5 6.044 13.5 13.5s-6.044 13.5-13.5 13.5c-21.864 0-39.652 17.788-39.652 39.652 0 7.456-6.044 13.5-13.5 13.5z" fill="#ffc839"/></g><g><path d="m416.039 80.152c-7.456 0-13.5-6.044-13.5-13.5 0-21.864-17.788-39.652-39.652-39.652-7.456 0-13.5-6.044-13.5-13.5s6.044-13.5 13.5-13.5c36.752 0 66.652 29.9 66.652 66.652 0 7.456-6.044 13.5-13.5 13.5z" fill="#ffdd40"/></g><g><path d="m463.231 64.365c-1.67-4.09.291-8.761 4.382-10.431l19.765-8.071c4.09-1.671 8.76.291 10.431 4.382 1.67 4.09-.292 8.761-4.382 10.431l-19.765 8.071c-4.105 1.676-8.767-.305-10.431-4.382z" fill="#ffdd40"/></g><g><path d="m444.071 36.278c-3.288-2.952-3.56-8.01-.609-11.298l14.262-15.887c2.951-3.287 8.01-3.561 11.297-.608 3.288 2.952 3.561 8.01.609 11.298l-14.262 15.887c-2.947 3.282-8.005 3.565-11.297.608z" fill="#ffdd40"/></g><g><path d="m498.508 107.705c-.171 0-.344-.005-.518-.017l-21.306-1.36c-4.409-.281-7.755-4.084-7.474-8.493.282-4.409 4.081-7.765 8.494-7.474l21.306 1.36c4.409.281 7.755 4.084 7.474 8.493-.27 4.236-3.79 7.491-7.976 7.491z" fill="#ffdd40"/></g><path d="m433.745 106.953h-75.022s-27.801 22.125.341 40.741c28.143 18.616 1.171 89.6 1.171 89.6s-26.682 21.77-1.677 44.947h75.186c12.31 0 22.383-10.072 22.383-22.383v-130.523c0-12.31-10.072-22.382-22.382-22.382z" fill="#ff7186"/><path d="m442.583 304.518c-29.796-1.523-54.45 23.266-52.091 53.008.015.194.031.387.048.581 1.955 22.305 14.466 45.368 46.855 67.283 25.669-30.254 44.113-66.82 52.694-107.042-14.627-9.298-31.503-13.012-47.506-13.83z" fill="#f9d2ec"/><ellipse cx="486.337" cy="280.535" fill="#e8f4fc" rx="10.167" ry="10.167" transform="matrix(.707 -.707 .707 .707 -55.923 426.059)"/><ellipse cx="153.471" cy="442.607" fill="#e8f4fc" rx="10.167" ry="10.167" transform="matrix(.924 -.383 .383 .924 -157.696 92.422)"/><ellipse cx="435.869" cy="346.632" fill="#fce3f5" rx="20.035" ry="20.035" transform="matrix(.707 -.707 .707 .707 -117.442 409.732)"/><circle cx="114.813" cy="80.083" fill="#fce3f5" r="15.167"/><path d="m360.722 106.953h-68.693c-12.31 0-22.383 10.072-22.383 22.382v130.525c0 12.311 10.072 22.383 22.383 22.383h68.529c-25.005-23.177 1.677-44.947 1.677-44.947s26.972-70.984-1.171-89.6c-28.143-18.617-.342-40.743-.342-40.743z" fill="#ff4155"/><path d="m390.774 175.523c0-16.005-13.483-28.861-29.71-27.829-13.903.884-25.183 12.213-26.012 26.12-.566 9.492 3.62 18.032 10.401 23.47 2.474 1.984 3.934 4.965 3.934 8.137v18.008c0 7.269 5.587 13.524 12.848 13.866 7.753.365 14.152-5.812 14.152-13.485v-18.383c0-3.216 1.53-6.198 4.03-8.221 6.317-5.111 10.357-12.924 10.357-21.683z" fill="#e80054"/></g></svg>