<svg id="Layer_1" enable-background="new 0 0 512 512" height="512" viewBox="0 0 512 512" width="512" xmlns="http://www.w3.org/2000/svg"><g><path d="m409.377 453.49c52.699-44.938 86.127-111.807 86.127-186.492 0-135.311-109.691-245.002-245.002-245.002s-245.003 109.691-245.003 245.002c0 105.849 67.126 196.016 161.13 230.265z" fill="#fcb1df"/><path d="m353.114 389.789c-12.246-8.377-21.142-20.805-25.242-35.065-3.987-13.868.359-28.723 11.029-38.437 29.554-26.908 47.737-66.087 46.48-109.489-2.258-77.979-66.802-147.341-144.804-146.116-14.761.232-29.187 2.82-42.871 7.385-22.753 15.176-54.385 59.42-42.739 149.235 15.364 118.49 40.673 150.008 80.004 145.513 32.943-3.765 41.257 38.59 26.354 63.062-11.56 18.983-22.977 54.761-23.501 85.799 4.199.214 8.425.323 12.677.323 60.625 0 116.098-22.032 158.875-58.51-15.206-24.991-35.814-49.712-56.262-63.7z" fill="#3c58a0"/><path d="m238.736 360.933c-39.331 4.495-64.64-27.023-80.004-145.513-11.765-90.734 20.639-134.024 43.436-148.756-56.225 16.789-100.93 66.897-106.742 125.193-.619 6.209-.105 12.48 1.528 18.502l1.824 6.723c1.886 6.954.271 14.386-4.323 19.936-14.438 17.445-26.535 28.851-26.535 43.051 0 10.272 20.004 12.822 25.392 14.69.859.298 1.433 1.104 1.433 2.013l-3.589 21.546c0 1.012.454 1.971 1.236 2.612l12.321 6.682c.795.652 1.142 1.705.891 2.702l-.739 2.932c-.806 3.198.158 6.583 2.529 8.875l6.348 6.138c3.95 3.819 6.18 9.078 6.18 14.573v7.277c0 8.311-.307 12.228 2.133 16.795 3.782 7.081 12.235 10.407 20.261 10.609 6.621.167 13.282-.895 19.62-3.104l17.157-5.979c.2-.07.401-.128.602-.177 3.276-.783 6.506 1.534 7.176 4.836l4.725 12.814c5.976 16.203 4.706 34.186-3.461 49.403-6.433 11.987-14.34 27.12-21.509 41.955 23.506 8.564 48.695 13.616 74.933 14.558.044-31.492 11.716-68.428 23.528-87.825 14.906-24.47 6.592-66.825-26.351-63.061z" fill="#2a428c"/><path d="m453.999 112.913c-16.831-30.585-58.122-36.825-83.24-12.579l-6.352 6.132c-2.273 2.193-5.874 2.193-8.146 0l-6.353-6.132c-8.162-7.879-18.034-12.519-28.217-14.17-6.322 8.523-14.618 22.808-12.651 37.166 1.421 10.377 8.007 19.003 19.573 25.638 22.52 12.918 31.588 31.311 38.874 46.09 4.742 9.618 8.786 17.771 15.257 22.143 11.785-11.076 27.297-21.754 46.597-30.423 28.216-12.673 39.57-46.767 24.658-73.865z" fill="#ff4155"/><path d="m501.531 20.726c-12.707-23.09-43.879-27.801-62.841-9.497l-4.796 4.629c-1.715 1.656-4.434 1.656-6.15 0l-4.796-4.629c-5.726-5.528-12.568-8.942-19.677-10.4-5.682 7.337-13.845 20.408-11.604 32.738 1.475 8.113 7.22 14.548 17.076 19.126 17.766 8.251 23.118 19.487 27.42 28.514 3.539 7.426 6.518 13.658 14.918 15.253 8.424-7.278 19.014-14.212 31.834-19.97 21.302-9.567 29.874-35.306 18.616-55.764z" fill="#f9a0b1"/><path d="m320.926 31.541c0 6.988-5.665 12.654-12.654 12.654-6.988 0-12.653-5.665-12.653-12.654 0-6.988 5.665-12.653 12.653-12.653 6.989 0 12.654 5.665 12.654 12.653z" fill="#ff7186"/><path d="m41.834 260c9.725-47.848 18.746-62.667 32.167-104.667 6.499-20.34-.84-36.145-10.139-47.038-36.39 42.755-58.363 98.159-58.363 158.703 0 74.287 33.068 140.845 85.28 185.776 79.235-24.714-64.116-118.132-48.945-192.774z" fill="#f9d2ec"/><path d="m495.503 266.998c0-11.491-.809-22.791-2.34-33.861-21.538-.242-61.544 3.665-78.662 33.861-23.029 40.623-57.697 100.577 27.291 153.069 33.601-41.937 53.711-95.151 53.711-153.069z" fill="#f9d2ec"/><ellipse cx="484.647" cy="188.859" fill="#ff4155" rx="21.854" ry="21.854" transform="matrix(.238 -.971 .971 .238 185.703 614.515)"/><circle cx="403.294" cy="135.629" fill="#ff7186" r="15.701"/><ellipse cx="460.668" cy="282.167" fill="#e8f4fc" rx="10.167" ry="10.167" transform="matrix(.247 -.969 .969 .247 73.634 659.046)"/><ellipse cx="153.471" cy="442.607" fill="#e8f4fc" rx="10.167" ry="10.167" transform="matrix(.924 -.383 .383 .924 -157.696 92.422)"/><ellipse cx="435.869" cy="346.632" fill="#fce3f5" rx="20.035" ry="20.035" transform="matrix(.707 -.707 .707 .707 -117.442 409.732)"/><ellipse cx="114.813" cy="80.083" fill="#fce3f5" rx="15.167" ry="15.167" transform="matrix(.016 -1 1 .016 32.926 193.617)"/><path d="m329.36 147.667c-32.319-18.54-16.056-47.811-5.983-61.21-21.634-4.232-45.044 5.26-56.707 26.456-14.912 27.099-3.558 61.192 24.657 73.865 31.193 14.01 52.471 33.257 64.112 50.914 2.321 3.521 7.468 3.521 9.789.001 4.666-7.079 10.88-14.404 18.647-21.543-16.271-10.584-16.925-46.92-54.515-68.483z" fill="#e80054"/><path d="m409.377 51.333c-28.845-13.399-13.098-39.141-4.462-50.14-16.869-4.211-35.642 2.877-44.808 19.533-11.258 20.458-2.686 46.197 18.615 55.765 23.549 10.577 39.613 25.108 48.401 38.438 1.753 2.658 5.638 2.659 7.39 0 4.289-6.506 10.318-13.287 18.081-19.754-19.032-2.413-9.824-28.331-43.217-43.842z" fill="#ff7186"/><circle cx="475.446" cy="31.541" fill="#fcc0cf" r="12.653"/></g></svg>