<svg id="Layer_1" enable-background="new 0 0 512 512" height="512" viewBox="0 0 512 512" width="512" xmlns="http://www.w3.org/2000/svg"><g><path d="m409.376 453.49c52.699-44.938 86.127-111.807 86.127-186.492 0-135.311-109.691-245.002-245.002-245.002s-245.002 109.691-245.002 245.002c0 105.849 67.126 196.016 161.13 230.265z" fill="#1e9ef4"/><path d="m353.114 389.789c-12.246-8.377-21.142-20.805-25.242-35.065-3.987-13.868.359-28.723 11.029-38.437 29.554-26.908 47.736-66.087 46.48-109.489-2.258-77.979-66.802-147.341-144.804-146.116-14.761.232-29.187 2.82-42.871 7.385-22.753 15.176-54.385 59.42-42.739 149.235 15.364 118.49 40.673 150.008 80.004 145.513 32.943-3.765 41.257 38.59 26.354 63.062-11.56 18.983-22.978 54.761-23.501 85.799 4.199.214 8.425.323 12.677.323 60.625 0 116.098-22.032 158.875-58.51-15.207-24.991-35.814-49.712-56.262-63.7z" fill="#e9efff"/><path d="m238.736 360.933c-39.331 4.495-64.64-27.023-80.004-145.513-11.765-90.734 20.64-134.024 43.436-148.756-56.224 16.789-100.93 66.897-106.741 125.193-.619 6.209-.105 12.48 1.528 18.502l1.824 6.723c1.886 6.954.271 14.386-4.323 19.936-14.438 17.445-26.535 28.851-26.535 43.051 0 10.272 20.004 12.822 25.392 14.69.859.298 1.433 1.104 1.433 2.013l-3.59 21.546c0 1.012.454 1.971 1.236 2.612l12.321 6.681c.795.652 1.143 1.705.891 2.702l-.739 2.932c-.806 3.198.158 6.583 2.529 8.875l6.348 6.138c3.95 3.819 6.18 9.079 6.18 14.573v7.277c0 8.312-.307 12.228 2.132 16.795 3.782 7.081 12.235 10.407 20.261 10.609 6.621.167 13.282-.895 19.62-3.104l17.157-5.979c.199-.07.401-.128.603-.177 3.276-.783 6.506 1.534 7.176 4.836l4.725 12.814c5.976 16.203 4.706 34.186-3.461 49.403-6.433 11.987-14.34 27.12-21.509 41.955 23.506 8.564 48.695 13.616 74.933 14.558.044-31.492 11.716-68.428 23.529-87.825 14.905-24.469 6.591-66.824-26.352-63.06z" fill="#d3dcfb"/><path d="m323.828 54.71c4.527 5.782 11.768 8.713 21.519 8.713 30.369 0 92.597 90.634 97.66 98.088-.394 2.954-1.483 15.527 6.938 24.113 4.791 4.886 11.722 7.511 20.677 7.861 22.06-20.378 35.88-49.546 35.88-81.946-.001-61.601-49.939-111.539-111.54-111.539-29.261 0-55.885 11.273-75.78 29.705-.796 4.723-1.939 16.594 4.646 25.005z" fill="#ff4155"/><path d="m444.577 161.155s-66.55-99.231-99.23-99.231c-32.679 0-24.304-33.902-24.303-33.904-23.072 20.435-37.621 50.276-37.621 83.52 0 61.602 49.938 111.539 111.539 111.539 29.969 0 57.175-11.822 77.216-31.054-32.99-.338-27.601-30.87-27.601-30.87z" fill="#e80054"/><g><path d="m425.485 161.155-80.139-80.14c-5.272-5.272-5.272-13.82 0-19.092s13.82-5.273 19.092 0l80.139 80.14c5.272 5.272 5.272 13.82 0 19.092-5.271 5.271-13.819 5.274-19.092 0z" fill="#bec8f7"/></g><g><path d="m345.346 161.155c-5.272-5.271-5.272-13.819 0-19.092l40.069-40.07c5.272-5.271 13.819-5.271 19.092 0 5.272 5.271 5.272 13.819 0 19.092l-40.069 40.07c-5.272 5.273-13.819 5.272-19.092 0z" fill="#d3dcfb"/></g><g><path d="m385.416 121.085c-5.272-5.272-5.272-13.819 0-19.092l40.069-40.069c5.272-5.271 13.819-5.271 19.092 0 5.272 5.273 5.272 13.819 0 19.092l-40.069 40.069c-5.274 5.272-13.82 5.271-19.092 0z" fill="#e9efff"/></g><path d="m41.834 260c9.725-47.848 18.746-62.667 32.167-104.667 6.499-20.34-.84-36.145-10.139-47.038-36.39 42.755-58.363 98.159-58.363 158.703 0 74.287 33.068 140.845 85.28 185.776 79.235-24.714-64.116-118.132-48.945-192.774z" fill="#49b1f7"/><path d="m495.503 266.998c0-11.491-.809-22.791-2.34-33.861-21.538-.242-61.544 3.665-78.662 33.861-23.029 40.623-57.697 100.577 27.291 153.069 33.601-41.937 53.711-95.151 53.711-153.069z" fill="#49b1f7"/><ellipse cx="460.668" cy="282.167" fill="#9bd8f9" rx="10.167" ry="10.167" transform="matrix(.223 -.975 .975 .223 82.711 668.148)"/><ellipse cx="153.471" cy="442.607" fill="#9bd8f9" rx="10.167" ry="10.167" transform="matrix(.938 -.347 .347 .938 -144.169 80.855)"/><g fill="#73c3f9"><ellipse cx="435.869" cy="346.632" rx="20.035" ry="20.035" transform="matrix(.209 -.978 .978 .209 5.679 700.287)"/><ellipse cx="114.813" cy="80.083" rx="15.167" ry="15.167" transform="matrix(.019 -1 1 .019 32.616 193.393)"/></g></g></svg>