<svg id="Layer_1" enable-background="new 0 0 512 512" height="512" viewBox="0 0 512 512" width="512" xmlns="http://www.w3.org/2000/svg"><g><path d="m414.875 453.49c52.699-44.938 86.127-111.807 86.127-186.492 0-135.311-109.691-245.002-245.002-245.002s-245.002 109.691-245.002 245.002c0 105.849 67.126 196.016 161.13 230.265z" fill="#5895f9"/><path d="m358.613 389.789c-12.246-8.377-21.142-20.805-25.242-35.065-3.987-13.868.359-28.723 11.029-38.437 29.554-26.908 47.737-66.087 46.48-109.489-2.258-77.979-66.802-147.341-144.804-146.116-14.761.232-29.187 2.82-42.871 7.385-22.753 15.176-54.385 59.42-42.739 149.235 15.364 118.49 40.673 150.008 80.004 145.513 32.943-3.765 41.257 38.59 26.354 63.062-11.56 18.983-22.977 54.761-23.501 85.799 4.199.215 8.425.324 12.677.324 60.625 0 116.098-22.032 158.875-58.51-15.207-24.992-35.814-49.713-56.262-63.701z" fill="#e8f4fc"/><path d="m244.235 360.933c-39.331 4.495-64.64-27.023-80.004-145.513-11.765-90.734 20.639-134.024 43.436-148.756-56.225 16.789-100.93 66.897-106.742 125.193-.619 6.209-.105 12.48 1.528 18.502l1.824 6.723c1.886 6.954.271 14.386-4.323 19.936-14.438 17.445-26.534 28.85-26.534 43.051 0 10.272 20.004 12.822 25.392 14.69.859.298 1.433 1.104 1.433 2.013l-3.589 21.546c0 1.012.454 1.971 1.236 2.612l12.321 6.681c.795.652 1.142 1.705.891 2.702l-.739 2.932c-.806 3.198.158 6.583 2.529 8.875l6.348 6.138c3.95 3.819 6.18 9.079 6.18 14.573v7.277c0 8.312-.307 12.228 2.133 16.795 3.782 7.081 12.235 10.407 20.261 10.609 6.621.167 13.282-.895 19.62-3.104l17.157-5.979c.2-.07.401-.128.603-.177 3.276-.783 6.506 1.534 7.176 4.836l4.725 12.814c5.975 16.203 4.706 34.186-3.461 49.403-6.433 11.987-14.34 27.12-21.509 41.955 23.506 8.564 48.695 13.616 74.933 14.558.044-31.492 11.716-68.428 23.528-87.825 14.904-24.469 6.59-66.825-26.353-63.06z" fill="#d3dcfb"/><path d="m47.333 260c9.725-47.848 18.746-62.667 32.167-104.667 6.499-20.34-.84-36.145-10.139-47.038-36.39 42.754-58.363 98.158-58.363 158.702 0 74.287 33.068 140.845 85.28 185.776 79.235-24.713-64.116-118.131-48.945-192.773z" fill="#73acff"/><path d="m501.002 266.998c0-11.491-.81-22.791-2.34-33.861-21.538-.242-61.544 3.665-78.662 33.861-23.029 40.623-57.697 100.577 27.291 153.069 33.601-41.937 53.711-95.151 53.711-153.069z" fill="#73acff"/><g><path d="m274.021 209.162c-9.953 0-18.021-8.068-18.021-18.021v-52.729c0-9.953 8.068-18.021 18.021-18.021s18.021 8.068 18.021 18.021v52.729c.001 9.953-8.068 18.021-18.021 18.021z" fill="#49b1f7"/></g><g><path d="m347.108 209.162c-9.953 0-18.021-8.068-18.021-18.021v-52.729c0-9.953 8.068-18.021 18.021-18.021s18.021 8.068 18.021 18.021v52.729c0 9.953-8.068 18.021-18.021 18.021z" fill="#ffc839"/></g><g><path d="m347.108 155.642c-9.953 0-18.021-8.068-18.021-18.021v-59.405c0-9.953 8.068-18.021 18.021-18.021s18.021 8.068 18.021 18.021v59.404c0 9.954-8.068 18.022-18.021 18.022z" fill="#ffdd40"/></g><g><path d="m420.195 209.162c-9.953 0-18.021-8.068-18.021-18.021v-52.729c0-9.953 8.068-18.021 18.021-18.021s18.021 8.068 18.021 18.021v52.729c0 9.953-8.068 18.021-18.021 18.021z" fill="#ff4155"/></g><path d="m420.195 75.715c-9.953 0-18.021-8.068-18.021-18.021v77.715c0 9.953 8.068 18.021 18.021 18.021s18.021-8.068 18.021-18.021c0-8.181 0-46.694 0-77.715 0 9.952-8.068 18.021-18.021 18.021z" fill="#ff7186"/><path d="m420.195 0c-9.953 0-18.021 8.068-18.021 18.021v40.672c0 9.953 8.068 18.021 18.021 18.021s18.021-8.068 18.021-18.021c0-19.16 0-35.646 0-40.672 0-9.953-8.068-18.021-18.021-18.021z" fill="#f9a0b1"/><ellipse cx="466.167" cy="282.167" fill="#b6d9fc" rx="10.167" ry="10.167" transform="matrix(.219 -.976 .976 .219 88.589 675.059)"/><ellipse cx="158.97" cy="442.607" fill="#b6d9fc" rx="10.167" ry="10.167" transform="matrix(.927 -.375 .375 .927 -154.432 91.962)"/><g fill="#99c7ff"><ellipse cx="441.368" cy="346.632" rx="20.035" ry="20.035" transform="matrix(.582 -.813 .813 .582 -97.329 503.999)"/><circle cx="120.312" cy="80.083" r="15.167"/></g></g></svg>