<svg id="Layer_1" enable-background="new 0 0 512 512" height="512" viewBox="0 0 512 512" width="512" xmlns="http://www.w3.org/2000/svg"><g><path d="m409.377 453.49c52.699-44.938 86.127-111.807 86.127-186.492 0-135.311-109.691-245.002-245.002-245.002s-245.003 109.691-245.003 245.002c0 105.849 67.126 196.016 161.13 230.265z" fill="#816ae2"/><path d="m353.114 389.789c-12.246-8.377-21.142-20.805-25.242-35.065-3.987-13.868.359-28.723 11.029-38.437 29.554-26.908 47.737-66.087 46.48-109.489-2.258-77.979-66.802-147.341-144.804-146.116-14.761.232-29.187 2.82-42.871 7.385-22.753 15.176-54.385 59.42-42.739 149.235 15.364 118.49 40.673 150.008 80.004 145.513 32.943-3.765 41.257 38.59 26.354 63.062-11.56 18.983-22.977 54.761-23.501 85.799 4.199.214 8.425.323 12.677.323 60.626 0 116.098-22.032 158.876-58.51-15.207-24.991-35.815-49.712-56.263-63.7z" fill="#e8f4fc"/><path d="m238.736 360.933c-39.331 4.495-64.64-27.023-80.004-145.513-11.765-90.734 20.639-134.024 43.436-148.756-56.224 16.789-100.93 66.897-106.742 125.193-.619 6.209-.105 12.48 1.529 18.502l1.824 6.723c1.886 6.954.271 14.386-4.323 19.936-14.438 17.445-26.535 28.85-26.535 43.051 0 10.272 20.004 12.822 25.392 14.69.859.298 1.433 1.104 1.433 2.013l-3.589 21.546c0 1.012.454 1.971 1.236 2.612l12.321 6.681c.795.652 1.142 1.705.891 2.702l-.739 2.932c-.806 3.198.158 6.583 2.529 8.875l6.348 6.138c3.95 3.819 6.18 9.079 6.18 14.573v7.277c0 8.312-.307 12.228 2.133 16.795 3.782 7.081 12.235 10.407 20.26 10.609 6.621.167 13.282-.895 19.62-3.104l17.156-5.979c.2-.07.401-.128.602-.177 3.276-.783 6.506 1.534 7.176 4.836l4.725 12.814c5.976 16.203 4.706 34.186-3.461 49.403-6.433 11.987-14.34 27.12-21.509 41.955 23.506 8.564 48.695 13.616 74.933 14.558.044-31.492 11.716-68.428 23.528-87.825 14.907-24.469 6.593-66.825-26.35-63.06z" fill="#d3dcfb"/><path d="m41.834 260c9.725-47.848 18.746-62.667 32.167-104.667 6.499-20.34-.84-36.145-10.139-47.038-36.39 42.755-58.363 98.159-58.363 158.703 0 74.287 33.068 140.845 85.28 185.776 79.235-24.714-64.116-118.132-48.945-192.774z" fill="#9181f2"/><path d="m478.081 0h-121.338c-2.861 2.943-10.039 11.392-9.908 21.976.086 6.92 3.29 13.363 9.53 19.178-.704.442-1.603 1.033-2.616 1.736h82.942c14.844 0 26.92 12.076 26.92 26.921v95.069h14.469c15.631 0 28.421-12.789 28.421-28.42v-108.04c0-15.63-12.789-28.42-28.42-28.42z" fill="#ffdd40"/><path d="m358.889 0h-62.455c-15.632 0-28.421 12.79-28.421 28.421v14.468h88.426c1.515-.982 2.45-1.5 2.45-1.5-23.75-20.175 0-41.389 0-41.389z" fill="#ffb332"/><path d="m436.691 41.389h-80.694c-2.335 1.489-6.266 4.21-10.401 8.035-8.522 7.884-13.677 16.65-14.905 25.351-1.574 11.139 3.028 22.271 13.678 33.095v36.035c-2.67 2.591-14.801 15.314-13.993 31.86.54 11.068 6.791 21.321 18.556 30.503h87.76c15.631 0 28.421-12.789 28.421-28.421v-108.037c-.001-15.631-12.79-28.421-28.422-28.421z" fill="#49b1f7"/><path d="m358.889 41.389h-103.845c-15.631 0-28.421 12.789-28.421 28.421v108.037c0 15.632 12.789 28.421 28.421 28.421 6.633 0 12.685 3.681 15.823 9.525 5.872 10.935 16.713 24.572 36.342 33.603 4.684 2.155 9.839-1.935 8.819-6.989l-4.426-21.946c-1.48-7.338 4.13-14.193 11.616-14.193h28.169c-40.5-30.047-5.521-61.717-5.521-61.717v-37.299c-37.79-37.793 13.023-65.863 13.023-65.863z" fill="#1e9ef4"/><circle cx="284.485" cy="125.901" fill="#d3dcfb" r="18.65"/><circle cx="345.868" cy="125.901" fill="#d3dcfb" r="18.65"/><circle cx="407.25" cy="125.901" fill="#e9efff" r="18.65"/><path d="m495.503 266.998c0-11.491-.809-22.791-2.34-33.861-21.538-.242-61.544 3.665-78.662 33.861-23.029 40.623-57.697 100.577 27.291 153.069 33.601-41.937 53.711-95.151 53.711-153.069z" fill="#9181f2"/><ellipse cx="460.668" cy="282.167" fill="#c9c8fc" rx="10.167" ry="10.167" transform="matrix(.208 -.978 .978 .208 88.785 674.003)"/><ellipse cx="153.471" cy="442.607" fill="#c9c8fc" rx="10.167" ry="10.167" transform="matrix(.949 -.316 .316 .949 -131.937 71.128)"/><g fill="#aaa2f9"><ellipse cx="435.869" cy="346.632" rx="20.035" ry="20.035" transform="matrix(.707 -.707 .707 .707 -117.442 409.732)"/><circle cx="114.813" cy="80.083" r="15.167"/></g></g></svg>