<svg id="Layer_1" enable-background="new 0 0 512 512" height="512" viewBox="0 0 512 512" width="512" xmlns="http://www.w3.org/2000/svg"><g><path d="m409.377 453.49c52.699-44.938 86.127-111.807 86.127-186.492 0-135.311-109.691-245.002-245.002-245.002s-245.003 109.691-245.003 245.002c0 105.849 67.126 196.016 161.13 230.265z" fill="#6faf46"/><path d="m353.114 389.789c-12.246-8.377-21.142-20.805-25.242-35.065-3.987-13.868.359-28.723 11.029-38.437 29.554-26.908 47.737-66.087 46.48-109.489-2.258-77.979-66.802-147.341-144.804-146.116-14.761.232-29.187 2.82-42.871 7.385-22.753 15.176-54.385 59.42-42.739 149.235 15.364 118.49 40.673 150.008 80.004 145.513 32.943-3.765 41.257 38.59 26.354 63.062-11.56 18.983-22.977 54.761-23.501 85.799 4.199.214 8.425.323 12.677.323 60.625 0 116.098-22.032 158.875-58.51-15.206-24.991-35.814-49.712-56.262-63.7z" fill="#e8f4fc"/><path d="m238.736 360.933c-39.331 4.495-64.64-27.023-80.004-145.513-11.765-90.734 20.639-134.024 43.436-148.756-56.225 16.789-100.93 66.897-106.742 125.193-.619 6.209-.105 12.48 1.529 18.502l1.824 6.723c1.886 6.954.271 14.386-4.323 19.936-14.438 17.445-26.535 28.85-26.535 43.051 0 10.272 20.004 12.822 25.392 14.69.859.298 1.433 1.104 1.433 2.013l-3.589 21.546c0 1.012.454 1.971 1.236 2.612l12.321 6.681c.795.652 1.142 1.705.891 2.702l-.739 2.932c-.806 3.198.158 6.583 2.529 8.875l6.348 6.138c3.95 3.819 6.18 9.079 6.18 14.573v7.277c0 8.312-.307 12.228 2.133 16.795 3.782 7.081 12.235 10.407 20.261 10.609 6.621.167 13.282-.895 19.62-3.104l17.157-5.979c.2-.07.401-.128.602-.177 3.276-.783 6.506 1.534 7.176 4.836l4.725 12.814c5.976 16.203 4.706 34.186-3.461 49.403-6.433 11.987-14.34 27.12-21.509 41.955 23.506 8.564 48.695 13.616 74.933 14.558.044-31.492 11.716-68.428 23.528-87.825 14.905-24.469 6.591-66.825-26.352-63.06z" fill="#d3dcfb"/><path d="m41.834 260c9.725-47.848 18.746-62.667 32.167-104.667 6.499-20.34-.84-36.145-10.139-47.038-36.39 42.755-58.363 98.159-58.363 158.703 0 74.287 33.068 140.845 85.28 185.776 79.235-24.714-64.116-118.132-48.945-192.774z" fill="#88ce65"/><path d="m393.214 0c-27.052 0-51.884 9.487-71.364 25.308-.182 2.27-.051 6.406 2.633 9.754 2.479 3.091 6.475 4.725 11.885 4.862l7.641 10.183c-.048 2.379.206 11.437 6.432 17.415 4.374 4.2 10.659 5.899 18.668 5.034 8.912-.95 15.597.377 19.331 3.852 3.421 3.184 3.325 7.083 3.318 7.309l.001 33.527 1.017.346c.153.053 15.392 5.364 20.7 17.993 2.978 7.085 2.314 15.21-1.972 24.15l-.042.095c-.148.374-3.595 9.255.669 16.899 2.672 4.791 7.713 7.941 14.989 9.371l5.562 11.36c-.557 1.929-1.879 7.85 1.275 12.322 1.984 2.813 5.301 4.441 9.852 4.886 37.166-18.585 62.69-56.998 62.69-101.379.002-62.567-50.718-113.287-113.285-113.287z" fill="#fff6d2"/><path d="m446.448 213.305c-17.845-.003-12.155-15.969-12.155-15.969l-6.156-12.574c-23.333-4.121-15.28-24.381-15.28-24.381 15.499-32.329-19.598-44.212-19.598-44.212v-32.453s.711-15.333-24.309-12.651-23.421-21.434-23.421-21.434l-8.403-11.197c-16.763 0-13.598-14.409-13.583-14.479-26.546 20.733-43.615 53.038-43.615 89.332 0 62.567 50.72 113.287 113.287 113.287 19.243 0 37.362-4.804 53.233-13.269z" fill="#ffe98d"/><g><circle cx="393.214" cy="113.287" fill="#ffdd40" r="86.531"/></g><path d="m428.137 184.762c-23.333-4.121-15.28-24.381-15.28-24.381 15.499-32.329-19.598-44.212-19.598-44.212v-32.453s.711-15.333-24.309-12.651-23.421-21.434-23.421-21.434l-4.2-5.596c-21.035 15.785-34.646 40.928-34.646 69.252 0 47.79 38.741 86.531 86.531 86.531 13.634 0 26.525-3.163 37.996-8.779z" fill="#ffc839"/><g><path d="m393.214 206.818c-51.573 0-93.531-41.958-93.531-93.531 0-29.715 13.647-56.998 37.442-74.854 3.093-2.321 7.48-1.695 9.801 1.397 2.32 3.092 1.694 7.479-1.397 9.8-20.238 15.187-31.846 38.389-31.846 63.656 0 43.854 35.677 79.531 79.531 79.531 12.254 0 24.004-2.711 34.923-8.057 3.472-1.698 7.665-.263 9.365 3.209 1.7 3.473.263 7.665-3.209 9.365-12.851 6.294-26.672 9.484-41.079 9.484z" fill="#ffb332"/></g><g><path d="m341.333 51.032c-2.128 0-4.229-.966-5.604-2.799-2.32-3.092-1.694-7.479 1.397-9.8 16.283-12.219 35.678-18.678 56.088-18.678 3.866 0 7 3.134 7 7s-3.134 7-7 7c-17.356 0-33.845 5.489-47.685 15.875-1.26.946-2.734 1.402-4.196 1.402z" fill="#ffc839"/></g><g><path d="m431.221 198.051c-2.589 0-5.077-1.442-6.292-3.924-1.7-3.472-.263-7.665 3.209-9.365 27.515-13.472 44.608-40.859 44.608-71.475 0-3.866 3.134-7 7-7s7 3.134 7 7c0 17.84-5.043 35.189-14.583 50.173-9.282 14.576-22.376 26.29-37.869 33.876-.991.484-2.04.715-3.073.715z" fill="#ffc839"/></g><g><path d="m479.745 120.287c-3.866 0-7-3.134-7-7 0-43.854-35.678-79.531-79.531-79.531-3.866 0-7-3.134-7-7s3.134-7 7-7c51.573 0 93.531 41.958 93.531 93.531 0 3.866-3.133 7-7 7z" fill="#ffe98d"/></g><path d="m355.218 67.255c-27.051 0-51.884 9.487-71.364 25.308-.182 2.27-.051 6.407 2.634 9.754 2.478 3.091 6.475 4.725 11.885 4.862l7.641 10.183c-.048 2.379.206 11.437 6.432 17.415 4.374 4.2 10.659 5.899 18.668 5.034 8.912-.95 15.597.377 19.331 3.852 3.421 3.185 3.325 7.083 3.318 7.309l.001 33.527 1.017.346c.153.053 15.392 5.364 20.7 17.993 2.978 7.085 2.314 15.21-1.972 24.15l-.042.095c-.148.374-3.595 9.255.669 16.899 2.672 4.791 7.713 7.941 14.989 9.371l5.562 11.36c-.557 1.929-1.879 7.85 1.275 12.322 1.984 2.813 5.301 4.441 9.852 4.886 37.166-18.585 62.69-56.998 62.69-101.379.001-62.567-50.719-113.287-113.286-113.287z" fill="#fff6d2"/><path d="m408.452 280.56c-17.845-.003-12.155-15.969-12.155-15.969l-6.156-12.574c-23.333-4.121-15.28-24.381-15.28-24.381 15.499-32.329-19.598-44.212-19.598-44.212v-32.453s.711-15.333-24.309-12.651-23.421-21.434-23.421-21.434l-8.403-11.197c-16.763 0-13.598-14.41-13.583-14.479-26.546 20.733-43.615 53.038-43.615 89.332 0 62.567 50.72 113.287 113.287 113.287 19.243 0 37.362-4.804 53.233-13.269z" fill="#ffe98d"/><g><circle cx="355.218" cy="180.542" fill="#ffdd40" r="86.531"/></g><path d="m390.141 252.017c-23.333-4.121-15.28-24.381-15.28-24.381 15.499-32.329-19.598-44.212-19.598-44.212v-32.453s.711-15.333-24.309-12.651-23.421-21.434-23.421-21.434l-4.2-5.596c-21.035 15.785-34.646 40.928-34.646 69.252 0 47.79 38.741 86.531 86.531 86.531 13.634 0 26.525-3.163 37.996-8.779z" fill="#ffc839"/><g><path d="m355.218 274.073c-51.573 0-93.531-41.958-93.531-93.531 0-29.715 13.647-56.998 37.442-74.854 3.093-2.321 7.48-1.695 9.801 1.397 2.32 3.092 1.694 7.479-1.397 9.8-20.238 15.187-31.846 38.389-31.846 63.656 0 43.854 35.677 79.531 79.531 79.531 12.254 0 24.004-2.711 34.923-8.057 3.472-1.698 7.665-.263 9.365 3.209 1.7 3.473.263 7.665-3.209 9.365-12.852 6.294-26.672 9.484-41.079 9.484z" fill="#ffb332"/></g><g><g><path d="m355.218 243.401c-3.866 0-7-3.134-7-7v-111.717c0-3.866 3.134-7 7-7s7 3.134 7 7v111.717c0 3.866-3.134 7-7 7z" fill="#ff9100"/></g></g><g><g><path d="m364.482 191.133c-.841 0-1.696-.152-2.527-.475l-18.439-7.142c-16.655-5.943-21.175-20.956-18.258-33.221.895-3.762 4.666-6.091 8.43-5.19 3.761.894 6.085 4.668 5.19 8.429-1.431 6.018.288 13.596 9.408 16.819.065.023.13.047.195.072l18.531 7.178c3.605 1.396 5.396 5.45 3.999 9.056-1.074 2.775-3.723 4.474-6.529 4.474z" fill="#ff9100"/></g></g><g><g><path d="m353.739 234.798c-9.778 0-15.773-.902-25.595-7.328-3.235-2.116-4.142-6.454-2.026-9.689 2.117-3.236 6.455-4.143 9.69-2.025 7.051 4.612 10.115 5.112 19.087 5.039 8.597-.058 13.858-5.653 15.916-10.871 1.418-3.597 5.485-5.363 9.08-3.944 3.597 1.417 5.363 5.482 3.945 9.079-4.765 12.087-15.818 19.649-28.846 19.736-.424.002-.842.003-1.251.003z" fill="#ff9100"/></g></g><g><g><path d="m332.073 158.917c-.536 0-1.081-.062-1.625-.191-3.761-.895-6.085-4.669-5.19-8.43 2.822-11.868 13.251-23.894 30.189-24.007 10.529-.093 16.613.631 26.845 7.325 3.235 2.116 4.142 6.454 2.026 9.689-2.117 3.234-6.457 4.14-9.69 2.025-7.05-4.611-10.106-5.098-19.088-5.04-9.348.062-15.104 6.697-16.662 13.245-.766 3.218-3.637 5.384-6.805 5.384z" fill="#ffb332"/></g></g><g><g><path d="m377.321 219.492c-.854 0-1.723-.157-2.566-.49-3.596-1.418-5.362-5.482-3.944-9.079 1.596-4.047 1.599-8.367.009-11.855-1.541-3.38-4.458-5.848-8.669-7.337-3.645-1.288-5.556-5.287-4.268-8.933s5.288-5.561 8.933-4.267c7.82 2.764 13.61 7.857 16.743 14.729 3.158 6.926 3.258 15.235.277 22.797-1.086 2.755-3.724 4.435-6.515 4.435z" fill="#ffb332"/></g></g><g><path d="m303.336 118.287c-2.127 0-4.229-.966-5.604-2.799-2.32-3.092-1.694-7.479 1.397-9.8 16.283-12.219 35.678-18.678 56.088-18.678 3.866 0 7 3.134 7 7s-3.134 7-7 7c-17.356 0-33.845 5.489-47.685 15.875-1.259.946-2.734 1.402-4.196 1.402z" fill="#ffc839"/></g><g><path d="m393.225 265.306c-2.589 0-5.077-1.442-6.292-3.924-1.7-3.472-.263-7.665 3.209-9.365 27.515-13.472 44.608-40.859 44.608-71.475 0-3.866 3.134-7 7-7s7 3.134 7 7c0 17.84-5.043 35.189-14.583 50.173-9.282 14.576-22.376 26.29-37.869 33.876-.991.484-2.04.715-3.073.715z" fill="#ffc839"/></g><g><path d="m441.749 187.542c-3.866 0-7-3.134-7-7 0-43.854-35.678-79.531-79.531-79.531-3.866 0-7-3.134-7-7s3.134-7 7-7c51.573 0 93.531 41.958 93.531 93.531 0 3.866-3.134 7-7 7z" fill="#ffe98d"/></g><path d="m442.583 304.518c-29.796-1.523-54.45 23.266-52.091 53.008.015.194.031.387.048.581 1.955 22.305 14.466 45.368 46.855 67.283 25.669-30.254 44.113-66.82 52.694-107.042-14.627-9.298-31.503-13.012-47.506-13.83z" fill="#88ce65"/><circle cx="468.505" cy="272" fill="#d7ef95" r="10.167"/><ellipse cx="153.471" cy="442.607" fill="#d7ef95" rx="10.167" ry="10.167" transform="matrix(.924 -.383 .383 .924 -157.696 92.422)"/><g fill="#b4d667"><ellipse cx="435.869" cy="346.632" rx="20.035" ry="20.035" transform="matrix(.707 -.707 .707 .707 -117.442 409.732)"/><circle cx="114.813" cy="80.083" r="15.167"/></g></g></svg>