<svg id="Layer_1" enable-background="new 0 0 512 512" height="512" viewBox="0 0 512 512" width="512" xmlns="http://www.w3.org/2000/svg"><g><path d="m409.377 453.49c52.699-44.938 86.127-111.807 86.127-186.492 0-135.311-109.691-245.002-245.002-245.002s-245.003 109.691-245.003 245.002c0 105.849 67.126 196.016 161.13 230.265z" fill="#2a428c"/><path d="m353.114 389.789c-12.246-8.377-21.142-20.805-25.242-35.065-3.987-13.868.359-28.723 11.029-38.437 29.554-26.908 47.737-66.087 46.48-109.489-2.258-77.979-66.802-147.341-144.804-146.116-14.761.232-29.187 2.82-42.871 7.385-22.753 15.176-54.385 59.42-42.739 149.235 15.364 118.49 40.673 150.008 80.004 145.513 32.943-3.765 41.257 38.59 26.354 63.062-11.56 18.983-22.977 54.761-23.501 85.799 4.199.214 8.425.323 12.677.323 60.625 0 116.098-22.032 158.875-58.51-15.206-24.991-35.814-49.712-56.262-63.7z" fill="#ffdd40"/><path d="m238.736 360.933c-39.331 4.495-64.64-27.023-80.004-145.513-11.765-90.734 20.639-134.024 43.436-148.756-56.225 16.789-100.93 66.897-106.742 125.193-.619 6.209-.105 12.48 1.529 18.502l1.824 6.723c1.886 6.954.271 14.386-4.323 19.936-14.438 17.445-26.535 28.85-26.535 43.051 0 10.272 20.004 12.822 25.392 14.69.859.298 1.433 1.104 1.433 2.013l-3.59 21.546c0 1.012.454 1.971 1.236 2.612l12.321 6.681c.795.652 1.142 1.705.891 2.702l-.739 2.932c-.806 3.198.158 6.583 2.529 8.875l6.348 6.138c3.95 3.819 6.18 9.079 6.18 14.573v7.277c0 8.312-.307 12.228 2.133 16.795 3.782 7.081 12.235 10.407 20.261 10.609 6.621.167 13.282-.895 19.62-3.104l17.157-5.979c.2-.07.401-.128.603-.177 3.276-.783 6.506 1.534 7.176 4.836l4.725 12.814c5.975 16.203 4.706 34.186-3.461 49.403-6.433 11.987-14.34 27.12-21.509 41.955 23.506 8.564 48.695 13.616 74.933 14.558.044-31.492 11.716-68.428 23.528-87.825 14.905-24.469 6.591-66.825-26.352-63.06z" fill="#ffc839"/><path d="m41.834 260c9.725-47.848 18.746-62.667 32.167-104.667 6.499-20.34-.84-36.145-10.139-47.038-36.39 42.755-58.363 98.159-58.363 158.703 0 74.287 33.068 140.845 85.28 185.776 79.235-24.714-64.116-118.132-48.945-192.774z" fill="#3c58a0"/><ellipse cx="374.227" cy="132.274" fill="#49b1f7" rx="125.274" ry="125.274" transform="matrix(.707 -.707 .707 .707 16.077 303.361)"/><path d="m462.202 221.449c-1.687-3.213-3.172-5.224-4.342-5.542-8.254-2.241-5.074-11.439-5.074-11.439l-14.918-17.104c-32.079-14.616-22.249-48.9-22.249-48.9l-10.26-13.192c-48.755-3.041-54.479-51.72-54.479-51.72l-11.893-15.542c-17.126-2.805-14.504-17.907-14.504-17.907l-6.981-19.55c-40.679 20.696-68.548 62.952-68.548 111.721 0 69.187 56.087 125.274 125.274 125.274 34.287 0 65.353-13.781 87.974-36.099z" fill="#1e9ef4"/><path d="m467.759 215.906c-2.733-2.732-7.166-2.732-9.899 0-7.291 7.291-15.37 13.505-24.039 18.579 7.266-8.455 13.681-18.524 18.966-30.018 1.615-3.512.077-7.669-3.436-9.284-.928-.426-1.9-.627-2.859-.635.035-.66-.019-1.336-.182-2.011-.903-3.76-4.685-6.075-8.441-5.172-8.488 2.04-17.283 3.621-26.307 4.794 2.416-16.473 3.809-34.718 4.058-53.694 2.223-1.173 3.739-3.504 3.739-6.192 0-3.866-3.134-7-7-7h-65.507c.283-18.124 1.66-35.873 4.028-51.719.481-3.222-1.318-6.25-4.182-7.469.75-4.622-3.13-8.614-7.711-8.076-10.127 1.174-19.911 2.854-29.221 4.991 4.143-8.446 9.068-16.158 14.717-22.898 2.483-2.963 2.094-7.378-.869-9.861-2.965-2.484-7.378-2.094-9.861.869-8.719 10.405-15.895 22.82-21.318 36.569-7.954 2.493-15.426 5.353-22.316 8.541 10.451-19.402 26.276-35.868 46.115-47.053 3.368-1.898 4.559-6.168 2.66-9.535-1.899-3.368-6.169-4.558-9.535-2.66-40.851 23.03-67.405 66.791-67.405 115.301 0 73.018 59.416 132.274 132.274 132.274 35.332 0 68.549-13.759 93.532-38.741 2.733-2.734 2.733-7.165-.001-9.9zm-66.15-76.633c-.309 20.958-1.99 39.136-4.442 54.379-15.095 1.163-30.297 1.21-45.88-.006-2.451-15.242-4.132-33.418-4.441-54.373zm-98.489-60.157c10.513-2.915 21.858-5.184 33.784-6.731-2.387 16.282-3.773 34.414-4.053 52.888h-38.12c.645-16.262 3.532-31.92 8.389-46.157zm33.773 113.041c-11.877-1.544-23.239-3.815-33.798-6.741-4.768-14.02-7.71-29.631-8.362-46.143h38.117c.277 18.685 1.662 36.646 4.043 52.884zm-75.481-95.315c7.342-4.706 15.928-8.893 25.488-12.483-3.542 12.956-5.655 26.745-6.179 40.915h-24.543c.571-9.765 2.33-19.211 5.234-28.432zm-5.234 42.431h24.547c.518 14.181 2.622 27.947 6.161 40.901-9.547-3.58-18.148-7.768-25.517-12.494-3.02-9.605-4.638-18.929-5.191-28.407zm13.905 49.016c6.902 3.186 14.384 6.035 22.328 8.52 5.361 13.577 12.601 26.399 22.077 37.505-18.677-10.976-34.092-26.927-44.405-46.025zm39.602 13.187c9.478 2.179 19.425 3.88 29.678 5.068 2.509 12.705 6.393 27.611 12.223 39.127-17.042-7.519-31.712-23.295-41.901-44.195zm64.542 49.072c-5.528 0-14.161-14.713-20.264-42.682 13.399.887 26.826.908 40.522.024-6.102 27.953-14.732 42.658-20.258 42.658zm22.677-4.948c5.792-11.473 9.666-26.3 12.177-39.008 10.156-1.163 20.038-2.849 29.593-5.042-10.463 21.364-25.203 36.683-41.77 44.05z" fill="#73c3f9"/><path d="m374.227 0c-21.896 0-44.535 5.509-64.869 16.973-3.368 1.898-4.559 6.168-2.66 9.535 1.66 2.944 5.132 4.224 8.23 3.231-.394.454-.788.908-1.176 1.372-2.483 2.963-2.094 7.378.869 9.861 2.963 2.482 7.378 2.095 9.861-.869 8.202-9.788 17.358-16.917 27.11-21.231-5.74 11.29-9.641 25.95-12.229 39.098-.125.014-.251.026-.376.041-3.84.444-6.593 3.919-6.148 7.759.3 2.585 1.974 4.676 4.207 5.632-.004.028-.009.057-.013.085-.571 3.823 2.065 7.386 5.889 7.957 3.82.572 7.387-2.064 7.958-5.889.135-.903.275-1.781.415-2.662 14.826-1.147 30.139-1.219 45.876.01 2.924 18.42 4.49 39.431 4.49 61.372 0 3.866 3.134 7 7 7s7-3.134 7-7c0-21.192-1.422-41.626-4.099-59.883 11.877 1.544 23.239 3.815 33.798 6.741 11.317 33.277 11.389 72.846-.053 106.307-2.436.676-4.915 1.32-7.439 1.926-3.759.903-6.074 4.683-5.171 8.442.766 3.189 3.604 5.335 6.743 5.361-.148 2.782 1.377 5.501 4.062 6.735 3.497 1.608 7.662.092 9.284-3.436 1.144-2.488 2.219-5.029 3.237-7.607 8.01-2.516 15.536-5.397 22.448-8.602-5.411 10.043-12.318 19.354-20.611 27.648-2.734 2.733-2.734 7.165 0 9.899 2.734 2.733 7.166 2.733 9.899-.001 25.611-25.611 38.742-59.143 38.742-93.532 0-73.172-59.575-132.273-132.274-132.273zm-20.292 56.67c6.315-29.286 15.189-42.67 20.292-42.67 3.088 0 10.739 6.594 17.598 31.547.971 3.532 1.866 7.264 2.701 11.138-13.403-.89-26.753-.916-40.591-.015zm55.156 1.334c-2.509-12.705-6.393-27.61-12.223-39.127 17.042 7.518 31.713 23.294 41.901 44.195-9.477-2.178-19.424-3.88-29.678-5.068zm24.875-27.77c18.677 10.976 34.092 26.928 44.405 46.026-6.902-3.186-14.384-6.035-22.328-8.52-5.361-13.578-12.6-26.4-22.077-37.506zm53.149 137.427c-7.292 4.677-15.911 8.886-25.552 12.507 8.221-30.067 8.585-64.391.005-95.795 9.547 3.58 18.148 7.768 25.517 12.495 7.138 22.697 7.285 47.629.03 70.793z" fill="#9bd8f9"/><g><path d="m497.375 139.273h-85.017c-3.866 0-7-3.134-7-7s3.134-7 7-7h85.017c3.866 0 7 3.134 7 7s-3.134 7-7 7z" fill="#9bd8f9"/></g><path d="m437.395 425.389c33.248-39.186 54.391-88.957 57.655-143.553-13.555-2.012-28.128-1.49-41.861.222-37.806 4.712-65.975 38.095-62.648 76.049 1.955 22.305 14.465 45.367 46.854 67.282z" fill="#3c58a0"/><ellipse cx="470.834" cy="252.648" fill="#6a90cc" rx="10.167" ry="10.167" transform="matrix(.23 -.973 .973 .23 116.77 652.841)"/><ellipse cx="153.471" cy="442.607" fill="#6a90cc" rx="10.167" ry="10.167" transform="matrix(.924 -.383 .383 .924 -157.696 92.422)"/><g fill="#4f71b6"><ellipse cx="435.869" cy="346.632" rx="20.035" ry="20.035" transform="matrix(.707 -.707 .707 .707 -117.442 409.732)"/><circle cx="114.813" cy="80.083" r="15.167"/></g></g></svg>