<svg id="Layer_1" enable-background="new 0 0 512 512" height="512" viewBox="0 0 512 512" width="512" xmlns="http://www.w3.org/2000/svg"><g><path d="m409.377 453.49c52.699-44.938 86.127-111.807 86.127-186.492 0-135.311-109.691-245.002-245.002-245.002s-245.003 109.691-245.003 245.002c0 105.849 67.126 196.016 161.13 230.265z" fill="#2a428c"/><path d="m353.114 389.789c-12.246-8.377-21.142-20.805-25.242-35.065-3.987-13.868.359-28.723 11.029-38.437 29.554-26.908 47.737-66.087 46.48-109.489-2.258-77.979-66.802-147.341-144.804-146.116-14.761.232-29.187 2.82-42.871 7.385-22.753 15.176-54.385 59.42-42.739 149.235 15.364 118.49 40.673 150.008 80.004 145.513 32.943-3.765 41.257 38.59 26.354 63.062-11.56 18.983-22.977 54.761-23.501 85.799 4.199.214 8.425.323 12.677.323 60.626 0 116.098-22.032 158.876-58.51-15.207-24.991-35.815-49.712-56.263-63.7z" fill="#e8f4fc"/><path d="m238.736 360.933c-39.331 4.495-64.64-27.023-80.004-145.513-11.765-90.734 20.639-134.024 43.436-148.756-56.224 16.789-100.93 66.897-106.742 125.193-.619 6.209-.105 12.48 1.529 18.502l1.824 6.723c1.886 6.954.271 14.386-4.323 19.936-14.438 17.445-26.535 28.851-26.535 43.051 0 10.272 20.004 12.822 25.392 14.69.859.298 1.433 1.104 1.433 2.013l-3.589 21.546c0 1.012.454 1.971 1.236 2.612l12.321 6.682c.795.652 1.142 1.705.891 2.702l-.739 2.932c-.806 3.198.158 6.583 2.529 8.875l6.348 6.138c3.95 3.819 6.18 9.078 6.18 14.573v7.277c0 8.311-.307 12.228 2.133 16.795 3.782 7.081 12.235 10.407 20.26 10.609 6.621.167 13.282-.895 19.62-3.104l17.156-5.979c.2-.07.401-.128.602-.177 3.276-.783 6.506 1.534 7.176 4.836l4.725 12.814c5.976 16.203 4.706 34.186-3.461 49.403-6.433 11.988-14.34 27.12-21.509 41.955 23.506 8.564 48.695 13.616 74.933 14.558.044-31.492 11.716-68.428 23.528-87.825 14.907-24.47 6.593-66.826-26.35-63.061z" fill="#d3dcfb"/><path d="m41.834 260c9.725-47.848 18.746-62.667 32.167-104.667 6.499-20.34-.84-36.145-10.139-47.038-36.39 42.755-58.363 98.159-58.363 158.703 0 74.287 33.068 140.845 85.28 185.776 79.235-24.714-64.116-118.133-48.945-192.774z" fill="#3c58a0"/><path d="m495.503 266.998c0-11.491-.809-22.791-2.34-33.861-21.538-.242-61.544 3.665-78.662 33.861-23.029 40.623-57.697 100.577 27.291 153.069 33.601-41.937 53.711-95.151 53.711-153.069z" fill="#3c58a0"/><path d="m457.251 167.371c-8.722 5.392-14.394 14.998-16.878 28.545 15.885 16.09 35.063 22.531 45.768 14.304 10.482-8.054 9.474-27.575-1.325-46.683-4.153-.961-16.551-2.975-27.565 3.834z" fill="#88ce65"/><path d="m485.802 165.34c-2.154-4.045-4.741-8.089-7.76-12.018-2.826-3.678-5.847-7.012-8.972-9.986-10.24 7.748-24.028 10.847-36.637 8.371-3.466 4.429-7.728 7.987-12.479 10.663 2.436 8.26 6.915 17.07 13.294 25.372 2.659 3.46 5.488 6.623 8.416 9.462 7.269-43.067 44.064-31.886 44.138-31.864z" fill="#6faf46"/><path d="m338.245 169.65c-7.615-6.256-17.813-8.787-30.342-7.568-11.582 19.564-12.917 39.879-2.169 48.138 10.728 8.243 29.96 1.762 45.864-14.4-.454-4.204-2.699-17.416-13.353-26.17z" fill="#88ce65"/><path d="m359.442 151.707c-12.61 2.476-26.397-.623-36.637-8.371-3.125 2.974-6.146 6.308-8.972 9.986-2.607 3.392-4.895 6.87-6.858 10.36 41.479-4.708 43.236 33.521 43.236 33.521 2.928-2.838 5.758-6.001 8.417-9.461 6.379-8.302 10.858-17.112 13.294-25.372-4.752-2.676-9.013-6.234-12.48-10.663z" fill="#6faf46"/><path d="m428.512 203.391c-3.499-3-17.166-13.684-34.205-13.684-9.661 0-20.405 3.434-30.992 13.652l-.208-.126c4.629 22.887 17.574 39.37 32.832 39.37 15.257 0 28.202-16.483 32.831-39.368z" fill="#b4d667"/><path d="m428.341 205.244c1.453-6.39 2.255-13.316 2.255-20.558 0-9.73-1.443-18.892-3.979-26.942-16.96 14.332-44.397 14.332-61.357 0-2.537 8.05-3.979 17.212-3.979 26.942 0 7.242.802 14.168 2.255 20.559 31.702-31.703 64.743-.06 64.805-.001z" fill="#88ce65"/><path d="m474.578 70.88c2.928 1.378 9.243 3.705 14.748 1.366 3.558-1.508 6.099-4.653 7.58-9.347-9.047-21.986-23-41.473-40.862-57.15-3.525-3.094-9.082-1.872-10.986 2.414-1.512 3.405-2.89 6.857-4.147 10.346 13.96 16.427 24.918 35.218 32.387 55.64.454-1.038.881-2.128 1.28-3.269z" fill="#816ae2"/><path d="m481.9 106.34c1.828 10.595.16 19.708-3.772 27.118 17.216-3.687 32.019-18.683 27.575-41.299-2.151-10.949-5.433-21.485-9.734-31.489-4.42 18.68-22.264 8.069-22.264 8.069-.369 1.182-.763 2.287-1.176 3.336 4.166 10.976 7.329 22.429 9.371 34.265z" fill="#7255ce"/><path d="m302.469 71.737c4.026 2.109 8.941 2.165 14.634.167.235.869.591 2.016 1.084 3.302 7.475-20.833 18.577-39.987 32.779-56.697-1.258-3.489-2.636-6.941-4.147-10.346-1.903-4.287-7.461-5.508-10.986-2.414-17.836 15.655-31.775 35.108-40.823 57.055.897 2.406 3.021 6.607 7.459 8.933z" fill="#816ae2"/><path d="m313.735 133.455c-3.929-7.408-5.588-16.524-3.76-27.116 1.985-11.503 5.035-22.643 9.027-33.337-.605-1.857-.833-3.108-.833-3.108-18.551 7.58-22.262-9.226-22.262-9.228-4.302 10.005-7.584 20.542-9.736 31.492-4.442 22.611 10.353 37.606 27.564 41.297z" fill="#7255ce"/><path d="m438.121 85.474c3.264 1.761 12.669 6.044 21.801 2.689 6.404-2.353 11.242-7.947 14.413-16.626-10.151-26.502-26.248-50.154-47.128-69.355-4.108-3.777-10.753-2.478-13.135 2.569-1.855 3.93-3.558 7.918-5.125 11.951 13.658 21.552 23.026 45.508 27.567 70.735.536-.649 1.073-1.288 1.607-1.963z" fill="#9181f2"/><path d="m483.9 106.34c-2.21-12.808-5.715-25.176-10.402-36.966-9.937 30.489-35.757 14.153-35.757 14.153-.53.686-1.058 1.34-1.586 1.994 2.589 13.611 3.776 27.6 3.46 41.792-.247 11.103-3.601 20.111-8.887 27.03 26.499 6.323 59.278-12.62 53.172-48.003z" fill="#816ae2"/><path d="m329.652 88.71c6.548 3.027 14.62 1.948 24.007-3.21.407.561.968 1.308 1.661 2.181 4.525-25.321 13.91-49.362 27.609-70.979-1.567-4.033-3.27-8.021-5.125-11.951-2.382-5.047-9.027-6.347-13.135-2.569-21.094 19.397-37.308 43.336-47.44 70.167 1.16 4.066 4.475 12.686 12.423 16.361z" fill="#9181f2"/><path d="m361.149 154.341c-5.286-6.918-8.64-15.927-8.887-27.03-.315-14.133.861-28.062 3.426-41.616-1.032-1.345-1.581-2.169-1.581-2.169-30.256 17.53-35.927-13.576-35.936-13.63-4.584 11.633-8.017 23.826-10.195 36.444-6.107 35.383 26.673 54.326 53.173 48.001z" fill="#816ae2"/><path d="m394.733 110.873c15.099.557 29.646-8.004 43.389-25.399.009.005.022.011.031.016-5.526-29.048-17.463-56.365-34.995-80.203-3.568-4.851-10.872-4.851-14.44 0-17.543 23.853-29.489 51.197-35.01 80.28 3.739 5.141 19.251 24.525 41.025 25.306z" fill="#aaa2f9"/><path d="m350.262 127.312c1.313 58.919 90.04 58.919 91.352 0 .331-14.879-.988-29.536-3.844-43.767-.018-.011-.03-.019-.03-.019-44.939 58.157-83.56.111-83.632.003-2.857 14.234-4.178 28.896-3.846 43.783z" fill="#9181f2"/><ellipse cx="460.668" cy="282.167" fill="#6a90cc" rx="10.167" ry="10.167" transform="matrix(.208 -.978 .978 .208 88.785 674.003)"/><ellipse cx="153.471" cy="442.607" fill="#6a90cc" rx="10.167" ry="10.167" transform="matrix(.949 -.316 .316 .949 -131.937 71.128)"/><g fill="#4f71b6"><ellipse cx="435.869" cy="346.632" rx="20.035" ry="20.035" transform="matrix(.707 -.707 .707 .707 -117.442 409.732)"/><circle cx="114.813" cy="80.083" r="15.167"/></g></g></svg>