<svg id="Layer_1" enable-background="new 0 0 512 512" height="512" viewBox="0 0 512 512" width="512" xmlns="http://www.w3.org/2000/svg"><g><path d="m411.377 453.49c52.699-44.938 86.127-111.807 86.127-186.492 0-135.311-109.691-245.002-245.002-245.002s-245.003 109.691-245.003 245.002c0 105.849 67.126 196.016 161.13 230.265z" fill="#1e9ef4"/><path d="m355.114 389.789c-12.246-8.377-21.142-20.805-25.242-35.065-3.987-13.868.359-28.723 11.029-38.437 29.554-26.908 47.737-66.087 46.48-109.489-2.258-77.979-66.802-147.341-144.804-146.116-14.761.232-29.187 2.82-42.871 7.385-22.753 15.176-54.385 59.42-42.739 149.235 15.364 118.49 40.673 150.008 80.004 145.513 32.943-3.765 41.257 38.59 26.354 63.062-11.56 18.983-22.977 54.761-23.501 85.799 4.199.214 8.425.323 12.677.323 60.625 0 116.098-22.032 158.875-58.51-15.206-24.991-35.814-49.712-56.262-63.7z" fill="#e8f4fc"/><path d="m240.736 360.933c-39.331 4.495-64.64-27.023-80.004-145.513-11.765-90.734 20.639-134.024 43.436-148.756-56.225 16.789-100.93 66.897-106.742 125.193-.619 6.209-.105 12.48 1.529 18.502l1.824 6.723c1.886 6.954.271 14.386-4.323 19.936-14.438 17.445-26.535 28.85-26.535 43.051 0 10.272 20.004 12.822 25.392 14.69.859.298 1.433 1.104 1.433 2.013l-3.589 21.546c0 1.012.454 1.971 1.236 2.612l12.321 6.681c.795.652 1.142 1.705.891 2.702l-.739 2.932c-.806 3.198.158 6.583 2.529 8.875l6.348 6.138c3.95 3.819 6.18 9.079 6.18 14.573v7.277c0 8.312-.307 12.228 2.133 16.795 3.782 7.081 12.235 10.407 20.261 10.609 6.621.167 13.282-.895 19.62-3.104l17.157-5.979c.2-.07.401-.128.603-.177 3.276-.783 6.506 1.534 7.176 4.836l4.725 12.814c5.975 16.203 4.706 34.186-3.461 49.403-6.433 11.987-14.34 27.12-21.509 41.955 23.506 8.564 48.695 13.616 74.933 14.558.044-31.492 11.716-68.428 23.528-87.825 14.904-24.469 6.59-66.825-26.353-63.06z" fill="#d3dcfb"/><path d="m43.834 260c9.725-47.848 18.746-62.667 32.167-104.667 6.499-20.34-.84-36.145-10.139-47.038-36.39 42.755-58.363 98.159-58.363 158.703 0 74.287 33.068 140.845 85.28 185.776 79.235-24.714-64.116-118.132-48.945-192.774z" fill="#49b1f7"/><path d="m498.6 155.807c-1.661 3.891-3.952 6.274-6.807 7.086-4.637 1.318-9.546-1.813-10.146-2.215-2.347-2.115-57.119-51.631-62.518-68.79-1.631-5.184-1.457-9.104.517-11.653 2.923-3.777 9.021-3.515 9.081-3.504l.116.006 2.732-.284c-15.683-7.137-33.108-11.115-51.462-11.115-31.815 0-60.835 11.95-82.831 31.599-.285 2.51-.27 6.927 2.57 10.229 2.631 3.06 6.963 4.364 12.904 3.89l8.02 9.63c-.616 4.224-3.037 25.847 9.241 40.463 7.249 8.629 18.21 13.066 32.585 13.189l32.705 32.706c-.556 1.975-1.818 7.029-2.193 13.368-.635 10.737 1.645 20.005 6.592 26.8 6.976 9.58 19.095 14.503 36.028 14.639l7.859 9.831c-.37 2.14-1.044 8.363 2.67 12.411 2.368 2.58 5.983 3.716 10.747 3.411 28.921-22.776 47.491-58.107 47.491-97.776 0-12.41-1.826-24.392-5.209-35.701-.226.621-.455 1.224-.692 1.78z" fill="#ffc839"/><path d="m428.803 75.232c-.083-.005-16.766-.89-11.104 17.106 5.676 18.042 63.02 69.522 63.02 69.522s12.989 9.216 19.26-5.461c-10.165-36.636-36.669-66.474-71.176-81.167z" fill="#ffdd40"/><path d="m459.163 285.768c-18.085 2.719-13.964-14.48-13.964-14.48l-8.742-10.936c-56.794 0-39.458-53.739-39.458-53.739l-33.774-33.774c-50.077 0-40.864-52.593-40.864-52.593l-8.959-10.758c-18.469 1.935-14.356-14.042-14.336-14.122-26.535 22.812-43.344 56.622-43.344 94.359 0 68.698 55.691 124.389 124.389 124.389 30.023.001 57.561-10.636 79.052-28.346z" fill="#ff9100"/><path d="m320.776 120.685c-.616 4.224-3.037 25.847 9.241 40.463 7.249 8.629 18.21 13.066 32.585 13.189l32.705 32.706c-.556 1.975-1.818 7.029-2.193 13.368-.635 10.737 1.645 20.005 6.592 26.8 6.976 9.58 19.095 14.503 36.028 14.639l4.129 5.165c23.059-17.881 37.904-45.849 37.904-77.288 0-53.986-43.764-97.75-97.75-97.75-24.277 0-46.483 8.854-63.576 23.503z" fill="#3c58a0"/><path d="m441.04 266.085-4.583-5.733c-56.794 0-39.458-53.739-39.458-53.739l-33.774-33.774c-50.077 0-40.864-52.593-40.864-52.593l-4.776-5.735c-21.578 17.93-35.319 44.967-35.319 75.215 0 53.986 43.764 97.75 97.75 97.75 23.087.001 44.3-8.007 61.024-21.391z" fill="#2a428c"/><g><path d="m380.112 114.515c-3.866 0-7-3.134-7-7v-8.177c0-3.866 3.134-7 7-7s7 3.134 7 7v8.177c0 3.866-3.133 7-7 7z" fill="#6289cc"/></g><g><path d="m380.112 287.115c-3.866 0-7-3.134-7-7v-8.177c0-3.866 3.134-7 7-7s7 3.134 7 7v8.177c0 3.867-3.133 7-7 7z" fill="#6289cc"/></g><g><path d="m297.901 196.727h-8.177c-3.866 0-7-3.134-7-7s3.134-7 7-7h8.177c3.866 0 7 3.134 7 7s-3.134 7-7 7z" fill="#6289cc"/></g><g><path d="m470.501 196.727h-8.177c-3.866 0-7-3.134-7-7s3.134-7 7-7h8.177c3.866 0 7 3.134 7 7s-3.134 7-7 7z" fill="#6289cc"/></g><path d="m393.612 17.472v-3.972c0-7.456-6.044-13.5-13.5-13.5s-13.5 6.044-13.5 13.5v3.972z" fill="#bec8f7"/><path d="m366.612 47.695v18.584c0 7.456 6.044 13.5 13.5 13.5s13.5-6.044 13.5-13.5v-18.584z" fill="#bec8f7"/><path d="m398.306 15.972h-7.325c-6.878 2.397-11.855 8.944-11.855 16.611 0 7.668 4.978 14.215 11.855 16.611h7.325c9.136 0 16.611-7.475 16.611-16.611 0-9.135-7.476-16.611-16.611-16.611z" fill="#e9efff"/><path d="m380.112 32.583c0-9.135 7.475-16.611 16.611-16.611h-34.804c-9.136 0-16.611 7.476-16.611 16.611 0 9.137 7.475 16.611 16.611 16.611h34.804c-9.136 0-16.611-7.474-16.611-16.611z" fill="#d3dcfb"/><path d="m420.746 157.417c2.566-5.316-3.008-10.89-8.324-8.324l-49.197 23.747 2.548 3.28c8.113 10.444 17.501 19.832 27.945 27.945l3.28 2.548z" fill="#49b1f7"/><path d="m339.478 222.036 23.747-49.197 33.774 33.774-49.197 23.747c-5.316 2.567-10.89-3.007-8.324-8.324z" fill="#ff4155"/><g><path d="m380.112 294.115c-57.56 0-104.389-46.828-104.389-104.389 0-31.053 13.733-60.299 37.679-80.238 2.972-2.476 7.385-2.071 9.859.899 2.474 2.971 2.071 7.385-.9 9.858-20.742 17.272-32.638 42.597-32.638 69.481 0 49.841 40.548 90.389 90.389 90.389 20.691 0 40.175-6.834 56.344-19.762 3.02-2.415 7.425-1.925 9.839 1.096 2.414 3.02 1.924 7.424-1.096 9.838-18.41 14.721-41.525 22.828-65.087 22.828z" fill="#bec8f7"/></g><g><path d="m440.833 272.82c-2.054 0-4.089-.899-5.472-2.629-2.414-3.02-1.923-7.424 1.096-9.839 21.635-17.298 34.044-43.04 34.044-70.626 0-3.866 3.134-7 7-7s7 3.134 7 7c0 31.864-14.325 61.592-39.302 81.561-1.29 1.032-2.834 1.533-4.366 1.533z" fill="#d3dcfb"/></g><g><path d="m317.886 121.867c-2.007 0-3.999-.858-5.383-2.521-2.474-2.971-2.071-7.385.9-9.858 18.703-15.574 42.393-24.15 66.709-24.15 3.866 0 7 3.134 7 7s-3.134 7-7 7c-21.049 0-41.559 7.426-57.75 20.908-1.309 1.09-2.896 1.621-4.476 1.621z" fill="#d3dcfb"/></g><g><path d="m477.501 196.727c-3.866 0-7-3.134-7-7 0-49.841-40.548-90.389-90.389-90.389-3.866 0-7-3.134-7-7s3.134-7 7-7c57.56 0 104.389 46.828 104.389 104.389 0 3.866-3.134 7-7 7z" fill="#e9efff"/></g><path d="m404.266 385.445c8.515 11.708 21.255 23.337 39.525 34.622 26.172-32.664 44.155-72.17 50.83-115.411-18.848 9.5-40.72 13.572-59.997 15.066-32.243 2.499-49.379 39.568-30.358 65.723z" fill="#49b1f7"/><ellipse cx="309.882" cy="39.028" fill="#9bd8f9" rx="10.167" ry="10.167" transform="matrix(.23 -.973 .973 .23 200.702 331.654)"/><ellipse cx="155.471" cy="442.607" fill="#9bd8f9" rx="10.167" ry="10.167" transform="matrix(.924 -.383 .383 .924 -157.544 93.187)"/><g fill="#73c3f9"><ellipse cx="442.744" cy="360.757" rx="20.035" ry="20.035" transform="matrix(.707 -.707 .707 .707 -125.417 418.731)"/><circle cx="116.813" cy="80.083" r="15.167"/></g></g></svg>