<svg id="Layer_1" enable-background="new 0 0 512 512" height="512" viewBox="0 0 512 512" width="512" xmlns="http://www.w3.org/2000/svg"><g><path d="m409.376 453.49c52.699-44.938 86.127-111.807 86.127-186.492 0-135.311-109.691-245.002-245.002-245.002s-245.002 109.691-245.002 245.002c0 105.849 67.126 196.016 161.13 230.265z" fill="#816ae2"/><path d="m353.114 389.789c-12.246-8.377-21.142-20.805-25.242-35.065-3.987-13.868.359-28.723 11.029-38.437 29.554-26.908 47.737-66.087 46.48-109.489-2.258-77.979-66.802-147.341-144.804-146.116-14.761.232-29.187 2.82-42.871 7.385-22.753 15.176-54.385 59.42-42.739 149.235 15.364 118.49 40.673 150.008 80.004 145.513 32.943-3.765 41.257 38.59 26.354 63.062-11.56 18.983-22.977 54.761-23.501 85.799 4.199.214 8.425.323 12.677.323 60.625 0 116.098-22.031 158.875-58.51-15.207-24.991-35.814-49.712-56.262-63.7z" fill="#e8f4fc"/><path d="m238.736 360.933c-39.331 4.495-64.64-27.023-80.004-145.513-11.765-90.734 20.64-134.024 43.436-148.756-56.224 16.789-100.93 66.897-106.742 125.193-.619 6.209-.105 12.48 1.528 18.502l1.824 6.723c1.886 6.954.271 14.386-4.323 19.936-14.438 17.445-26.535 28.85-26.535 43.051 0 10.272 20.004 12.822 25.392 14.69.859.298 1.433 1.104 1.433 2.013l-3.589 21.546c0 1.012.454 1.971 1.236 2.612l12.321 6.681c.795.652 1.142 1.705.891 2.702l-.739 2.932c-.806 3.198.158 6.583 2.529 8.875l6.348 6.138c3.95 3.819 6.18 9.079 6.18 14.573v7.277c0 8.312-.307 12.228 2.132 16.795 3.782 7.081 12.235 10.407 20.261 10.609 6.621.167 13.282-.895 19.62-3.104l17.157-5.979c.2-.07.401-.128.603-.177 3.276-.783 6.506 1.534 7.176 4.836l4.725 12.814c5.976 16.203 4.706 34.186-3.461 49.403-6.433 11.987-14.34 27.12-21.509 41.955 23.506 8.564 48.695 13.616 74.933 14.558.044-31.492 11.716-68.428 23.528-87.825 14.906-24.469 6.592-66.825-26.351-63.06z" fill="#d3dcfb"/><path d="m41.834 260c9.725-47.848 18.746-62.667 32.167-104.667 6.499-20.34-.84-36.145-10.139-47.038-36.39 42.755-58.363 98.159-58.363 158.703 0 74.287 33.068 140.845 85.28 185.776 79.235-24.714-64.116-118.132-48.945-192.774z" fill="#9181f2"/><path d="m437.395 425.389c33.248-39.186 54.391-88.957 57.655-143.553-13.555-2.012-28.128-1.49-41.861.222-37.806 4.712-65.975 38.095-62.648 76.049 1.955 22.305 14.465 45.367 46.854 67.282z" fill="#9181f2"/><path d="m382.112 0c-32.933 0-62.871 12.804-85.123 33.698-.258 2.81-.191 8.051 3.204 11.371 2.784 2.725 7.092 3.502 12.812 2.317l8.125 9.311c-.942 4.624-4.95 28.305 8.148 43.498 8.132 9.433 21.163 13.545 38.741 12.244l26.37 27.545c-1.632 4.232-7.506 21.678-.01 36.661 4.766 9.527 13.969 16.045 27.36 19.38l10.906 18.867c-.74 2.034-2.426 7.842.494 12.329 1.977 3.038 5.58 4.769 10.723 5.167 37.423-21.444 62.637-61.777 62.637-108 .002-68.697-55.689-124.388-124.387-124.388z" fill="#49b1f7"/><path d="m446.255 230.981c-19.125-.002-11.946-16.212-11.946-16.212l-11.59-20.049c-45.67-10.928-26.574-55.073-26.574-55.073l-27.532-28.759c-59.777 4.908-45.857-54.61-45.857-54.61l-9.206-10.548c-18.634 4.407-14.84-13.565-14.824-13.638-25.179 22.762-41.003 55.681-41.003 92.297 0 68.698 55.691 124.389 124.389 124.389 23.467 0 45.413-6.502 64.143-17.797z" fill="#1e9ef4"/><path d="m382.112 27c-24.995 0-47.817 9.468-65.078 25.002l4.097 4.695c-.942 4.624-4.95 28.305 8.148 43.498 8.132 9.433 21.163 13.545 38.741 12.244l26.37 27.545c-1.632 4.232-7.506 21.678-.01 36.661 4.766 9.527 13.969 16.045 27.36 19.38l7.757 13.419c29.805-16.671 50.003-48.546 50.003-85.056.001-53.699-43.688-97.388-97.388-97.388z" fill="#e9efff"/><path d="m422.719 194.72c-45.67-10.928-26.574-55.073-26.574-55.073l-27.532-28.759c-59.777 4.908-45.857-54.61-45.857-54.61l-4.6-5.272c-20.473 17.867-33.432 44.139-33.432 73.382 0 53.7 43.689 97.389 97.389 97.389 17.726 0 34.359-4.763 48.691-13.072z" fill="#d3dcfb"/><g fill="#1e9ef4"><path d="m382.112 21c-3.866 0-7 3.134-7 7v8.177c0 3.866 3.134 7 7 7s7-3.134 7-7v-8.177c0-3.866-3.133-7-7-7z"/><path d="m382.112 205.601c-3.866 0-7 3.134-7 7v8.177c0 3.866 3.134 7 7 7s7-3.134 7-7v-8.177c0-3.866-3.133-7-7-7z"/><path d="m331.944 51.495c1.296 2.246 3.649 3.502 6.069 3.502 1.188 0 2.391-.303 3.493-.938 3.348-1.933 4.496-6.214 2.563-9.562l-4.088-7.082c-1.933-3.349-6.214-4.494-9.562-2.563-3.348 1.933-4.496 6.214-2.563 9.562z"/><path d="m432.28 197.283c-1.933-3.348-6.214-4.492-9.562-2.562-3.348 1.934-4.495 6.215-2.562 9.562l4.088 7.081c1.296 2.246 3.649 3.501 6.068 3.501 1.188 0 2.392-.303 3.494-.938 3.348-1.934 4.495-6.215 2.562-9.562z"/><path d="m309.219 74.22-7.081-4.088c-3.347-1.934-7.63-.785-9.562 2.562-1.933 3.349-.785 7.63 2.562 9.562l7.081 4.088c1.103.637 2.306.938 3.494.938 2.419 0 4.772-1.256 6.069-3.501 1.932-3.347.784-7.628-2.563-9.561z"/><path d="m469.088 166.522-7.081-4.089c-3.348-1.934-7.629-.788-9.562 2.561-1.933 3.348-.786 7.629 2.562 9.562l7.081 4.089c1.103.637 2.306.939 3.494.939 2.418 0 4.772-1.255 6.068-3.501 1.932-3.347.785-7.628-2.562-9.561z"/><path d="m300.901 124.389c0-3.866-3.134-7-7-7h-8.177c-3.866 0-7 3.134-7 7s3.134 7 7 7h8.177c3.866 0 7-3.134 7-7z"/><path d="m478.501 117.389h-8.177c-3.866 0-7 3.134-7 7s3.134 7 7 7h8.177c3.866 0 7-3.134 7-7s-3.134-7-7-7z"/><path d="m302.218 162.433-7.081 4.089c-3.348 1.933-4.495 6.214-2.561 9.561 1.297 2.246 3.649 3.501 6.068 3.501 1.188 0 2.392-.303 3.494-.939l7.081-4.089c3.348-1.933 4.495-6.214 2.561-9.562-1.933-3.349-6.215-4.495-9.562-2.561z"/><path d="m458.512 87.284c1.188 0 2.391-.303 3.494-.938l7.081-4.088c3.348-1.933 4.495-6.214 2.562-9.562-1.933-3.349-6.213-4.491-9.562-2.562l-7.081 4.088c-3.348 1.933-4.495 6.214-2.562 9.562 1.297 2.245 3.65 3.5 6.068 3.5z"/><path d="m341.506 194.72c-3.348-1.934-7.629-.785-9.562 2.562l-4.088 7.081c-1.933 3.349-.785 7.63 2.562 9.562 1.102.637 2.306.938 3.494.938 2.419 0 4.772-1.256 6.069-3.501l4.088-7.081c1.932-3.347.785-7.628-2.563-9.561z"/><path d="m433.806 34.851c-3.346-1.934-7.629-.785-9.562 2.562l-4.088 7.082c-1.933 3.349-.785 7.63 2.563 9.562 1.102.637 2.305.938 3.493.938 2.419 0 4.772-1.256 6.069-3.501l4.088-7.082c1.933-3.347.786-7.628-2.563-9.561z"/></g><g><path d="m382.112 228.778c-57.56 0-104.389-46.828-104.389-104.389 0-30.119 13.058-58.789 35.827-78.659 2.913-2.54 7.335-2.24 9.876.672 2.542 2.913 2.242 7.335-.671 9.877-19.721 17.21-31.032 42.035-31.032 68.11 0 49.841 40.548 90.389 90.389 90.389 15.873 0 31.494-4.191 45.176-12.122 3.346-1.936 7.628-.798 9.566 2.547 1.939 3.345.799 7.627-2.546 9.566-15.812 9.164-33.86 14.009-52.196 14.009z" fill="#49b1f7"/></g><g><path d="m318.156 58.004c-1.952 0-3.893-.811-5.277-2.397-2.542-2.913-2.242-7.335.671-9.877 19.013-16.592 43.362-25.73 68.562-25.73 3.866 0 7 3.134 7 7s-3.134 7-7 7c-21.815 0-42.895 7.912-59.357 22.278-1.326 1.158-2.966 1.726-4.599 1.726z" fill="#73c3f9"/></g><g><path d="m427.907 110.889h-26.949c2.734 3.806 4.351 8.466 4.351 13.5s-1.617 9.694-4.351 13.5h26.949c7.456 0 13.5-6.044 13.5-13.5s-6.044-13.5-13.5-13.5z" fill="#ff4155"/></g><g><path d="m382.112 101.192c5.034 0 9.694 1.617 13.5 4.351v-37.699c0-7.456-6.044-13.5-13.5-13.5s-13.5 6.044-13.5 13.5v37.699c3.806-2.734 8.467-4.351 13.5-4.351z" fill="#4f71b6"/></g><g><ellipse cx="382.112" cy="124.389" fill="#ff7186" rx="24.697" ry="24.697" transform="matrix(.987 -.16 .16 .987 -14.991 62.814)"/></g><g><path d="m389.144 180.641h-14.062c-3.866 0-7-3.134-7-7s3.134-7 7-7h14.062c3.866 0 7 3.134 7 7s-3.134 7-7 7z" fill="#bec8f7"/></g><circle cx="470.834" cy="248.778" fill="#c9c8fc" r="10.167"/><ellipse cx="153.471" cy="442.607" fill="#c9c8fc" rx="10.167" ry="10.167" transform="matrix(.924 -.383 .383 .924 -157.696 92.422)"/><ellipse cx="435.869" cy="346.632" fill="#aaa2f9" rx="20.035" ry="20.035" transform="matrix(.707 -.707 .707 .707 -117.442 409.732)"/><circle cx="114.813" cy="80.083" fill="#aaa2f9" r="15.167"/><ellipse cx="387.676" cy="119.935" fill="#f9a0b1" rx="11.454" ry="11.454" transform="matrix(.924 -.383 .383 .924 -16.387 157.487)"/><g><path d="m430.805 215.713c-2.415 0-4.764-1.251-6.062-3.49-1.939-3.346-.799-7.628 2.546-9.567 27.888-16.164 45.213-46.154 45.213-78.267 0-3.866 3.134-7 7-7s7 3.134 7 7c0 37.088-19.999 71.72-52.192 90.38-1.106.64-2.314.944-3.505.944z" fill="#73c3f9"/></g><g><path d="m479.501 131.389c-3.866 0-7-3.134-7-7 0-49.841-40.548-90.389-90.389-90.389-3.866 0-7-3.134-7-7s3.134-7 7-7c57.56 0 104.389 46.828 104.389 104.389 0 3.866-3.134 7-7 7z" fill="#9bd8f9"/></g></g></svg>