<svg id="Layer_1" enable-background="new 0 0 512 512" height="512" viewBox="0 0 512 512" width="512" xmlns="http://www.w3.org/2000/svg"><g><path d="m409.377 453.49c52.699-44.938 86.127-111.807 86.127-186.492 0-135.311-109.691-245.002-245.002-245.002s-245.003 109.691-245.003 245.002c0 105.849 67.126 196.016 161.13 230.265z" fill="#6faf46"/><path d="m353.114 389.789c-12.246-8.377-21.142-20.805-25.242-35.065-3.987-13.868.359-28.723 11.029-38.437 29.554-26.908 47.737-66.087 46.48-109.489-2.258-77.979-66.802-147.341-144.804-146.116-14.761.232-29.187 2.82-42.871 7.385-22.753 15.176-54.385 59.42-42.739 149.235 15.364 118.49 40.673 150.008 80.004 145.513 32.943-3.765 41.257 38.59 26.354 63.062-11.56 18.983-22.977 54.761-23.501 85.799 4.199.214 8.425.323 12.677.323 60.625 0 116.098-22.032 158.875-58.51-15.206-24.991-35.814-49.712-56.262-63.7z" fill="#3c58a0"/><path d="m238.736 360.933c-39.331 4.495-64.64-27.023-80.004-145.513-11.765-90.734 20.639-134.024 43.436-148.756-56.225 16.789-100.93 66.897-106.742 125.193-.619 6.209-.105 12.48 1.529 18.502l1.824 6.723c1.886 6.954.271 14.386-4.323 19.936-14.438 17.445-26.535 28.85-26.535 43.051 0 10.272 20.004 12.822 25.392 14.69.859.298 1.433 1.104 1.433 2.013l-3.589 21.546c0 1.012.454 1.971 1.236 2.612l12.321 6.681c.795.652 1.142 1.705.891 2.702l-.739 2.932c-.806 3.198.158 6.583 2.529 8.875l6.348 6.138c3.95 3.819 6.18 9.079 6.18 14.573v7.277c0 8.312-.307 12.228 2.133 16.795 3.782 7.081 12.235 10.407 20.261 10.609 6.621.167 13.282-.895 19.62-3.104l17.157-5.979c.2-.07.401-.128.602-.177 3.276-.783 6.506 1.534 7.176 4.836l4.725 12.814c5.976 16.203 4.706 34.186-3.461 49.403-6.433 11.987-14.34 27.12-21.509 41.955 23.506 8.564 48.695 13.616 74.933 14.558.044-31.492 11.716-68.428 23.528-87.825 14.905-24.469 6.591-66.825-26.352-63.06z" fill="#2a428c"/><path d="m41.834 260c9.725-47.848 18.746-62.667 32.167-104.667 6.499-20.34-.84-36.145-10.139-47.038-36.39 42.755-58.363 98.159-58.363 158.703 0 74.287 33.068 140.845 85.28 185.776 79.235-24.714-64.116-118.132-48.945-192.774z" fill="#88ce65"/><path d="m389.332 31v-10.211c0-11.434-9.355-20.789-20.789-20.789h-13.986c-11.434 0-20.79 9.355-20.79 20.789v10.211z" fill="#3c58a0"/><path d="m417.618 29h-59.069s-16.897 13.686 0 27c0 0-30.064 27.23 0 52.897 0 0-33.064 24.711 0 52.897 0 0-31.397 25.607 0 52.897 0 0-33.564 25.897 0 52.897 0 0-16.204 12.033-3.361 27h62.43c14.812 0 26.931-12.119 26.931-26.931v-211.726c0-14.812-12.118-26.931-26.931-26.931z" fill="#e9efff"/><path d="m361.549 29h-56.069c-14.812 0-26.931 12.119-26.931 26.931v211.726c0 14.812 12.119 26.931 26.931 26.931h52.708c-12.843-14.967 3.361-27 3.361-27-33.564-27 0-52.897 0-52.897-31.397-27.29 0-52.897 0-52.897-33.064-28.186 0-52.897 0-52.897-30.064-25.667 0-52.897 0-52.897-16.897-13.314 0-27 0-27z" fill="#d3dcfb"/><path d="m356.32 106.879c.706.674 1.443 1.347 2.23 2.019 0 0-33.064 24.711 0 52.897 0 0-.871.712-2.174 2.018h61.174v-56.934z" fill="#73c3f9"/><path d="m305.549 163.813h53.826c1.303-1.306 2.174-2.018 2.174-2.018-33.064-28.186 0-52.897 0-52.897-.787-.672-1.523-1.345-2.23-2.019h-53.77z" fill="#49b1f7"/><path d="m356.367 212.691c.695.665 1.414 1.332 2.183 2 0 0-33.564 25.897 0 52.897h51.581c4.098 0 7.419-3.322 7.419-7.419v-47.478z" fill="#1e9ef4"/><path d="m305.549 260.169c0 4.098 3.322 7.419 7.419 7.419h48.581c-33.564-27 0-52.897 0-52.897-.768-.668-1.488-1.335-2.183-2h-53.817z" fill="#208af2"/><g><path d="m498.501 169.794h-21.349c-4.419 0-8-3.582-8-8s3.581-8 8-8h21.349c4.418 0 8 3.582 8 8s-3.582 8-8 8z" fill="#73c3f9"/></g><g><path d="m462.034 128.547c-1.928-3.976-.268-8.761 3.708-10.688l19.21-9.314c3.975-1.926 8.762-.267 10.688 3.708 1.928 3.976.268 8.761-3.708 10.688l-19.21 9.314c-3.976 1.928-8.76.268-10.688-3.708z" fill="#73c3f9"/></g><g><path d="m484.952 215.044-19.21-9.315c-3.976-1.928-5.635-6.714-3.707-10.688 1.928-3.976 6.715-5.638 10.689-3.708l19.21 9.315c3.976 1.928 5.635 6.714 3.707 10.689-1.934 3.989-6.729 5.63-10.689 3.707z" fill="#73c3f9"/></g><g><path d="m245.947 169.794h-21.35c-4.418 0-8-3.582-8-8s3.582-8 8-8h21.35c4.418 0 8 3.582 8 8s-3.581 8-8 8z" fill="#73c3f9"/></g><g><path d="m250.377 132.255-19.21-9.314c-3.976-1.928-5.636-6.713-3.708-10.688 1.928-3.977 6.712-5.633 10.688-3.708l19.21 9.314c3.976 1.928 5.636 6.713 3.708 10.688-1.924 3.97-6.704 5.639-10.688 3.708z" fill="#73c3f9"/></g><g><path d="m227.459 211.337c-1.928-3.975-.268-8.761 3.708-10.689l19.21-9.315c3.975-1.929 8.761-.268 10.689 3.708 1.928 3.975.268 8.761-3.708 10.688l-19.21 9.315c-3.986 1.932-8.766.261-10.689-3.707z" fill="#73c3f9"/></g><path d="m410.13 56h-51.581s-30.064 27.23 0 52.897h59v-45.477c0-4.098-3.321-7.42-7.419-7.42z" fill="#9bd8f9"/><path d="m361.549 56h-48.581c-4.098 0-7.419 3.322-7.419 7.419v45.478h56c-30.063-25.667 0-52.897 0-52.897z" fill="#73c3f9"/><path d="m358.549 161.794s-31.397 25.607 0 52.897h59v-52.897z" fill="#49b1f7"/><path d="m305.549 214.691h56c-31.397-27.29 0-52.897 0-52.897h-56z" fill="#1e9ef4"/><path d="m402.266 385.445c8.515 11.708 21.255 23.337 39.525 34.622 26.172-32.664 44.155-72.17 50.83-115.411-18.848 9.5-40.72 13.572-59.997 15.066-32.243 2.499-49.379 39.568-30.358 65.723z" fill="#88ce65"/><ellipse cx="473.675" cy="261.833" fill="#d7ef95" rx="10.167" ry="10.167" transform="matrix(.924 -.383 .383 .924 -64.143 201.198)"/><ellipse cx="153.471" cy="442.607" fill="#d7ef95" rx="10.167" ry="10.167" transform="matrix(.924 -.383 .383 .924 -157.696 92.422)"/><ellipse cx="443.474" cy="359.632" fill="#b4d667" rx="20.035" ry="20.035" transform="matrix(.16 -.987 .987 .16 17.449 739.772)"/><circle cx="114.813" cy="80.083" fill="#b4d667" r="15.167"/><circle cx="369.674" cy="13.689" fill="#4f71b6" r="8.125"/></g></svg>