<svg id="Layer_1" enable-background="new 0 0 512 512" height="512" viewBox="0 0 512 512" width="512" xmlns="http://www.w3.org/2000/svg"><g><path d="m409.378 453.49c52.699-44.938 86.127-111.807 86.127-186.493 0-135.311-109.691-245.002-245.002-245.002s-245.003 109.692-245.003 245.003c0 105.849 67.126 196.016 161.13 230.265z" fill="#2a428c"/><path d="m353.115 389.789c-12.246-8.377-21.142-20.805-25.242-35.065-3.987-13.868.359-28.723 11.029-38.437 29.554-26.908 47.737-66.087 46.48-109.489-2.258-77.979-66.802-147.341-144.804-146.116-14.761.232-29.187 2.82-42.871 7.385-22.753 15.176-54.385 59.42-42.739 149.235 15.364 118.49 40.673 150.008 80.004 145.513 32.943-3.765 41.257 38.59 26.354 63.062-11.56 18.983-22.977 54.761-23.501 85.799 4.199.214 8.425.323 12.677.323 60.625 0 116.098-22.032 158.875-58.51-15.206-24.991-35.813-49.712-56.262-63.7z" fill="#e8f4fc"/><path d="m238.737 360.933c-39.331 4.495-64.64-27.023-80.004-145.513-11.765-90.734 20.639-134.024 43.436-148.756-56.225 16.789-100.93 66.897-106.742 125.193-.619 6.209-.105 12.48 1.529 18.502l1.824 6.723c1.886 6.954.271 14.386-4.323 19.936-14.438 17.445-26.535 28.851-26.535 43.051 0 10.272 20.004 12.822 25.392 14.69.859.298 1.433 1.104 1.433 2.013l-3.589 21.546c0 1.012.454 1.971 1.236 2.612l12.321 6.682c.795.652 1.142 1.705.891 2.702l-.739 2.932c-.806 3.198.158 6.583 2.529 8.875l6.348 6.138c3.95 3.819 6.18 9.078 6.18 14.573v7.277c0 8.311-.307 12.228 2.133 16.795 3.782 7.081 12.235 10.407 20.261 10.609 6.621.167 13.282-.895 19.62-3.104l17.157-5.979c.2-.07.401-.128.603-.177 3.276-.783 6.506 1.534 7.176 4.836l4.725 12.814c5.975 16.203 4.706 34.186-3.461 49.403-6.433 11.988-14.34 27.12-21.509 41.955 23.506 8.564 48.695 13.616 74.933 14.558.044-31.492 11.716-68.428 23.528-87.825 14.904-24.47 6.59-66.826-26.353-63.061z" fill="#d3dcfb"/><path d="m41.836 260c9.725-47.848 18.746-62.667 32.167-104.667 6.499-20.34-.84-36.145-10.139-47.038-36.391 42.755-58.364 98.159-58.364 158.703 0 74.287 33.068 140.846 85.28 185.776 79.236-24.714-64.115-118.133-48.944-192.774z" fill="#3c58a0"/><path d="m306.582 86.076c4.15 1.719 8.81 1.339 13.861-1.13l15.467 10.511c.622.519 5.054 4.092 11.286 5.961 5.912 1.774 14.513 2.245 22.593-5.027-.395-5.502-2.257-11.323-6.002-17.218-10.961-17.256-28.506-27.782-47.281-30.403-7.388-1.032-14.46 3.46-16.666 10.586-1.673 5.402-2.646 11.005-2.921 16.665 1.51 3.137 4.541 7.934 9.663 10.055z" fill="#6faf46"/><path d="m369.598 94.523c-15.194 14.793-32.781-.263-32.781-.263l-16.263-11.052c-17.086 9.025-23.233-10.04-23.39-10.538-1.418 14.36 1.761 29.279 10.099 42.407 21.251 33.458 66.512 11.213 62.335-20.554z" fill="#5ea033"/><path d="m285.637 176.099c5.01 3.488 11.479 4.087 19.237 1.784l21.626 17.157c.259.178 6.412 4.376 14.733 5.739 6.669 1.094 15.799.457 23.87-7.498.125-7.674-2.081-15.949-7.415-24.346-13.373-21.054-34.78-33.896-57.686-37.094-9.014-1.259-17.642 4.221-20.334 12.915-1.598 5.161-2.678 10.472-3.236 15.848 1.048 4.734 3.496 11.518 9.205 15.495z" fill="#6faf46"/><path d="m365.077 191.153c-16.172 17.524-37.725 2.653-37.725 2.653l-22.164-17.589c-26.671 8.485-28.031-20.939-28.032-20.952-3.279 19.236.278 39.702 11.566 57.473 25.143 39.585 77.83 15.265 76.355-21.585z" fill="#5ea033"/><g><path d="m391.28 140.987c-.214 0-.429-.009-.647-.029-55.228-5.055-70.772-49.068-71.407-50.941-1.242-3.661.719-7.636 4.38-8.877 3.653-1.24 7.618.71 8.869 4.355.537 1.542 13.518 37.318 59.434 41.521 3.85.353 6.685 3.759 6.333 7.608-.332 3.634-3.385 6.363-6.962 6.363z" fill="#88ce65"/></g><g><path d="m391.227 242.812c-.214 0-.429-.009-.646-.029-34.599-3.167-56.044-19.484-67.942-32.615-12.951-14.293-17.668-27.923-17.862-28.497-1.242-3.66.719-7.636 4.38-8.877 3.656-1.24 7.623.714 8.872 4.362.087.249 4.26 11.947 15.392 24.059 14.836 16.141 34.497 25.436 58.436 27.627 3.85.352 6.685 3.759 6.333 7.608-.333 3.632-3.385 6.362-6.963 6.362z" fill="#88ce65"/></g><path d="m372.547 31.197c2.74 2.482 6.598 3.3 11.47 2.435l12.967 6.157c.563 2.058 2.559 7.666 8.021 10.124 4.175 1.881 9.314 1.451 15.314-1.266.01-.372.026-.741.026-1.12 0-17.783-7.975-33.695-20.538-44.376-4.944-4.203-12.231-4.203-17.175 0-5.873 4.994-10.726 11.141-14.247 18.077.194 2.853 1.041 7.141 4.162 9.969z" fill="#6faf46"/><path d="m362.094 47.528c0 39.847 58.251 40.031 58.251 0 0-.183-.014-.362-.015-.545-18.747 8.911-22.057-8.242-22.057-8.242l-14.053-6.673c-15.507 3.078-14.421-12.659-14.343-13.59-4.939 8.552-7.783 18.464-7.783 29.05z" fill="#5ea033"/><path d="m435.281 80.784c2.727 3.987 7.455 6.073 14.062 6.204l9.346 10.36c-.167 2.169-.26 8.679 4.031 12.944 3.013 2.995 7.465 4.186 13.234 3.566 10.302-16.993 12.172-36.816 6.695-54.503-2.206-7.126-9.278-11.617-16.666-10.586-11.514 1.608-22.557 6.201-31.911 13.483-1.15 3.946-2.908 12.511 1.209 18.532z" fill="#88ce65"/><path d="m475.228 115.076c.597-.94 1.156-1.892 1.7-2.85-19.246 2.819-16.681-15.39-16.681-15.39l-10.232-11.342c-23.385 0-13.955-24.543-13.849-24.816-6.761 4.848-12.729 11.04-17.464 18.494-24.673 38.847 31.966 74.571 56.526 35.904z" fill="#6faf46"/><path d="m446.629 168.777c2.941 5.447 8.728 8.746 17.204 9.809l10.16 8.7c-.387 2.725-1.016 10.979 4.347 16.719 3.761 4.026 9.59 5.872 17.355 5.527 11.668-20.341 13.625-43.794 7.127-64.777-2.692-8.694-11.32-14.174-20.334-12.915-12.495 1.745-24.531 6.379-35.073 13.63-1.847 4.567-5.201 15.132-.786 23.307z" fill="#88ce65"/><path d="m475.612 186.699-11.15-9.547c-29.375-3.37-15.068-32.537-14.718-33.242-9.75 6.222-18.33 14.615-24.942 25.024-30.103 47.394 39 90.98 68.965 43.804.995-1.567 1.923-3.157 2.799-4.764-25.748 1.707-20.954-21.275-20.954-21.275z" fill="#6faf46"/><g><path d="m391.219 300.19c-3.866 0-7-3.134-7-7v-261.122c0-3.866 3.134-7 7-7s7 3.134 7 7v261.122c0 3.867-3.134 7-7 7z" fill="#88ce65"/></g><g><path d="m391.211 140.987c-3.578 0-6.63-2.729-6.962-6.362-.353-3.85 2.483-7.256 6.332-7.608 45.93-4.204 58.905-40 59.435-41.521 1.267-3.642 5.243-5.585 8.891-4.332 3.646 1.253 5.597 5.204 4.358 8.854-.635 1.872-16.179 45.886-71.407 50.941-.218.02-.433.028-.647.028z" fill="#b4d667"/></g><g><path d="m391.263 242.812c-3.578 0-6.63-2.729-6.962-6.362-.353-3.85 2.483-7.256 6.332-7.608 23.939-2.191 43.6-11.486 58.436-27.627 11.196-12.18 15.353-23.944 15.394-24.061 1.262-3.645 5.239-5.598 8.888-4.341 3.648 1.251 5.602 5.206 4.362 8.858-.194.574-4.911 14.204-17.862 28.497-11.898 13.131-33.343 29.448-67.942 32.615-.217.019-.432.029-.646.029z" fill="#b4d667"/></g><path d="m437.397 425.389c33.248-39.186 54.391-88.957 57.655-143.553-13.555-2.012-28.128-1.49-41.861.222-37.806 4.712-65.975 38.095-62.648 76.049 1.954 22.305 14.464 45.367 46.854 67.282z" fill="#3c58a0"/><circle cx="438.669" cy="256" fill="#6a90cc" r="10.167"/><ellipse cx="153.472" cy="442.607" fill="#6a90cc" rx="10.167" ry="10.167" transform="matrix(.924 -.383 .383 .924 -157.696 92.422)"/><g fill="#4f71b6"><ellipse cx="435.871" cy="346.632" rx="20.035" ry="20.035" transform="matrix(.707 -.707 .707 .707 -117.442 409.733)"/><circle cx="114.814" cy="80.083" r="15.167"/></g></g></svg>