<svg id="Layer_1" enable-background="new 0 0 512 512" height="512" viewBox="0 0 512 512" width="512" xmlns="http://www.w3.org/2000/svg"><g><path d="m409.377 453.491c52.699-44.938 86.127-111.807 86.127-186.492 0-135.311-109.691-245.002-245.002-245.002s-245.003 109.69-245.003 245.001c0 105.849 67.126 196.016 161.13 230.265z" fill="#1e9ef4"/><path d="m353.114 389.789c-12.246-8.377-21.142-20.805-25.242-35.065-3.987-13.868.359-28.723 11.029-38.437 29.554-26.908 47.736-66.087 46.48-109.489-2.258-77.979-66.802-147.341-144.804-146.116-14.761.232-29.187 2.82-42.871 7.385-22.753 15.176-54.385 59.42-42.739 149.235 15.364 118.49 40.673 150.008 80.004 145.513 32.943-3.765 41.257 38.59 26.354 63.062-11.56 18.983-22.977 54.761-23.501 85.799 4.199.214 8.425.323 12.677.323 60.626 0 116.098-22.032 158.876-58.51-15.207-24.991-35.814-49.712-56.263-63.7z" fill="#3c58a0"/><path d="m238.736 360.934c-39.331 4.495-64.64-27.023-80.004-145.513-11.765-90.734 20.639-134.024 43.436-148.756-56.225 16.789-100.93 66.897-106.742 125.193-.619 6.209-.105 12.48 1.529 18.502l1.824 6.723c1.886 6.954.271 14.386-4.323 19.936-14.438 17.445-26.535 28.85-26.535 43.051 0 10.272 20.004 12.822 25.392 14.69.859.298 1.433 1.104 1.433 2.013l-3.589 21.546c0 1.012.454 1.971 1.236 2.612l12.321 6.681c.795.652 1.142 1.705.891 2.702l-.739 2.932c-.806 3.198.158 6.583 2.529 8.875l6.348 6.138c3.95 3.819 6.18 9.079 6.18 14.573v7.277c0 8.312-.307 12.228 2.133 16.795 3.782 7.081 12.235 10.407 20.261 10.609 6.621.167 13.282-.895 19.62-3.104l17.157-5.979c.2-.07.401-.128.603-.177 3.276-.783 6.506 1.534 7.176 4.836l4.725 12.814c5.975 16.203 4.706 34.186-3.461 49.403-6.433 11.987-14.34 27.12-21.509 41.955 23.506 8.564 48.695 13.616 74.933 14.558.044-31.492 11.716-68.428 23.529-87.825 14.903-24.47 6.589-66.825-26.354-63.06z" fill="#2a428c"/><path d="m41.835 260c9.725-47.848 18.746-62.667 32.167-104.667 6.499-20.34-.84-36.145-10.139-47.038-36.391 42.755-58.364 98.159-58.364 158.703 0 74.287 33.068 140.845 85.28 185.776 79.236-24.714-64.115-118.132-48.944-192.774z" fill="#49b1f7"/><path d="m495.503 266.998c0-11.491-.81-22.791-2.34-33.861-21.538-.242-61.544 3.665-78.662 33.861-23.029 40.623-57.697 100.577 27.291 153.069 33.601-41.937 53.711-95.151 53.711-153.069z" fill="#49b1f7"/><g><path d="m284.888 178.163c11.712 0 21.295-9.583 21.295-21.295v-19.456h-38.293z" fill="#bec8f7"/></g><g><path d="m439.275 84.304h-15.991c.294 9.381.294 18.766 0 28.147h15.991c7.773 0 14.074-6.301 14.074-14.074s-6.301-14.073-14.074-14.073z" fill="#ff7186"/></g><path d="m285.934 175.672c-3.594-2.064-11.812-5.861-19.796-3.008-5.846 2.09-10.275 7.287-13.204 15.464l15.406 36.935c3.747 8.984 14.069 13.229 23.053 9.482s13.229-14.069 9.482-23.053z" fill="#e9efff"/><path d="m286.931 178.063-16.957-40.651h-38.196l22.03 52.813c9.293-29.128 33.122-12.163 33.123-12.162z" fill="#d3dcfb"/><path d="m277.699 59.344v-16.882c0-6.619-5.366-11.985-11.985-11.985h-14.652c-6.619 0-11.985 5.366-11.985 11.985v16.882z" fill="#e9efff"/><path d="m232.292 96.356h60.327c.853 1.231 2.826 3.697 5.993 5.529 3.808 2.201 10.072 3.859 18.602-.35.359.427.849.979 1.447 1.611v-45.887h-79.805c-22.333 0-40.495 17.809-41.091 39.998 6.132 5.066 19.782 10.361 34.527-.901z" fill="#ff4155"/><path d="m318.661 139.497v-38.586c-.693-.796-1.043-1.274-1.043-1.274-16.437 8.906-24.183-4.781-24.183-4.781h-61.657c-18.028 14.126-32.505 1.77-33.918.488-.073 1.003-.123 2.012-.123 3.034 0 22.709 18.409 41.119 41.119 41.119z" fill="#e80054"/><path d="m336.727 115.408c12.162 5.057 32.397 8.147 60.075-5.489.536.756 1.362 1.778 2.479 2.836 1.093-31.965-1.455-63.977-7.653-95.727l-74.01 40.232v44.746c2.481 2.836 8.771 9.104 19.109 13.402z" fill="#e9efff"/><path d="m391.629 179.729c4.474-22.918 7.04-45.973 7.715-69.048-1.363-1.5-2.007-2.707-2.007-2.707-53.801 27.243-79.719-8.337-79.719-8.337v39.86z" fill="#d3dcfb"/><path d="m420.653 38.977-.214.321c-.033.065-3.36 6.63-9.908 8.107-4.704 1.062-10.006-.693-15.763-5.216-.41-.322-.818-.667-1.225-1.017 3.149 23.063 4.392 46.222 3.723 69.362 1.556 2.011 4.607 5.116 9.467 6.568 5.522 1.651 11.767.701 18.581-2.808.904-25.454-.365-50.936-3.796-76.311z" fill="#ff4155"/><path d="m417.121 185.382c4.732-24.167 7.475-48.477 8.245-72.811-19.869 10.721-28.028-4.597-28.028-4.597-.001 0-.001.001-.001.001-.55 24.061-3.16 48.105-7.839 72-1.493 7.627 3.479 15.021 11.107 16.515.914.179 1.823.266 2.72.266 6.593-.001 12.481-4.659 13.796-11.374z" fill="#e80054"/><g><path d="m499.501 105.378h-22.256c-3.866 0-7-3.134-7-7s3.134-7 7-7h22.256c3.866 0 7 3.134 7 7s-3.134 7-7 7z" fill="#ffdd40"/></g><g><path d="m461.696 67.082c-2.598 0-5.094-1.453-6.303-3.947-1.687-3.479-.234-7.666 3.244-9.354l20.026-9.711c3.478-1.684 7.666-.232 9.352 3.244 1.687 3.479.234 7.666-3.244 9.354l-20.026 9.711c-.983.477-2.024.703-3.049.703z" fill="#ffdd40"/></g><g><path d="m481.713 153.388c-1.025 0-2.065-.227-3.049-.703l-20.026-9.711c-3.478-1.688-4.931-5.874-3.244-9.354 1.687-3.479 5.875-4.928 9.353-3.244l20.026 9.711c3.478 1.688 4.931 5.874 3.244 9.354-1.211 2.494-3.707 3.947-6.304 3.947z" fill="#ffdd40"/></g><g><path d="m236.992 99.637c-3.866 0-7-3.134-7-7v-8.256c0-3.866 3.134-7 7-7s7 3.134 7 7v8.256c0 3.866-3.134 7-7 7z" fill="#cc0053"/></g><g><path d="m261.896 99.637c-3.866 0-7-3.134-7-7v-8.256c0-3.866 3.134-7 7-7s7 3.134 7 7v8.256c0 3.866-3.134 7-7 7z" fill="#cc0053"/></g><g><path d="m286.801 99.637c-3.866 0-7-3.134-7-7v-8.256c0-3.866 3.134-7 7-7s7 3.134 7 7v8.256c0 3.866-3.134 7-7 7z" fill="#cc0053"/></g><ellipse cx="460.668" cy="282.167" fill="#9bd8f9" rx="10.167" ry="10.167" transform="matrix(.23 -.973 .973 .23 80.209 665.682)"/><ellipse cx="153.471" cy="442.608" fill="#9bd8f9" rx="10.167" ry="10.167" transform="matrix(.924 -.383 .383 .924 -157.696 92.422)"/><ellipse cx="435.87" cy="346.632" fill="#73c3f9" rx="20.035" ry="20.035" transform="matrix(.707 -.707 .707 .707 -117.443 409.733)"/><circle cx="114.813" cy="80.084" fill="#73c3f9" r="15.167"/><path d="m421.776 39.976c-1.248-9.551-2.793-19.088-4.655-28.603-1.494-7.628-8.885-12.606-16.516-11.107-7.628 1.494-12.6 8.888-11.107 16.515 1.731 8.841 3.169 17.704 4.334 26.58.003.002.007.005.01.008 18.79 14.761 27.782-3.086 27.934-3.393z" fill="#ff7186"/></g></svg>