<svg id="Layer_1" enable-background="new 0 0 512 512" height="512" viewBox="0 0 512 512" width="512" xmlns="http://www.w3.org/2000/svg"><g><path d="m410.877 453.49c52.699-44.938 86.127-111.807 86.127-186.492 0-135.311-109.691-245.002-245.002-245.002s-245.003 109.691-245.003 245.002c0 105.849 67.126 196.016 161.13 230.265z" fill="#816ae2"/><path d="m354.614 389.789c-12.246-8.377-21.142-20.805-25.242-35.065-3.987-13.868.359-28.723 11.029-38.437 29.554-26.908 47.737-66.087 46.48-109.489-2.258-77.979-66.802-147.341-144.804-146.116-14.761.232-29.187 2.82-42.871 7.385-22.753 15.176-54.385 59.42-42.739 149.235 15.364 118.49 40.673 150.008 80.004 145.513 32.943-3.765 41.257 38.59 26.354 63.062-11.56 18.983-22.977 54.761-23.501 85.799 4.199.214 8.425.323 12.677.323 60.625 0 116.098-22.032 158.875-58.51-15.206-24.991-35.814-49.712-56.262-63.7z" fill="#3c58a0"/><path d="m240.236 360.933c-39.331 4.495-64.64-27.023-80.004-145.513-11.765-90.734 20.639-134.024 43.436-148.756-56.225 16.789-100.93 66.897-106.742 125.193-.619 6.209-.105 12.48 1.529 18.502l1.824 6.723c1.886 6.954.271 14.386-4.323 19.936-14.438 17.445-26.535 28.85-26.535 43.051 0 10.272 20.004 12.822 25.392 14.69.859.298 1.433 1.104 1.433 2.013l-3.589 21.546c0 1.012.454 1.971 1.236 2.612l12.321 6.681c.795.652 1.142 1.705.891 2.702l-.739 2.932c-.806 3.198.158 6.583 2.529 8.875l6.348 6.138c3.95 3.819 6.18 9.079 6.18 14.573v7.277c0 8.312-.307 12.228 2.133 16.795 3.782 7.081 12.235 10.407 20.261 10.609 6.621.167 13.282-.895 19.62-3.104l17.157-5.979c.2-.07.401-.128.603-.177 3.276-.783 6.506 1.534 7.176 4.836l4.725 12.814c5.975 16.203 4.706 34.186-3.461 49.403-6.433 11.987-14.34 27.12-21.509 41.955 23.506 8.564 48.695 13.616 74.933 14.558.044-31.492 11.716-68.428 23.528-87.825 14.904-24.469 6.59-66.825-26.353-63.06z" fill="#2a428c"/><g><path d="m273.441 200.057c-5.523 0-10-4.478-10-10v-38.853c0-17.747 14.439-32.185 32.186-32.185 5.523 0 10 4.478 10 10s-4.477 10-10 10c-6.719 0-12.186 5.467-12.186 12.186v38.853c0 5.522-4.477 9.999-10 9.999z" fill="#bec8f7"/></g><g><path d="m455.16 139.019h-159.534c-5.523 0-10-4.478-10-10s4.477-10 10-10h159.534c5.523 0 10 4.478 10 10 0 5.523-4.477 10-10 10z" fill="#d3dcfb"/></g><g><path d="m477.346 200.057c-5.523 0-10-4.478-10-10v-38.853c0-6.719-5.467-12.186-12.186-12.186-5.523 0-10-4.478-10-10s4.477-10 10-10c17.748 0 32.186 14.438 32.186 32.185v38.853c0 5.524-4.477 10.001-10 10.001z" fill="#e9efff"/></g><g><path d="m375.393 200.923c-5.523 0-10-4.477-10-10v-75.48c0-5.522 4.477-10 10-10s10 4.478 10 10v75.48c0 5.522-4.477 10-10 10z" fill="#e9efff"/></g><g><path d="m375.393 125.442c-5.523 0-10-4.478-10-10v-43.14c0-5.522 4.477-10 10-10s10 4.477 10 10v43.14c0 5.523-4.477 10-10 10z" fill="#e9efff"/></g><circle cx="273.441" cy="211.652" fill="#ff4155" r="27.656"/><circle cx="375.393" cy="211.652" fill="#ffc839" r="27.656"/><circle cx="477.345" cy="211.652" fill="#88ce65" r="27.656"/><path d="m425.743 53.478v-29.878c0-10.114 6.458-18.776 15.446-22.116-2.56-.957-5.326-1.484-8.21-1.484h-44.403c-8.097 4.254-13.662 12.735-13.662 22.47v32.138c0 9.735 5.565 18.216 13.662 22.47h44.403c2.884 0 5.65-.527 8.21-1.484-8.988-3.341-15.446-12.002-15.446-22.116z" fill="#49b1f7"/><path d="m456.579 53.478v-29.878c0-10.478-6.922-19.415-16.418-22.472-9.496 3.057-16.418 11.994-16.418 22.472v29.877c0 10.478 6.922 19.415 16.418 22.472 9.496-3.056 16.418-11.993 16.418-22.471z" fill="#73c3f9"/><path d="m375.393 54.132v-31.186c0-10.406 6.542-19.352 15.713-22.946h-73.299c-12.98 0-23.6 10.62-23.6 23.6v29.877c0 12.98 10.62 23.6 23.6 23.6h73.299c-9.171-3.593-15.713-12.539-15.713-22.945z" fill="#1e9ef4"/><path d="m43.334 260c9.725-47.848 18.746-62.667 32.167-104.667 6.499-20.34-.84-36.145-10.139-47.038-36.39 42.755-58.363 98.159-58.363 158.703 0 74.287 33.068 140.845 85.28 185.776 79.235-24.714-64.116-118.132-48.945-192.774z" fill="#9181f2"/><path d="m438.895 425.389c33.248-39.186 54.391-88.957 57.655-143.553-13.555-2.012-28.128-1.49-41.861.222-37.806 4.712-65.975 38.095-62.648 76.049 1.955 22.305 14.465 45.367 46.854 67.282z" fill="#9181f2"/><ellipse cx="427.501" cy="245.833" fill="#c9c8fc" rx="10.167" ry="10.167" transform="matrix(.924 -.383 .383 .924 -61.535 182.31)"/><ellipse cx="280.884" cy="206.731" fill="#ff7186" rx="11.706" ry="11.706" transform="matrix(.973 -.23 .23 .973 -39.983 70.064)"/><ellipse cx="380.067" cy="206.731" fill="#ffdd40" rx="11.706" ry="11.706" transform="matrix(.924 -.383 .383 .924 -50.182 161.182)"/><ellipse cx="484.844" cy="206.731" fill="#b4d667" rx="11.706" ry="11.706" transform="matrix(.924 -.383 .383 .924 -42.206 201.278)"/><ellipse cx="154.971" cy="442.607" fill="#c9c8fc" rx="10.167" ry="10.167" transform="matrix(.924 -.383 .383 .924 -157.582 92.996)"/><g fill="#aaa2f9"><ellipse cx="437.369" cy="346.632" rx="20.035" ry="20.035" transform="matrix(.707 -.707 .707 .707 -117.003 410.793)"/><circle cx="116.313" cy="80.083" r="15.167"/></g></g></svg>