<svg id="Layer_1" enable-background="new 0 0 512 512" height="512" viewBox="0 0 512 512" width="512" xmlns="http://www.w3.org/2000/svg"><g><path d="m409.377 453.49c52.699-44.938 86.127-111.807 86.127-186.492 0-135.311-109.691-245.002-245.002-245.002s-245.003 109.691-245.003 245.002c0 105.849 67.126 196.016 161.13 230.265z" fill="#2a428c"/><path d="m353.114 389.789c-12.246-8.377-21.142-20.805-25.242-35.065-3.987-13.868.359-28.723 11.029-38.437 29.554-26.908 47.737-66.087 46.48-109.489-2.258-77.979-66.802-147.341-144.804-146.116-14.761.232-29.187 2.82-42.871 7.385-22.753 15.176-54.385 59.42-42.739 149.235 15.364 118.49 40.673 150.008 80.004 145.513 32.943-3.765 41.257 38.59 26.354 63.062-11.56 18.983-22.977 54.761-23.501 85.799 4.199.214 8.425.323 12.677.323 60.625 0 116.098-22.032 158.875-58.51-15.206-24.991-35.814-49.712-56.262-63.7z" fill="#e8f4fc"/><path d="m238.736 360.933c-39.331 4.495-64.64-27.023-80.004-145.513-11.765-90.734 20.639-134.024 43.436-148.756-56.224 16.789-100.93 66.897-106.742 125.193-.619 6.209-.105 12.48 1.529 18.502l1.824 6.723c1.886 6.954.271 14.386-4.323 19.936-14.438 17.445-26.535 28.85-26.535 43.051 0 10.272 20.004 12.822 25.392 14.69.859.298 1.433 1.104 1.433 2.013l-3.589 21.546c0 1.012.454 1.971 1.236 2.612l12.321 6.681c.795.652 1.142 1.705.891 2.702l-.739 2.932c-.806 3.198.158 6.583 2.529 8.875l6.348 6.138c3.95 3.819 6.18 9.079 6.18 14.573v7.277c0 8.312-.307 12.228 2.133 16.795 3.782 7.081 12.235 10.407 20.26 10.609 6.621.167 13.282-.895 19.62-3.104l17.157-5.979c.2-.07.401-.128.602-.177 3.276-.783 6.506 1.534 7.176 4.836l4.725 12.814c5.976 16.203 4.706 34.186-3.461 49.403-6.433 11.987-14.34 27.12-21.509 41.955 23.506 8.564 48.695 13.616 74.933 14.558.044-31.492 11.716-68.428 23.528-87.825 14.906-24.469 6.592-66.825-26.351-63.06z" fill="#d3dcfb"/><path d="m41.834 260c9.725-47.848 18.746-62.667 32.167-104.667 6.499-20.34-.84-36.145-10.139-47.038-36.39 42.755-58.363 98.159-58.363 158.703 0 74.287 33.068 140.845 85.28 185.776 79.235-24.714-64.116-118.132-48.945-192.774z" fill="#3c58a0"/><path d="m471.727 143.086c-12.907-5.831-16.572-21.12-16.607-21.273l-.194-.783-.743-.286c-.141-.055-14.358-5.95-35.935-50.279-6.065-12.463-6.959-23.774-2.653-33.621 5.456-12.476 18.117-19.914 25.865-23.459-16.524-8.551-35.281-13.385-55.168-13.385-17.373 0-33.882 3.691-48.794 10.323-2.467 5.408-9.551 23.308-3.891 39.856 3.22 9.411 10.034 16.721 20.267 21.74l-7.724 25.407 14.353 19.792c-1.031 2.59-3.668 10.71-.302 19.248 2.84 7.2 9.18 12.771 18.844 16.555 25.208 9.871 41.163 29.337 44.049 33.059-1.091 3.218-4.462 15.21 1.748 25.52 3.933 6.528 10.885 10.986 20.699 13.32 31.112-17.659 53.56-48.798 59.43-85.473-13.201 6.48-24.373 7.744-33.244 3.739z" fill="#73c3f9"/><path d="m439.736 12.514c-13.769 6.547-39.639 24.085-22.837 58.605 22.295 45.806 36.759 51.029 36.759 51.029s8.928 39.019 51.018 19.013c1.196-6.805 1.826-13.805 1.826-20.953-.001-47.188-27.197-88.019-66.766-107.694z" fill="#9bd8f9"/><path d="m424.781 185.723s-16.613-23.008-45.189-34.199-17.376-34.599-17.376-34.599l-14.413-19.877 7.882-25.929c-38.81-17.925-16.092-61.697-16.083-61.714-43.198 18.225-73.519 60.973-73.519 110.804 0 66.39 53.82 120.21 120.21 120.21 22.333 0 43.238-6.097 61.156-16.707-34.849-7.255-22.668-37.989-22.668-37.989z" fill="#49b1f7"/><g><path d="m419.796 182.74c-16.17-23.511-50.845-23.503-67.009 0-2.19 3.186-6.548 3.991-9.734 1.801-3.185-2.19-3.992-6.549-1.801-9.734 21.729-31.594 68.357-31.584 90.08 0 2.191 3.185 1.384 7.544-1.801 9.734-3.186 2.19-7.544 1.385-9.735-1.801z" fill="#1e9ef4"/></g><circle cx="432.982" cy="108.751" fill="#e9efff" r="24.641"/><g><path d="m408.413 82.254c-3.075-2.343-3.668-6.735-1.325-9.811 2.343-3.075 6.735-3.669 9.81-1.324 6.212 4.733 19.995 11.711 42.503 5.249 3.715-1.066 7.593 1.08 8.66 4.797 1.067 3.716-1.081 7.593-4.796 8.66-19.267 5.53-39.318 4.267-54.852-7.571z" fill="#1e9ef4"/></g><circle cx="339.601" cy="108.751" fill="#e9efff" r="24.641"/><g><path d="m309.319 89.826c-3.716-1.067-5.863-4.944-4.796-8.66s4.943-5.858 8.66-4.797c22.506 6.465 36.289-.516 42.502-5.249 3.075-2.343 7.467-1.749 9.81 1.324 2.343 3.075 1.75 7.468-1.325 9.811-15.527 11.833-35.579 13.103-54.851 7.571z" fill="#1e9ef4"/></g><g fill="#3c58a0"><ellipse cx="424.781" cy="116.925" rx="14.413" ry="14.413" transform="matrix(.231 -.973 .973 .231 212.822 503.169)"/><ellipse cx="347.802" cy="116.925" rx="14.413" ry="14.413" transform="matrix(.707 -.707 .707 .707 19.19 280.18)"/><path d="m393.813 309.063c-12.351 34.636-10.941 74.612 47.979 111.004 31.926-39.846 51.658-89.875 53.548-144.444-10.168-6.391-22.675-9.276-35.393-10.124-29.309-1.955-56.268 15.897-66.134 43.564z"/></g><ellipse cx="461.834" cy="296.048" fill="#6a90cc" rx="10.167" ry="10.167" transform="matrix(.707 -.707 .707 .707 -74.07 413.277)"/><ellipse cx="153.471" cy="442.607" fill="#6a90cc" rx="10.167" ry="10.167" transform="matrix(.911 -.412 .412 .911 -168.59 102.414)"/><ellipse cx="435.869" cy="346.632" fill="#4f71b6" rx="20.035" ry="20.035" transform="matrix(.707 -.707 .707 .707 -117.442 409.732)"/><circle cx="114.813" cy="80.083" fill="#4f71b6" r="15.167"/></g></svg>