<svg id="Layer_1" enable-background="new 0 0 512 512" height="512" viewBox="0 0 512 512" width="512" xmlns="http://www.w3.org/2000/svg"><g><path d="m409.377 453.49c52.699-44.938 86.127-111.807 86.127-186.492 0-135.311-109.691-245.002-245.002-245.002s-245.003 109.691-245.003 245.002c0 105.849 67.126 196.016 161.13 230.265z" fill="#5895f9"/><path d="m353.114 389.789c-12.246-8.377-21.142-20.805-25.242-35.065-3.987-13.868.359-28.723 11.029-38.437 29.554-26.908 47.736-66.087 46.48-109.489-2.258-77.979-66.802-147.341-144.804-146.116-14.761.232-29.187 2.82-42.871 7.385-22.753 15.176-54.385 59.42-42.739 149.235 15.364 118.49 40.673 150.008 80.004 145.513 32.943-3.765 41.257 38.59 26.354 63.062-11.56 18.983-22.977 54.761-23.501 85.799 4.199.214 8.425.323 12.677.323 60.626 0 116.098-22.032 158.876-58.51-15.207-24.991-35.815-49.712-56.263-63.7z" fill="#e8f4fc"/><path d="m238.736 360.933c-39.331 4.495-64.64-27.023-80.004-145.513-11.765-90.734 20.639-134.024 43.436-148.756-56.224 16.789-100.93 66.897-106.742 125.193-.619 6.209-.105 12.48 1.529 18.502l1.824 6.723c1.886 6.954.271 14.386-4.323 19.936-14.438 17.445-26.535 28.85-26.535 43.051 0 10.272 20.004 12.822 25.392 14.69.859.298 1.433 1.104 1.433 2.013l-3.59 21.546c0 1.012.454 1.971 1.236 2.612l12.321 6.681c.795.652 1.142 1.705.891 2.702l-.739 2.932c-.806 3.198.158 6.583 2.529 8.875l6.348 6.138c3.95 3.819 6.18 9.079 6.18 14.573v7.277c0 8.312-.307 12.228 2.133 16.795 3.782 7.081 12.235 10.407 20.261 10.609 6.621.167 13.282-.895 19.62-3.104l17.157-5.979c.2-.07.401-.128.603-.177 3.276-.783 6.506 1.534 7.176 4.836l4.725 12.814c5.976 16.203 4.706 34.186-3.461 49.403-6.433 11.987-14.34 27.12-21.509 41.955 23.506 8.564 48.695 13.616 74.933 14.558.044-31.492 11.716-68.428 23.529-87.825 14.904-24.469 6.59-66.825-26.353-63.06z" fill="#d3dcfb"/><path d="m41.834 260c9.725-47.848 18.746-62.667 32.167-104.667 6.499-20.34-.84-36.145-10.139-47.038-36.39 42.755-58.363 98.159-58.363 158.703 0 74.287 33.068 140.845 85.28 185.776 79.235-24.714-64.116-118.132-48.945-192.774z" fill="#73acff"/><path d="m470.17 127.033c-11.688-10.535-10.646-27.431-10.635-27.6l.028-.4-.175-.36c-6.392-13.188-33.091-24.905-36.3-26.274-9.915-9.994-14.275-20.18-12.961-30.276 2.423-18.618 23.436-31.103 23.82-31.326l.964-.549c-14.865-6.584-31.314-10.248-48.62-10.248-31.785 0-60.684 12.342-82.179 32.488-.327 7.627.666 17.914 6.606 26.328 5.738 8.128 14.983 12.875 27.485 14.115l23.637 29.198c-1.001 2.89-3.692 12.516.836 22.132 3.732 7.925 11.37 13.736 22.707 17.279l35.211 46.998c-.917 3.608-4.143 19.189 5.102 30.631 3.278 4.058 7.724 7.094 13.307 9.101 35.728-17.461 61.5-52.119 66.569-93.192-15.576 1.789-27.476-.899-35.402-8.045z" fill="#ffdd40"/><path d="m433.197 9.497c-.028.016-47.541 27.591-10.963 64.168 0 0 29.317 12.275 35.805 25.663 0 0-3.082 42.861 47.338 37.284.732-5.364 1.124-10.837 1.124-16.402 0-49.748-30.22-92.437-73.304-110.713z" fill="#ffe98d"/><path d="m422.234 188.224-35.942-47.975c-34.402-10.466-22.747-38.398-22.747-38.398l-24.572-30.355c-31.329-2.785-34.162-26.994-33.251-40.494-24.342 21.998-39.64 53.815-39.64 89.207 0 66.39 53.82 120.21 120.21 120.21 19.667 0 38.231-4.724 54.62-13.098-27.71-8.801-18.678-39.097-18.678-39.097z" fill="#ffc839"/><g><path d="m361.497 102.159c-2.998 0-5.771-1.941-6.692-4.957-2.139-7.002-8.502-11.706-15.833-11.706-6.668 0-12.656 3.969-15.254 10.111-1.506 3.562-5.614 5.226-9.174 3.721-3.561-1.506-5.227-5.613-3.721-9.174 4.794-11.335 15.843-18.658 28.148-18.658 13.529 0 25.272 8.687 29.222 21.616 1.129 3.697-.953 7.61-4.65 8.739-.68.208-1.369.308-2.046.308z" fill="#ff9100"/></g><g><path d="m411.086 102.159c-.677 0-1.366-.1-2.048-.308-3.697-1.129-5.779-5.042-4.649-8.739 3.95-12.93 15.693-21.616 29.222-21.616 12.306 0 23.354 7.323 28.148 18.658 1.506 3.561-.16 7.668-3.721 9.174-3.559 1.504-7.668-.16-9.174-3.721-2.598-6.143-8.585-10.111-15.254-10.111-7.331 0-13.694 4.704-15.833 11.706-.92 3.015-3.693 4.957-6.691 4.957z" fill="#ff9100"/></g><path d="m386.369 165.478c.257-.303.532-.58.838-.816 4.921-3.798 7.4-8.013 7.368-12.528-.039-5.524-3.856-9.879-5.99-11.884h-42.295c-15.024 0-23.955 16.941-15.31 29.23 5.689 8.087 12.462 14.462 20.025 19.148 5.922-13.622 19.486-23.153 35.286-23.153.027 0 .052.003.078.003z" fill="#ff7186"/><path d="m386.292 163.475c-.707.545-1.298 1.24-1.784 2.067.593-.027 1.183-.067 1.783-.067 15.801 0 29.365 9.531 35.286 23.153 7.563-4.686 14.336-11.061 20.025-19.148 8.644-12.289-.286-29.23-15.31-29.23h-40.001c.001-.001 15.266 11.443.001 23.225z" fill="#ff4155"/><path d="m386.291 198.376c13.041 0 25.295-3.375 35.943-10.152-5.528-14.469-19.531-24.749-35.943-24.749s-30.415 10.28-35.942 24.749c10.648 6.777 22.902 10.152 35.942 10.152z" fill="#e80054"/><path d="m393.813 309.063c-12.351 34.636-10.941 74.612 47.979 111.004 31.926-39.846 51.658-89.875 53.548-144.444-10.168-6.391-22.675-9.276-35.393-10.124-29.309-1.955-56.268 15.897-66.134 43.564z" fill="#73acff"/><ellipse cx="466.071" cy="296.5" fill="#b6d9fc" rx="10.167" ry="10.167" transform="matrix(.256 -.967 .967 .256 60.164 671.166)"/><ellipse cx="153.471" cy="442.607" fill="#b6d9fc" rx="10.167" ry="10.167" transform="matrix(.938 -.347 .347 .938 -144.169 80.855)"/><g fill="#99c7ff"><ellipse cx="435.869" cy="346.632" rx="20.035" ry="20.035" transform="matrix(.451 -.893 .893 .451 -70.098 579.295)"/><circle cx="114.813" cy="80.083" r="15.167"/></g></g></svg>