<svg id="Layer_1" enable-background="new 0 0 512 512" height="512" viewBox="0 0 512 512" width="512" xmlns="http://www.w3.org/2000/svg"><g><path d="m409.376 453.49c52.699-44.938 86.127-111.807 86.127-186.492 0-135.311-109.691-245.002-245.002-245.002s-245.002 109.691-245.002 245.002c0 105.849 67.126 196.016 161.13 230.265z" fill="#5895f9"/><path d="m353.114 389.789c-12.246-8.377-21.142-20.805-25.242-35.065-3.987-13.868.359-28.723 11.029-38.437 29.554-26.908 47.736-66.087 46.48-109.489-2.258-77.979-66.802-147.341-144.804-146.116-14.761.232-29.187 2.82-42.871 7.385-22.753 15.176-54.385 59.42-42.739 149.235 15.364 118.49 40.673 150.008 80.004 145.513 32.943-3.765 41.257 38.59 26.354 63.062-11.56 18.983-22.978 54.761-23.501 85.799 4.199.214 8.425.323 12.677.323 60.625 0 116.098-22.031 158.875-58.51-15.207-24.991-35.814-49.712-56.262-63.7z" fill="#3c58a0"/><path d="m238.736 360.933c-39.331 4.495-64.64-27.023-80.004-145.513-11.765-90.734 20.64-134.024 43.437-148.756-56.224 16.789-100.93 66.897-106.742 125.193-.619 6.209-.105 12.48 1.528 18.502l1.824 6.723c1.886 6.954.271 14.386-4.323 19.936-14.438 17.445-26.534 28.85-26.534 43.051 0 10.272 20.004 12.822 25.392 14.69.859.298 1.433 1.104 1.433 2.013l-3.589 21.546c0 1.012.454 1.971 1.236 2.612l12.321 6.681c.795.652 1.142 1.705.891 2.702l-.739 2.932c-.806 3.198.158 6.583 2.529 8.875l6.348 6.138c3.95 3.819 6.18 9.079 6.18 14.573v7.277c0 8.312-.307 12.228 2.132 16.795 3.782 7.081 12.235 10.407 20.261 10.609 6.621.167 13.282-.895 19.62-3.104l17.157-5.979c.2-.07.401-.128.603-.177 3.276-.783 6.506 1.534 7.176 4.836l4.725 12.814c5.976 16.203 4.706 34.186-3.461 49.403-6.433 11.987-14.34 27.12-21.509 41.955 23.506 8.564 48.695 13.616 74.933 14.558.044-31.492 11.716-68.428 23.529-87.825 14.903-24.469 6.589-66.825-26.354-63.06z" fill="#2a428c"/><path d="m41.834 260c9.725-47.848 18.746-62.667 32.167-104.667 6.499-20.34-.84-36.145-10.139-47.038-36.39 42.755-58.363 98.159-58.363 158.703 0 74.287 33.068 140.845 85.28 185.776 79.235-24.714-64.116-118.132-48.945-192.774z" fill="#73acff"/><path d="m441.097 420.934c34.023-42.066 54.406-95.618 54.406-153.936 0-7.417-.349-14.752-.994-22.001-23.515-.423-65.561-.374-82.624 33.964-20.424 41.102-50.468 90.452 29.212 141.973z" fill="#73acff"/><path d="m449.839 147.666c4.99-4.864 2.236-13.338-4.659-14.34l-47.102-6.844c-2.738-.398-5.105-2.118-6.33-4.599l-21.065-42.682c-3.084-6.248-11.994-6.248-15.078 0l-21.065 42.682c-1.224 2.481-3.592 4.201-6.33 4.599l-3.616.525c.422.855.983 1.672 1.734 2.404l35.768 34.866c2.079 2.027 3.028 4.947 2.537 7.809l-8.444 49.231c-.135.786-.146 1.545-.084 2.281l3.125-1.643c2.449-1.288 5.375-1.288 7.824 0l42.129 22.149c6.168 3.243 13.376-1.995 12.198-8.862l-8.046-46.912c-.468-2.727.436-5.51 2.418-7.441z" fill="#ffdd40"/><g><path d="m357.595 217.742 8.046-46.912c.468-2.727-.436-5.51-2.418-7.441l-34.083-33.223c-1.066-1.039-1.758-2.246-2.153-3.506l-45.878 6.667c-6.896 1.002-9.649 9.476-4.659 14.34l34.083 33.223c1.981 1.931 2.886 4.714 2.418 7.441l-8.046 46.912c-1.178 6.868 6.03 12.105 12.198 8.862l41.055-21.584c-.621-1.416-.861-3.044-.563-4.779z" fill="#ffc839"/></g><path d="m505.021 42.502c2.899-2.826 1.299-7.75-2.707-8.332l-27.367-3.977c-1.591-.231-2.966-1.23-3.678-2.672l-12.24-24.798c-1.792-3.63-6.969-3.63-8.76 0l-12.239 24.799c-.712 1.442-2.087 2.441-3.678 2.672l-3.366.489c.25.517.587 1.01 1.04 1.451l20.968 20.439c1.219 1.188 1.775 2.9 1.487 4.578l-4.95 28.86c-.07.406-.081.799-.058 1.181l2.902-1.526c1.423-.748 3.123-.748 4.546 0l24.479 12.869c3.583 1.884 7.772-1.159 7.087-5.149l-4.675-27.257c-.272-1.585.254-3.201 1.405-4.324z" fill="#ffdd40"/><g><path d="m450.81 83.886 4.675-27.257c.272-1.584-.254-3.201-1.405-4.323l-19.803-19.303c-.775-.756-1.22-1.663-1.391-2.595l-25.901 3.764c-4.007.582-5.606 5.506-2.707 8.332l19.803 19.303c1.151 1.122 1.676 2.739 1.405 4.324l-4.675 27.257c-.684 3.99 3.504 7.033 7.087 5.149l23.134-12.162c-.273-.756-.375-1.596-.222-2.489z" fill="#ffc839"/></g><ellipse cx="342.256" cy="16.667" fill="#ffdd40" rx="16.667" ry="16.667" transform="matrix(.776 -.631 .631 .776 66.267 219.76)"/><ellipse cx="460.668" cy="282.167" fill="#b6d9fc" rx="10.167" ry="10.167" transform="matrix(.208 -.978 .978 .208 88.771 673.991)"/><ellipse cx="153.471" cy="442.607" fill="#b6d9fc" rx="10.167" ry="10.167" transform="matrix(.938 -.347 .347 .938 -144.169 80.855)"/><g fill="#99c7ff"><ellipse cx="435.869" cy="346.632" rx="20.035" ry="20.035" transform="matrix(.208 -.978 .978 .208 6.275 701.01)"/><circle cx="114.813" cy="80.083" r="15.167"/></g></g></svg>