<svg id="Layer_1" enable-background="new 0 0 512 512" height="512" viewBox="0 0 512 512" width="512" xmlns="http://www.w3.org/2000/svg"><g><path d="m409.376 453.49c52.699-44.938 86.127-111.807 86.127-186.492 0-135.311-109.691-245.002-245.002-245.002s-245.002 109.691-245.002 245.002c0 105.849 67.126 196.016 161.13 230.265z" fill="#2a428c"/><path d="m353.114 389.789c-12.246-8.377-21.142-20.805-25.242-35.065-3.987-13.868.359-28.723 11.029-38.437 29.554-26.908 47.737-66.087 46.48-109.489-2.258-77.979-66.802-147.341-144.804-146.116-14.761.232-29.187 2.82-42.871 7.385-22.753 15.176-54.385 59.42-42.739 149.235 15.364 118.49 40.673 150.008 80.004 145.513 32.943-3.765 41.257 38.59 26.354 63.062-11.56 18.983-22.977 54.761-23.501 85.799 4.199.214 8.425.323 12.677.323 60.625 0 116.098-22.031 158.875-58.51-15.207-24.991-35.814-49.712-56.262-63.7z" fill="#49b1f7"/><path d="m238.736 360.933c-39.331 4.495-64.64-27.023-80.004-145.513-11.765-90.734 20.64-134.024 43.436-148.756-56.224 16.789-100.93 66.897-106.742 125.193-.619 6.209-.105 12.48 1.528 18.502l1.824 6.723c1.886 6.954.271 14.386-4.323 19.936-14.438 17.445-26.535 28.85-26.535 43.051 0 10.272 20.004 12.822 25.392 14.69.859.298 1.433 1.104 1.433 2.013l-3.589 21.546c0 1.012.454 1.971 1.236 2.612l12.321 6.681c.795.652 1.142 1.705.891 2.702l-.739 2.932c-.806 3.198.158 6.583 2.529 8.875l6.348 6.138c3.95 3.819 6.18 9.079 6.18 14.573v7.277c0 8.312-.307 12.228 2.132 16.795 3.782 7.081 12.235 10.407 20.261 10.609 6.621.167 13.282-.895 19.62-3.104l17.157-5.979c.2-.07.401-.128.603-.177 3.276-.783 6.506 1.534 7.176 4.836l4.725 12.814c5.976 16.203 4.706 34.186-3.461 49.403-6.433 11.987-14.34 27.12-21.509 41.955 23.506 8.564 48.695 13.616 74.933 14.558.044-31.492 11.716-68.428 23.528-87.825 14.906-24.469 6.592-66.825-26.351-63.06z" fill="#1e9ef4"/><path d="m41.834 260c9.725-47.848 18.746-62.667 32.167-104.667 6.499-20.34-.84-36.145-10.139-47.038-36.39 42.755-58.363 98.159-58.363 158.703 0 74.287 33.068 140.845 85.28 185.776 79.235-24.714-64.116-118.132-48.945-192.774z" fill="#3c58a0"/><path d="m352.271 8.72c-.263 2.8-.695 10.493 1.278 19.38 3.251 14.641 11.556 25.403 24.017 31.127 11.612 5.333 10.817 15.873 9.812 29.218-1.334 17.683-2.993 39.69 28.21 53.868 23.857 10.841 24.297 22.995 24.685 33.719.234 6.462.455 12.565 5.528 17.489 3.319 3.223 8.531 5.633 15.971 7.342 27.156-20.344 44.729-52.781 44.729-89.323 0-61.602-49.938-111.54-111.539-111.54-15.233 0-29.751 3.058-42.979 8.587z" fill="#e9efff"/><path d="m463.326 199.671c-42.831-9.067.996-36.862-47.118-58.724-52.818-24-8.621-69.584-38.016-83.084s-24.313-50.052-24.313-50.052c-41.271 16.359-70.457 56.634-70.457 103.728 0 61.601 49.938 111.539 111.539 111.539 25.763.001 49.482-8.738 68.365-23.407z" fill="#d3dcfb"/><g><path d="m409.336 151.714c0-7.456-6.044-13.5-13.5-13.5h-50.666c-7.456.001-13.499 6.044-13.5 13.5 0 7.456 6.044 13.5 13.5 13.5h50.667c7.457 0 13.499-6.044 13.499-13.5z" fill="#1e9ef4"/></g><g><path d="m380.587 71.364c0-7.456 6.044-13.5 13.5-13.5h50.667c7.456.001 13.499 6.044 13.5 13.5 0 7.456-6.044 13.5-13.5 13.5h-50.667c-7.457-.001-13.499-6.044-13.5-13.5z" fill="#6faf46"/></g><g><path d="m450.08 151.715c0-7.455-6.044-13.5-13.5-13.5l-40.743-.001c-7.455 0-13.499 6.044-13.5 13.5 0 7.455 6.044 13.5 13.5 13.5l40.743.001c7.456 0 13.499-6.044 13.5-13.5z" fill="#49b1f7"/></g><g><path d="m357.403 197.82-30.475-30.475c-8.619-8.618-8.619-22.643 0-31.261l30.475-30.475c5.272-5.271 13.82-5.271 19.092 0 5.272 5.272 5.272 13.82 0 19.092l-27.014 27.014 27.014 27.014c5.272 5.272 5.272 13.82 0 19.092-2.636 2.636-6.091 3.954-9.546 3.954-3.455-.001-6.91-1.319-9.546-3.955z" fill="#49b1f7"/></g><g><path d="m422.974 121.423c-3.455 0-6.91-1.318-9.546-3.954-5.272-5.271-5.272-13.819 0-19.092l27.014-27.014-27.014-27.013c-5.272-5.271-5.272-13.819 0-19.092 5.271-5.272 13.819-5.272 19.092 0l30.475 30.475c8.619 8.618 8.619 22.642 0 31.261l-30.475 30.476c-2.636 2.635-6.091 3.953-9.546 3.953z" fill="#88ce65"/></g><g><path d="m339.844 71.364c0-7.455 6.044-13.5 13.5-13.5l40.743-.001c7.455 0 13.499 6.044 13.5 13.5 0 7.455-6.044 13.5-13.5 13.5l-40.743.001c-7.457 0-13.499-6.044-13.5-13.5z" fill="#88ce65"/></g><path d="m495.503 266.998c0-11.491-.81-22.791-2.34-33.861-21.538-.242-61.544 3.665-78.662 33.861-23.029 40.623-57.697 100.577 27.291 153.069 33.601-41.937 53.711-95.151 53.711-153.069z" fill="#3c58a0"/><ellipse cx="460.668" cy="282.167" fill="#6a90cc" rx="10.167" ry="10.167" transform="matrix(.23 -.973 .973 .23 80.209 665.682)"/><ellipse cx="153.471" cy="442.607" fill="#6a90cc" rx="10.167" ry="10.167" transform="matrix(.924 -.383 .383 .924 -157.696 92.422)"/><g fill="#4f71b6"><ellipse cx="435.869" cy="346.632" rx="20.035" ry="20.035" transform="matrix(.23 -.973 .973 .23 -1.632 691.202)"/><circle cx="114.813" cy="80.083" r="15.167"/></g></g></svg>