<svg id="Layer_1" enable-background="new 0 0 512 512" height="512" viewBox="0 0 512 512" width="512" xmlns="http://www.w3.org/2000/svg"><g><path d="m409.376 453.49c52.699-44.938 86.127-111.807 86.127-186.492 0-135.311-109.691-245.002-245.002-245.002s-245.002 109.691-245.002 245.002c0 105.849 67.126 196.016 161.13 230.265z" fill="#ffc839"/><path d="m353.114 389.789c-12.246-8.377-21.142-20.805-25.242-35.065-3.987-13.868.359-28.723 11.029-38.437 29.554-26.908 47.737-66.087 46.48-109.489-2.258-77.979-66.802-147.341-144.804-146.116-14.761.232-29.187 2.82-42.871 7.385-22.753 15.176-54.385 59.42-42.739 149.235 15.364 118.49 40.673 150.008 80.004 145.513 32.943-3.765 41.257 38.59 26.354 63.062-11.56 18.983-22.977 54.761-23.501 85.799 4.199.214 8.425.323 12.677.323 60.625 0 116.098-22.032 158.875-58.51-15.207-24.991-35.814-49.712-56.262-63.7z" fill="#3c58a0"/><path d="m238.736 360.933c-39.331 4.495-64.64-27.023-80.004-145.513-11.765-90.734 20.64-134.024 43.436-148.756-56.224 16.789-100.93 66.897-106.741 125.193-.619 6.209-.105 12.48 1.528 18.502l1.824 6.723c1.886 6.954.271 14.386-4.323 19.936-14.438 17.445-26.535 28.851-26.535 43.051 0 10.272 20.004 12.822 25.392 14.69.859.298 1.433 1.104 1.433 2.013l-3.589 21.546c0 1.012.454 1.971 1.236 2.612l12.321 6.681c.795.652 1.142 1.705.891 2.702l-.739 2.932c-.806 3.198.158 6.583 2.529 8.875l6.348 6.138c3.95 3.819 6.18 9.079 6.18 14.573v7.277c0 8.312-.307 12.228 2.132 16.795 3.782 7.081 12.235 10.407 20.261 10.609 6.621.167 13.282-.895 19.62-3.104l17.157-5.979c.2-.07.401-.128.603-.177 3.276-.783 6.506 1.534 7.176 4.836l4.725 12.814c5.976 16.203 4.706 34.186-3.461 49.403-6.433 11.987-14.34 27.12-21.509 41.955 23.506 8.564 48.695 13.616 74.933 14.558.044-31.492 11.716-68.428 23.528-87.825 14.905-24.469 6.591-66.824-26.352-63.06z" fill="#2a428c"/><path d="m338.6 41.016c3.4 6.175 9.098 10.495 16.939 12.844l11.381 13.649c.956 1.738 9.349 15.941 25.689 10.925 13.968-4.286 32.502-4.85 36.92-4.923l22.851 51.77-3.371 32.582c-.062.638-1.406 15.712 8.373 24.093 4.808 4.119 11.392 5.827 19.634 5.128 18.303-19.87 29.486-46.4 29.486-75.545-.001-61.601-49.939-111.539-111.54-111.539-21.671 0-41.894 6.187-59.012 16.881-.864 3.943-2.515 14.757 2.65 24.135z" fill="#e9efff"/><path d="m450.501 158.008 3.411-32.969-23.411-53.039s-22.039 0-38.333 5c-16.295 5-24-10.335-24-10.335l-11.769-14.116c-27.082-7.779-18.644-36.737-18.631-36.781-32.55 19.481-54.345 55.079-54.345 95.772 0 61.602 49.938 111.539 111.539 111.539 33.261 0 63.115-14.564 83.551-37.656-31.038 3.748-28.012-27.415-28.012-27.415z" fill="#bec8f7"/><g><path d="m394.962 125.039c-7.456 0-13.5-6.044-13.5-13.5v-58.951c0-7.456 6.044-13.5 13.5-13.5s13.501 6.044 13.501 13.5v58.951c-.001 7.456-6.045 13.5-13.501 13.5z" fill="#ff4155"/></g><g><path d="m394.962 183.99c-39.95 0-72.451-32.502-72.451-72.451 0-21.737 9.636-42.135 26.438-55.963 5.756-4.738 14.265-3.911 19.002 1.845 4.738 5.757 3.912 14.265-1.845 19.003-10.546 8.68-16.595 21.479-16.595 35.115 0 25.062 20.389 45.451 45.451 45.451 7.456 0 13.501 6.044 13.501 13.5-.001 7.456-6.045 13.5-13.501 13.5z" fill="#e80054"/></g><g><path d="m394.962 183.99c-7.456 0-13.5-6.044-13.5-13.5s6.044-13.5 13.5-13.5c25.062 0 45.451-20.39 45.451-45.451 0-7.456 6.044-13.5 13.5-13.5s13.5 6.044 13.5 13.5c0 39.95-32.502 72.451-72.451 72.451z" fill="#ff4155"/></g><g><path d="m453.913 125.039c-7.456 0-13.5-6.044-13.5-13.5 0-13.637-6.049-26.435-16.595-35.115-5.757-4.738-6.583-13.246-1.845-19.003 4.736-5.757 13.246-6.583 19.003-1.845 16.801 13.827 26.436 34.226 26.436 55.963.001 7.456-6.043 13.5-13.499 13.5z" fill="#ff7186"/></g><path d="m41.834 260c9.725-47.848 18.746-62.667 32.167-104.667 6.499-20.34-.84-36.145-10.139-47.038-36.39 42.755-58.363 98.159-58.363 158.703 0 74.287 33.068 140.845 85.28 185.776 79.235-24.714-64.116-118.132-48.945-192.774z" fill="#ffdd40"/><path d="m495.503 266.998c0-11.491-.81-22.791-2.34-33.861-21.538-.242-61.544 3.665-78.662 33.861-23.029 40.623-57.697 100.577 27.291 153.069 33.601-41.937 53.711-95.151 53.711-153.069z" fill="#ffdd40"/><ellipse cx="460.668" cy="282.167" fill="#fff6d2" rx="10.167" ry="10.167" transform="matrix(.248 -.969 .969 .248 73.216 658.616)"/><ellipse cx="153.471" cy="442.607" fill="#fff6d2" rx="10.167" ry="10.167" transform="matrix(.911 -.412 .412 .911 -168.59 102.414)"/><g fill="#ffe98d"><ellipse cx="435.869" cy="346.632" rx="20.035" ry="20.035" transform="matrix(.707 -.707 .707 .707 -117.442 409.732)"/><ellipse cx="114.813" cy="80.083" rx="15.167" ry="15.167" transform="matrix(.016 -1 1 .016 32.876 193.581)"/></g></g></svg>