<svg id="Layer_1" enable-background="new 0 0 511.997 511.997" height="512" viewBox="0 0 511.997 511.997" width="512" xmlns="http://www.w3.org/2000/svg"><g><path d="m409.375 453.487c52.699-44.938 86.127-111.807 86.127-186.492 0-135.311-109.691-245.002-245.002-245.002s-245.003 109.691-245.003 245.002c0 105.849 67.126 196.016 161.13 230.265z" fill="#5895f9"/><path d="m353.112 389.786c-12.246-8.377-21.142-20.805-25.242-35.065-3.987-13.868.359-28.723 11.029-38.437 29.554-26.908 47.737-66.087 46.48-109.489-2.258-77.979-66.802-147.341-144.804-146.116-14.761.232-29.187 2.82-42.871 7.385-22.753 15.176-54.385 59.42-42.739 149.235 15.364 118.49 40.673 150.008 80.004 145.513 32.943-3.765 41.257 38.59 26.354 63.062-11.56 18.983-22.977 54.761-23.501 85.799 4.199.214 8.425.323 12.677.323 60.626 0 116.098-22.032 158.876-58.51-15.207-24.991-35.814-49.712-56.263-63.7z" fill="#3c58a0"/><path d="m238.734 360.93c-39.331 4.495-64.64-27.023-80.004-145.513-11.765-90.734 20.64-134.024 43.437-148.756-56.225 16.789-100.93 66.897-106.742 125.193-.619 6.209-.105 12.48 1.528 18.502l1.824 6.723c1.886 6.954.271 14.386-4.323 19.936-14.438 17.445-26.535 28.85-26.535 43.051 0 10.272 20.004 12.822 25.392 14.69.859.298 1.433 1.104 1.433 2.013l-3.589 21.546c0 1.012.454 1.971 1.236 2.612l12.321 6.681c.795.652 1.142 1.705.891 2.702l-.739 2.932c-.806 3.198.158 6.583 2.529 8.875l6.348 6.138c3.95 3.819 6.18 9.078 6.18 14.573v7.277c0 8.311-.307 12.228 2.133 16.795 3.782 7.081 12.235 10.407 20.261 10.609 6.621.167 13.282-.895 19.62-3.104l17.156-5.979c.2-.07.401-.128.603-.177 3.276-.783 6.506 1.534 7.176 4.836l4.726 12.814c5.975 16.203 4.706 34.186-3.461 49.403-6.433 11.987-14.34 27.12-21.509 41.955 23.506 8.564 48.695 13.616 74.933 14.558.044-31.492 11.716-68.428 23.529-87.825 14.903-24.469 6.589-66.825-26.354-63.06z" fill="#2a428c"/><path d="m41.833 259.997c9.725-47.848 18.746-62.667 32.167-104.667 6.499-20.34-.84-36.145-10.139-47.038-36.391 42.755-58.364 98.159-58.364 158.703 0 74.287 33.068 140.845 85.28 185.776 79.236-24.714-64.115-118.133-48.944-192.774z" fill="#73acff"/><path d="m495.502 266.995c0-11.491-.81-22.791-2.34-33.861-21.538-.242-61.544 3.665-78.662 33.861-23.029 40.623-57.697 100.577 27.291 153.069 33.601-41.937 53.711-95.151 53.711-153.069z" fill="#73acff"/><path d="m352.752 37.873c3.33 4.956 9.171 7.667 17.379 8.071-1.747 4.64-5.103 15.996.113 24.181 3.593 5.637 10.464 8.564 20.429 8.709l31.226 44.197c-1.18 3.119-4.861 14.539.839 22.797 3.961 5.738 11.535 8.584 22.392 8.425-1.028 4.029-2.523 13.106 2.41 20.123 3.859 5.49 10.742 8.426 20.467 8.743 2.889-2.325 5.686-4.823 8.369-7.506 40.164-40.165 40.167-105.358 0-145.526l-.001-.001c-33.724-33.722-85.22-39.094-124.612-16.128-1.434 4.309-4.448 15.821.989 23.915z" fill="#f9a0b1"/><path d="m469.789 181.65c-33.05-.006-22.634-28.957-22.634-28.957-37.207 1.696-23.561-29.863-23.561-29.863l-32.139-45.49c-34.408 0-19.106-32.842-19.106-32.842-31.513 0-18.581-31.68-18.58-31.681-8.223 4.548-15.951 10.303-22.919 17.271-40.164 40.165-40.167 105.358-.001 145.525 38.087 38.087 98.487 40.1 138.94 6.037z" fill="#ff7186"/><path d="m370.131 45.944c-1.747 4.64-5.103 15.996.113 24.181 3.593 5.637 10.464 8.564 20.429 8.709l31.226 44.197c-1.18 3.119-4.861 14.539.839 22.797 3.961 5.738 11.535 8.584 22.392 8.425-.014.053-.028.117-.042.172 1.838-1.481 3.619-3.068 5.326-4.775 25.847-25.847 25.847-67.754 0-93.602-21.854-21.854-55.187-25.226-80.588-10.125.103.006.201.016.305.021z" fill="#ff7186"/><path d="m447.134 152.693c-37.18 1.683-23.54-29.864-23.54-29.864l-32.139-45.49c-34.169 0-19.319-32.382-19.111-32.831-5.579 2.993-10.824 6.832-15.532 11.54-25.847 25.847-25.847 67.754 0 93.602 24.784 24.783 64.323 25.787 90.322 3.043z" fill="#ff4155"/><circle cx="403.613" cy="102.849" fill="#e80054" r="28.257"/><g><path d="m323.796 182.665c-5.272-5.272-5.272-13.819 0-19.092l35.827-35.827c5.272-5.271 13.819-5.271 19.092 0 5.272 5.272 5.272 13.819 0 19.092l-35.827 35.827c-5.273 5.273-13.819 5.272-19.092 0z" fill="#d3dcfb"/></g><g><path d="m294.987 211.475c-5.272-5.271-5.272-13.819 0-19.092l28.809-28.81c5.272-5.271 13.819-5.271 19.092 0 5.272 5.271 5.272 13.819 0 19.092l-28.809 28.81c-5.273 5.273-13.819 5.272-19.092 0z" fill="#e9efff"/></g><g><path d="m389.166 188.09c-2.443 2.443-5.818 3.954-9.546 3.954-7.455 0-13.5-6.044-13.5-13.5v-38.203h-38.203c-7.455 0-13.5-6.044-13.5-13.5 0-7.455 6.044-13.499 13.5-13.5h43.098c12.188 0 22.105 9.916 22.105 22.105v43.099c0 3.727-1.511 7.102-3.954 9.545z" fill="#e9efff"/></g><ellipse cx="460.666" cy="282.164" fill="#b6d9fc" rx="10.167" ry="10.167" transform="matrix(.219 -.976 .976 .219 84.298 669.69)"/><ellipse cx="153.469" cy="442.604" fill="#b6d9fc" rx="10.167" ry="10.167" transform="matrix(.927 -.375 .375 .927 -154.833 89.899)"/><g fill="#99c7ff"><ellipse cx="435.868" cy="346.629" rx="20.035" ry="20.035" transform="matrix(.582 -.813 .813 .582 -99.628 499.523)"/><circle cx="114.812" cy="80.08" r="15.167"/></g></g></svg>