<svg id="Layer_1" enable-background="new 0 0 512 512" height="512" viewBox="0 0 512 512" width="512" xmlns="http://www.w3.org/2000/svg"><g><path d="m409.376 453.49c52.699-44.938 86.127-111.807 86.127-186.492 0-135.311-109.691-245.002-245.002-245.002s-245.002 109.691-245.002 245.002c0 105.849 67.126 196.016 161.13 230.265z" fill="#5895f9"/><path d="m353.114 389.789c-12.246-8.377-21.142-20.805-25.242-35.065-3.987-13.868.359-28.723 11.029-38.437 29.554-26.908 47.737-66.087 46.48-109.489-2.258-77.979-66.802-147.341-144.804-146.116-14.761.232-29.187 2.82-42.871 7.385-22.753 15.176-54.385 59.42-42.739 149.235 15.364 118.49 40.673 150.008 80.004 145.513 32.943-3.765 41.257 38.59 26.354 63.062-11.56 18.983-22.977 54.761-23.501 85.799 4.199.214 8.425.323 12.677.323 60.625 0 116.098-22.031 158.875-58.51-15.207-24.991-35.814-49.712-56.262-63.7z" fill="#3c58a0"/><path d="m238.736 360.933c-39.331 4.495-64.64-27.023-80.004-145.513-11.765-90.734 20.64-134.024 43.436-148.756-56.224 16.789-100.93 66.897-106.742 125.193-.619 6.209-.105 12.48 1.528 18.502l1.824 6.723c1.886 6.954.271 14.386-4.323 19.936-14.438 17.445-26.535 28.85-26.535 43.051 0 10.272 20.004 12.822 25.392 14.69.859.298 1.433 1.104 1.433 2.013l-3.589 21.546c0 1.012.454 1.971 1.236 2.612l12.321 6.681c.795.652 1.142 1.705.891 2.702l-.739 2.932c-.806 3.198.158 6.583 2.529 8.875l6.348 6.138c3.95 3.819 6.18 9.079 6.18 14.573v7.277c0 8.312-.307 12.228 2.132 16.795 3.782 7.081 12.235 10.407 20.261 10.609 6.621.167 13.282-.895 19.62-3.104l17.157-5.979c.2-.07.401-.128.603-.177 3.276-.783 6.506 1.534 7.176 4.836l4.725 12.814c5.976 16.203 4.706 34.186-3.461 49.403-6.433 11.987-14.34 27.12-21.509 41.955 23.506 8.564 48.695 13.616 74.933 14.558.044-31.492 11.716-68.428 23.528-87.825 14.906-24.469 6.592-66.825-26.351-63.06z" fill="#2a428c"/><path d="m41.834 260c9.725-47.848 18.746-62.667 32.167-104.667 6.499-20.34-.84-36.145-10.139-47.038-36.39 42.755-58.363 98.159-58.363 158.703 0 74.287 33.068 140.845 85.28 185.776 79.235-24.714-64.116-118.132-48.945-192.774z" fill="#73acff"/><g><path d="m328.736 56.847h-15.421c-5.523 0-10-4.477-10-10s4.477-10 10-10h15.421c2.557 0 4.805-1.674 5.594-4.165 6.195-19.548 24.144-32.682 44.664-32.682 5.523 0 10 4.477 10 10s-4.477 10-10 10c-11.762 0-22.049 7.524-25.599 18.725-3.435 10.838-13.345 18.122-24.659 18.122z" fill="#ffdd40"/></g><g><path d="m444.674 56.847h-15.422c-11.315 0-21.225-7.283-24.659-18.123-1.668-5.265 1.247-10.885 6.512-12.554 5.266-1.669 10.885 1.248 12.553 6.513.79 2.49 3.037 4.164 5.594 4.164h15.422c5.523 0 10 4.478 10 10s-4.477 10-10 10z" fill="#ffdd40"/></g><g><path d="m414.124 45.706c-4.243 0-8.18-2.722-9.53-6.981-3.55-11.201-13.838-18.725-25.6-18.725-5.523 0-10-4.477-10-10s4.477-10 10-10c20.52 0 38.469 13.134 44.664 32.682 1.669 5.265-1.247 10.886-6.511 12.554-1.004.319-2.023.47-3.023.47z" fill="#ffe98d"/></g><path d="m471.804 181.245h-97.384c.791.671 1.584 1.341 2.415 2.007-2.246 2.668-7.725 9.546-12.992 19.004-6.214 11.157-13.218 28.095-11.299 45.426 1.581 14.266 8.874 26.655 21.663 36.903h94.638c18.475 0 33.591-15.116 33.591-33.591v-88.211c-5.85 10.958-17.405 18.462-30.632 18.462z" fill="#bc6242"/><path d="m255.553 162.783v88.211c0 18.475 15.116 33.591 33.591 33.591h87.477c-52.875-40.312 2.373-101.537 2.373-101.537-.771-.602-1.51-1.202-2.242-1.802h-90.567c-13.227-.001-24.782-7.505-30.632-18.463z" fill="#a5533a"/><path d="m471.804 55.847h-32.029v21.602c0 8.519-6.93 15.448-15.448 15.448h-49.459c.533.494 1.083.985 1.668 1.469-5.785 4.522-25.017 21.242-25.575 43.99-.385 15.654 8.242 30.682 25.628 44.691h95.215c19.083 0 34.697-15.614 34.697-34.697v-57.806c0-19.083-15.614-34.697-34.697-34.697z" fill="#d1714b"/><path d="m378.994 94.397c-.661-.499-1.279-.999-1.869-1.5h-43.463c-8.518 0-15.448-6.93-15.448-15.448v-21.602h-32.029c-19.083 0-34.698 15.614-34.698 34.697v57.806c0 19.083 15.614 34.697 34.698 34.697h92.809c-59.727-46.6 0-88.65 0-88.65z" fill="#bc6242"/><path d="m376.761 55.847c-3.022 2.89-10.318 10.902-10.104 20.792.141 6.461 3.463 12.418 9.88 17.728-.012.009-.027.021-.039.031h47.83c9.322 0 16.948-7.626 16.948-16.948v-21.603z" fill="#bc6242"/><path d="m378.994 55.847h-62.281v21.603c0 9.321 7.627 16.948 16.948 16.948h45.333c-24.394-18.419 0-38.551 0-38.551z" fill="#a5533a"/><path d="m443.508 185.114c6.315 0 11.843 3.511 14.75 8.672v-32.204c0-8.112-6.638-14.75-14.75-14.75-8.113 0-14.75 6.638-14.75 14.75v32.204c2.907-5.161 8.435-8.672 14.75-8.672z" fill="#ffb332"/><path d="m314.481 185.114c6.315 0 11.843 3.511 14.75 8.672v-32.204c0-8.112-6.638-14.75-14.75-14.75-8.113 0-14.75 6.638-14.75 14.75v32.204c2.907-5.161 8.435-8.672 14.75-8.672z" fill="#ffb332"/><path d="m443.508 183.114c-9.307 0-16.923 7.615-16.923 16.923v4.302c0 9.307 7.615 16.923 16.923 16.923s16.923-7.616 16.923-16.923v-4.302c0-9.308-7.616-16.923-16.923-16.923z" fill="#ffdd40"/><path d="m314.481 183.114c-9.307 0-16.923 7.615-16.923 16.923v4.302c0 9.307 7.615 16.923 16.923 16.923s16.923-7.616 16.923-16.923v-4.302c-.001-9.308-7.616-16.923-16.923-16.923z" fill="#ffdd40"/><path d="m442.583 304.518c-29.796-1.523-54.45 23.266-52.091 53.008.015.194.031.387.048.581 1.955 22.305 14.466 45.368 46.855 67.283 25.669-30.254 44.113-66.82 52.694-107.042-14.627-9.298-31.503-13.012-47.506-13.83z" fill="#73acff"/><ellipse cx="153.471" cy="442.607" fill="#b6d9fc" rx="10.167" ry="10.167" transform="matrix(.924 -.383 .383 .924 -157.696 92.422)"/><g fill="#99c7ff"><ellipse cx="435.869" cy="346.632" rx="20.035" ry="20.035" transform="matrix(.707 -.707 .707 .707 -117.442 409.732)"/><circle cx="114.813" cy="80.083" r="15.167"/></g></g></svg>