<svg id="Layer_1" enable-background="new 0 0 512 512" height="512" viewBox="0 0 512 512" width="512" xmlns="http://www.w3.org/2000/svg"><g><path d="m409.377 453.49c52.699-44.938 86.127-111.807 86.127-186.492 0-135.311-109.691-245.002-245.002-245.002s-245.003 109.691-245.003 245.002c0 105.849 67.126 196.016 161.13 230.265z" fill="#ffc839"/><path d="m353.114 389.789c-12.246-8.377-21.142-20.805-25.242-35.065-3.987-13.868.359-28.723 11.029-38.437 29.554-26.908 47.737-66.087 46.48-109.489-2.258-77.979-66.802-147.341-144.804-146.116-14.761.232-29.187 2.82-42.871 7.385-22.753 15.176-54.385 59.42-42.739 149.235 15.364 118.49 40.673 150.008 80.004 145.513 32.943-3.765 41.257 38.59 26.354 63.062-11.56 18.983-22.977 54.761-23.501 85.799 4.199.214 8.425.323 12.677.323 60.625 0 116.098-22.032 158.875-58.51-15.206-24.991-35.814-49.712-56.262-63.7z" fill="#3c58a0"/><path d="m238.736 360.933c-39.331 4.495-64.64-27.023-80.004-145.513-11.765-90.734 20.639-134.024 43.436-148.756-56.224 16.789-100.93 66.897-106.742 125.193-.619 6.209-.105 12.48 1.529 18.502l1.824 6.723c1.886 6.954.271 14.386-4.323 19.936-14.438 17.445-26.535 28.85-26.535 43.051 0 10.272 20.004 12.822 25.392 14.69.859.298 1.433 1.104 1.433 2.013l-3.589 21.546c0 1.012.454 1.971 1.236 2.612l12.321 6.681c.795.652 1.142 1.705.891 2.702l-.739 2.932c-.806 3.198.158 6.583 2.529 8.875l6.348 6.138c3.95 3.819 6.18 9.079 6.18 14.573v7.277c0 8.312-.307 12.228 2.133 16.795 3.782 7.081 12.235 10.407 20.261 10.609 6.621.167 13.282-.895 19.62-3.104l17.156-5.979c.2-.07.401-.128.603-.177 3.276-.783 6.506 1.534 7.176 4.836l4.725 12.814c5.976 16.203 4.706 34.186-3.461 49.403-6.433 11.987-14.34 27.12-21.509 41.955 23.506 8.564 48.695 13.616 74.933 14.558.044-31.492 11.716-68.428 23.528-87.825 14.905-24.469 6.591-66.825-26.352-63.06z" fill="#2a428c"/><path d="m41.834 260c9.725-47.848 18.746-62.667 32.167-104.667 6.499-20.34-.84-36.145-10.139-47.038-36.39 42.755-58.363 98.159-58.363 158.703 0 74.287 33.068 140.845 85.28 185.776 79.235-24.714-64.116-118.132-48.945-192.774z" fill="#ffdd40"/><path d="m495.503 266.998c0-11.491-.81-22.791-2.34-33.861-21.538-.242-61.544 3.665-78.662 33.861-23.029 40.623-57.697 100.577 27.291 153.069 33.601-41.937 53.711-95.151 53.711-153.069z" fill="#ffdd40"/><path d="m447.083 64.332c-3.777-1.178-6.291-4.686-6.504-8.637-1.671-31.075-27.443-55.695-58.868-55.695-18.566 0-35.123 8.584-45.931 21.996-.591.734-1.278 1.36-2.023 1.895-.678 2.953-1.743 8.47-2.037 15.083-.578 12.982 2.171 23.905 7.951 31.588 7.158 9.516 18.865 14.341 34.794 14.341.088 0 .17.006.257.006 6.29-3.424 13.491-5.374 21.132-5.374 13.443 0 25.997 6.013 34.445 16.497 1.867 2.316 4.775 3.631 7.794 3.526 13.063-.464 25.344 5.164 33.609 14.625 1.585-4.21 2.439-8.757 2.393-13.498-.166-17.092-11.477-31.509-27.012-36.353z" fill="#e9efff"/><path d="m327.242 25.853c-25.767-.927-48.426 15.564-56.093 39.316-.922 2.856-3.173 5.114-6.082 5.853-14.861 3.77-25.91 17.097-26.211 33.058-.369 19.506 15.942 35.473 35.451 35.473h56.941c3.492-4.749 8.466-8.406 14.405-10.258 3.421-1.067 5.854-4.28 6.054-7.996.909-16.908 11.272-31.167 25.805-37.791-.987-.063-1.996-.105-3.049-.105-56.4 0-38.684-61.406-38.684-61.406-2.073 2.573-5.234 3.975-8.537 3.856z" fill="#d3dcfb"/><path d="m486.195 133.091c-2.253-.571-3.997-2.321-4.711-4.533-5.938-18.396-23.487-31.168-43.444-30.45-2.559.092-5.006-.993-6.613-2.987-.322-.4-.663-.783-.998-1.171l-.069.092c-1.186.872-7.358 5.561-13.65 13.102-9.13 10.94-14.046 22.67-14.217 33.92-.241 15.934 8.696 31.1 26.514 45.106h50.031c15.11 0 27.743-12.366 27.458-27.474-.233-12.363-8.791-22.685-20.301-25.605z" fill="#73c3f9"/><path d="m431.428 95.121c-8.371-10.388-21.194-17.036-35.574-17.036-24.339 0-44.299 19.069-45.594 43.136-.164 3.06-2.112 5.777-5.037 6.69-12.032 3.752-20.792 14.917-20.921 28.155-.161 16.557 13.801 30.104 30.358 30.104h76.768c-61.735-46.969 0-91.049 0-91.049z" fill="#49b1f7"/><ellipse cx="460.668" cy="282.167" fill="#fff6d2" rx="10.167" ry="10.167" transform="matrix(.231 -.973 .973 .231 79.814 665.289)"/><ellipse cx="153.471" cy="442.607" fill="#fff6d2" rx="10.167" ry="10.167" transform="matrix(.923 -.385 .385 .923 -158.599 93.226)"/><g fill="#ffe98d"><ellipse cx="435.869" cy="346.632" rx="20.035" ry="20.035" transform="matrix(.707 -.707 .707 .707 -117.442 409.732)"/><circle cx="114.813" cy="80.083" r="15.167"/></g></g></svg>