<svg id="Layer_1" enable-background="new 0 0 512 512" height="512" viewBox="0 0 512 512" width="512" xmlns="http://www.w3.org/2000/svg"><g><path d="m409.376 453.49c52.699-44.938 86.127-111.807 86.127-186.492 0-135.311-109.691-245.002-245.002-245.002s-245.002 109.691-245.002 245.002c0 105.849 67.126 196.016 161.13 230.265z" fill="#2a428c"/><path d="m353.114 389.789c-12.246-8.377-21.142-20.805-25.242-35.065-3.987-13.868.359-28.723 11.029-38.437 29.554-26.908 47.737-66.087 46.48-109.489-2.258-77.979-66.802-147.341-144.804-146.116-14.761.232-29.187 2.82-42.871 7.385-22.753 15.176-54.385 59.42-42.739 149.235 15.364 118.49 40.673 150.008 80.004 145.513 32.943-3.765 41.257 38.59 26.354 63.062-11.56 18.983-22.977 54.761-23.501 85.799 4.199.214 8.425.323 12.677.323 60.625 0 116.098-22.031 158.875-58.51-15.207-24.991-35.814-49.712-56.262-63.7z" fill="#e8f4fc"/><path d="m238.736 360.933c-39.331 4.495-64.64-27.023-80.004-145.513-11.765-90.734 20.64-134.024 43.436-148.756-56.224 16.789-100.93 66.897-106.742 125.193-.619 6.209-.105 12.48 1.528 18.502l1.824 6.723c1.886 6.954.271 14.386-4.323 19.936-14.438 17.445-26.535 28.85-26.535 43.051 0 10.272 20.004 12.822 25.392 14.69.859.298 1.433 1.104 1.433 2.013l-3.589 21.546c0 1.012.454 1.971 1.236 2.612l12.321 6.681c.795.652 1.142 1.705.891 2.702l-.739 2.932c-.806 3.198.158 6.583 2.529 8.875l6.348 6.138c3.95 3.819 6.18 9.079 6.18 14.573v7.277c0 8.312-.307 12.228 2.132 16.795 3.782 7.081 12.235 10.407 20.261 10.609 6.621.167 13.282-.895 19.62-3.104l17.157-5.979c.2-.07.401-.128.603-.177 3.276-.783 6.506 1.534 7.176 4.836l4.725 12.814c5.976 16.203 4.706 34.186-3.461 49.403-6.433 11.987-14.34 27.12-21.509 41.955 23.506 8.564 48.695 13.616 74.933 14.558.044-31.492 11.716-68.428 23.528-87.825 14.906-24.469 6.592-66.825-26.351-63.06z" fill="#d3dcfb"/><path d="m41.834 260c9.725-47.848 18.746-62.667 32.167-104.667 6.499-20.34-.84-36.145-10.139-47.038-36.39 42.755-58.363 98.159-58.363 158.703 0 74.287 33.068 140.845 85.28 185.776 79.235-24.714-64.116-118.132-48.945-192.774z" fill="#3c58a0"/><path d="m417.045 59.062h-58.781s-33.205 37.435 8.698 64.177c.786.501 1.51 1.019 2.203 1.545h66.037v-47.565c0-9.987-8.171-18.157-18.157-18.157z" fill="#ff4155"/><path d="m289.481 59.062c-9.986 0-18.157 8.171-18.157 18.157v48.743h92.401c1.593-.747 3.363-1.177 5.236-1.177h2.203c-.694-.526-1.418-1.044-2.203-1.545-41.902-26.742-8.698-64.177-8.698-64.177h-70.782z" fill="#e80054"/><path d="m356.579 221.747v-52.972h-85.255v48.743c0 9.986 8.171 18.157 18.157 18.157h79.48v-1.546c-6.828.001-12.382-5.553-12.382-12.382z" fill="#e80054"/><path d="m271.324 124.795v45.147h85.255v-32.775c0-6.755 5.439-12.255 12.166-12.372z" fill="#ff4155"/><path d="m492.573 123.239h-59.372s-37.031 31.103-4.435 70.714v14s-12.862 13.181-.402 27.722h64.207c7.66 0 13.928-6.268 13.928-13.928v-84.581c.002-7.659-6.266-13.927-13.926-13.927z" fill="#49b1f7"/><path d="m355.033 137.167v84.581c0 7.66 6.268 13.928 13.928 13.928h61.405c-12.46-14.542.402-27.722.402-27.722v-14c-32.597-39.611 4.435-70.714 4.435-70.714h-66.241c-7.662-.001-13.929 6.267-13.929 13.927z" fill="#1e9ef4"/><g><path d="m430.767 207.953c-28.113 0-50.984-22.871-50.984-50.984v-4.588c0-3.866 3.134-7 7-7s7 3.134 7 7v4.588c0 20.394 16.591 36.984 36.984 36.984 3.866 0 7 3.134 7 7s-3.134 7-7 7z" fill="#ffb332"/></g><g><path d="m305.865 89.219c-3.866 0-7-3.134-7-7v-27.82c0-29.996 24.402-54.399 54.398-54.399 3.866 0 7 3.134 7 7s-3.134 7-7 7c-22.276 0-40.398 18.123-40.398 40.398v27.82c0 3.867-3.134 7.001-7 7.001z" fill="#bec8f7"/></g><g><path d="m384.238 25.524c-1.622 0-3.251-.561-4.574-1.704-7.327-6.333-16.703-9.82-26.401-9.82-3.866 0-7-3.134-7-7s3.134-7 7-7c13.059 0 25.685 4.697 35.555 13.228 2.925 2.527 3.247 6.948.719 9.873-1.384 1.601-3.336 2.423-5.299 2.423z" fill="#d3dcfb"/></g><g><path d="m400.661 89.219c-3.866 0-7-3.134-7-7v-27.82c0-3.866 3.134-7 7-7s7 3.134 7 7v27.82c0 3.866-3.134 7-7 7z" fill="#d3dcfb"/></g><g><path d="m400.661 61.398c-3.866 0-7-3.134-7-7 0-11.745-5.102-22.891-13.997-30.579-2.925-2.527-3.247-6.948-.719-9.873 2.528-2.926 6.948-3.247 9.874-.719 11.975 10.349 18.843 25.355 18.843 41.171-.001 3.867-3.135 7-7.001 7z" fill="#e9efff"/></g><g><path d="m430.767 207.953c-3.866 0-7-3.134-7-7s3.134-7 7-7c14.082 0 26.757-7.824 33.079-20.42 1.734-3.454 5.942-4.85 9.397-3.115 3.455 1.734 4.85 5.94 3.116 9.396-8.713 17.357-26.182 28.139-45.592 28.139z" fill="#ffdd40"/></g><g><path d="m470.096 183.676c-1.056 0-2.127-.24-3.135-.746-3.455-1.733-4.85-5.94-3.116-9.396 2.592-5.165 3.906-10.738 3.906-16.565v-4.588c0-3.866 3.134-7 7-7s7 3.134 7 7v4.588c0 8.028-1.814 15.714-5.394 22.845-1.227 2.448-3.697 3.862-6.261 3.862z" fill="#ffe98d"/></g><path d="m437.395 425.389c33.248-39.186 54.391-88.957 57.655-143.553-13.555-2.012-28.128-1.49-41.861.222-37.806 4.712-65.975 38.095-62.648 76.049 1.955 22.305 14.465 45.367 46.854 67.282z" fill="#3c58a0"/><ellipse cx="426.001" cy="259.629" fill="#6a90cc" rx="10.167" ry="10.167" transform="matrix(.16 -.987 .987 .16 101.487 638.541)"/><ellipse cx="153.471" cy="442.607" fill="#6a90cc" rx="10.167" ry="10.167" transform="matrix(.924 -.383 .383 .924 -157.696 92.422)"/><g fill="#4f71b6"><ellipse cx="435.869" cy="346.632" rx="20.035" ry="20.035" transform="matrix(.707 -.707 .707 .707 -117.442 409.732)"/><circle cx="114.813" cy="80.083" r="15.167"/></g></g></svg>