<svg id="Layer_1" enable-background="new 0 0 512 512" height="512" viewBox="0 0 512 512" width="512" xmlns="http://www.w3.org/2000/svg"><g><path d="m409.376 453.49c52.699-44.938 86.127-111.807 86.127-186.492 0-135.311-109.691-245.002-245.002-245.002s-245.002 109.691-245.002 245.002c0 105.849 67.126 196.016 161.13 230.265z" fill="#fcb1df"/><path d="m345.058 41.253c2.802 2.976 7.296 3.975 13.348 2.971 15.614-2.58 22.422 20.136 23.23 23.061-.272 1.585-1.013 7.668 2.727 11.818 2.768 3.075 7.232 4.286 13.261 3.613 15.573-1.734 27.541 12.32 29.228 14.412.353 1.607 1.987 7.532 7.358 10.402 4.397 2.349 10.024 2.002 16.729-1.025 16.773-7.568 29.9 5.432 31.979 7.658.357 1.749 1.953 7.798 7.302 10.524 3.221 1.643 7.124 1.736 11.638.299 1.372-4.158 1.868-6.728 1.882-6.752v-.001c.225-1.241 2.762-10.178 2.762-23.132 0-35.348-18.467-66.471-49.4-83.265-.012-.006-.024-.014-.036-.021-37.75-20.472-83.24-13.665-113.199 16.94-.005.005-.028.028-.067.069-.532.543-1.099 1.029-1.68 1.488-.267 2.669-.228 7.581 2.938 10.941z" fill="#e9efff"/><path d="m353.114 389.789c-12.246-8.377-21.142-20.805-25.242-35.065-3.987-13.868.359-28.723 11.029-38.437 29.554-26.908 47.736-66.087 46.48-109.489-2.258-77.979-66.802-147.341-144.804-146.116-14.761.232-29.187 2.82-42.871 7.385-22.753 15.176-54.385 59.42-42.739 149.235 15.364 118.49 40.673 150.008 80.004 145.513 32.943-3.765 41.257 38.59 26.354 63.062-11.56 18.983-22.978 54.761-23.501 85.799 4.199.214 8.425.323 12.677.323 60.625 0 116.098-22.031 158.875-58.51-15.207-24.991-35.814-49.712-56.262-63.7z" fill="#3c58a0"/><path d="m238.736 360.933c-39.331 4.495-64.64-27.023-80.004-145.513-11.765-90.734 20.64-134.024 43.436-148.756-56.224 16.789-100.93 66.897-106.741 125.193-.619 6.209-.105 12.48 1.528 18.502l1.824 6.723c1.886 6.954.271 14.386-4.323 19.936-14.438 17.445-26.535 28.85-26.535 43.051 0 10.272 20.004 12.822 25.392 14.69.859.298 1.433 1.104 1.433 2.013l-3.589 21.546c0 1.012.454 1.971 1.236 2.612l12.321 6.681c.795.652 1.142 1.705.891 2.702l-.739 2.932c-.806 3.198.158 6.583 2.529 8.875l6.348 6.138c3.95 3.819 6.18 9.078 6.18 14.573v7.277c0 8.311-.307 12.228 2.133 16.795 3.782 7.081 12.235 10.407 20.261 10.609 6.621.167 13.282-.895 19.62-3.104l17.157-5.979c.2-.07.401-.128.603-.177 3.276-.783 6.506 1.534 7.176 4.836l4.725 12.814c5.976 16.203 4.706 34.186-3.461 49.403-6.433 11.987-14.34 27.12-21.509 41.955 23.506 8.564 48.695 13.616 74.933 14.558.044-31.492 11.716-68.428 23.529-87.825 14.903-24.47 6.589-66.825-26.354-63.06z" fill="#2a428c"/><g fill="#d3dcfb"><path d="m318.937 28.742c.01.01.022.019.032.03-.061-.062-.082-.082-.032-.03z"/><path d="m343.799 28.824c-6.821 6.969-18.063 6.96-24.831-.052.392.396 2.57 2.622-.055-.038-27.5-28.082-67.191-36.304-103.589-21.456-36.406 14.852-59.022 48.505-59.022 87.824 0 55.816 45.239 95.049 95.366 95.049 32.816 0 53.501-15.395 67.639-29.058 6.875-6.644 17.8-6.551 24.489.28.076.078.104.106.092.094 25.178 25.709 60.209 34.057 92.584 25.194 46.539-12.738 61.832-49.957 65.953-63.46-15.798 5.747-18.11-9.73-18.11-9.73s-14.814-16.992-33.993-8.334c-19.18 8.658-22.07-8.658-22.07-8.658s-13-17.25-30.794-15.255c-17.795 1.995-14.284-13.999-14.284-13.999s-6.839-27.497-25.013-24.483-14.294-13.989-14.294-13.989c-.005.007-.028.031-.068.071z"/></g><path d="m41.834 260c9.725-47.848 18.746-62.667 32.167-104.667 6.499-20.34-.84-36.145-10.139-47.038-36.39 42.755-58.363 98.159-58.363 158.703 0 74.287 33.068 140.845 85.28 185.776 79.235-24.714-64.116-118.133-48.945-192.774z" fill="#f9d2ec"/><g><path d="m370.668 152.717c-4.542 0-9.079-1.757-12.507-5.259-22.846-23.341-78.433-80.132-78.539-80.24-6.755-6.91-6.629-17.987.28-24.743 6.909-6.758 17.988-6.633 24.745.273.317.324 55.727 56.936 78.526 80.228 6.761 6.907 6.642 17.986-.265 24.747-3.405 3.333-7.824 4.994-12.24 4.994z" fill="#1e9ef4"/></g><g><path d="m251.668 170.151c-9.588 0-19.329-1.885-28.789-5.743-28.73-11.721-46.578-38.276-46.578-69.306 0-9.665 7.835-17.5 17.5-17.5s17.5 7.835 17.5 17.5c0 19.746 12.81 32.008 24.798 36.898 11.986 4.89 29.718 5.086 43.531-9.024 6.761-6.907 17.841-7.024 24.747-.266 6.907 6.761 7.026 17.841.266 24.748-14.557 14.873-33.447 22.693-52.975 22.693z" fill="#73c3f9"/></g><g><path d="m193.801 112.602c-9.665 0-17.5-7.835-17.5-17.5 0-31.028 17.847-57.585 46.577-69.306 28.729-11.72 60.06-5.228 81.764 16.948 6.76 6.907 6.642 17.987-.265 24.747-6.907 6.762-17.986 6.642-24.747-.265-13.812-14.112-31.544-13.912-43.531-9.024-11.988 4.891-24.798 17.152-24.798 36.899 0 9.666-7.835 17.501-17.5 17.501z" fill="#49b1f7"/></g><g><path d="m292.173 152.785c-4.667 0-9.15-1.894-12.33-5.005-6.894-6.746-6.974-17.848-.257-24.759.006-.006.019-.02.04-.041.001-.002.004-.004.006-.006 2.176-2.224 75.745-77.386 78.527-80.229 6.76-6.907 17.84-7.027 24.747-.267s7.027 17.84.267 24.747l-78.368 80.065c-.029.03-.059.06-.088.09-.025.025-.049.05-.074.075l-.001-.001c-3.729 3.729-8.177 5.331-12.469 5.331z" fill="#73c3f9"/></g><g><path d="m411.204 170.084c-19.691 0-38.61-7.879-53.044-22.626-6.761-6.907-6.642-17.987.266-24.748 6.906-6.76 17.986-6.641 24.747.266 10.425 10.652 24.56 14.532 38.78 10.637 14.142-3.87 25.012-14.781 28.368-28.474 2.301-9.387 11.778-15.131 21.163-12.831 9.387 2.301 15.132 11.776 12.831 21.163-6.379 26.024-26.735 46.678-53.123 53.9-6.654 1.822-13.366 2.713-19.988 2.713z" fill="#49b1f7"/></g><g><path d="m467.332 126.809c-1.379 0-2.78-.164-4.18-.507-9.387-2.302-15.131-11.776-12.83-21.164.783-3.193 1.18-6.57 1.18-10.036 0-15.083-7.529-27.817-20.658-34.939-8.496-4.607-11.648-15.23-7.04-23.727 4.608-8.494 15.232-11.646 23.726-7.039 24.403 13.235 38.971 37.798 38.971 65.704 0 6.271-.735 12.451-2.187 18.37-1.957 7.988-9.11 13.338-16.982 13.338z" fill="#73c3f9"/></g><g><path d="m370.666 72.486c-4.416 0-8.835-1.661-12.24-4.994-6.907-6.76-7.025-17.84-.265-24.747 23.642-24.151 59.557-29.516 89.37-13.347 8.496 4.608 11.647 15.23 7.039 23.726-4.607 8.495-15.228 11.649-23.727 7.039-12.282-6.661-32.135-8.81-47.67 7.064-3.428 3.502-7.966 5.259-12.507 5.259z" fill="#9bd8f9"/></g><path d="m416.668 114.324c-12.134 3.319-19.323-5.419-19.223-5.358-2.276-2.325-4.876-4.982-7.714-7.881-3.254-3.325-3.255-8.642-.001-11.967l7.725-7.893c.003-.003.007-.006.01-.009 6.953-7.106 14.879-7.583 23.845-3.471 15.011 8.146 13.584 31.589-4.642 36.579z" fill="#49b1f7"/><path d="m231.301 95.102c0-12.379 9.455-17.198 12.351-18.379 2.899-1.183 13.029-4.351 21.687 4.495.001.001.001.001.001.002.198.202 3.093 3.16 7.727 7.895 3.254 3.325 3.259 8.646.004 11.97l-7.121 7.275-2.406 2.063-.172.345c-8.171 6.594-17.039 3.808-19.718 2.714-2.898-1.182-12.353-6.001-12.353-18.38z" fill="#49b1f7"/><path d="m495.503 266.998c0-11.491-.809-22.791-2.34-33.861-21.538-.242-61.544 3.665-78.662 33.861-23.029 40.623-57.697 100.577 27.291 153.069 33.601-41.937 53.711-95.151 53.711-153.069z" fill="#f9d2ec"/><ellipse cx="460.668" cy="282.167" fill="#e8f4fc" rx="10.167" ry="10.167" transform="matrix(.231 -.973 .973 .231 79.814 665.289)"/><ellipse cx="153.471" cy="442.607" fill="#e8f4fc" rx="10.167" ry="10.167" transform="matrix(.911 -.412 .412 .911 -168.59 102.414)"/><g fill="#fce3f5"><ellipse cx="435.869" cy="346.632" rx="20.035" ry="20.035" transform="matrix(.707 -.707 .707 .707 -117.442 409.732)"/><circle cx="114.813" cy="80.083" r="15.167"/></g></g></svg>