<svg id="Layer_1" enable-background="new 0 0 512 512" height="512" viewBox="0 0 512 512" width="512" xmlns="http://www.w3.org/2000/svg"><g><path d="m409.377 453.49c52.699-44.938 86.127-111.807 86.127-186.492 0-135.311-109.691-245.002-245.002-245.002s-245.003 109.691-245.003 245.002c0 105.849 67.126 196.016 161.13 230.265z" fill="#2a428c"/><path d="m353.114 389.789c-12.246-8.377-21.142-20.805-25.242-35.065-3.987-13.868.359-28.723 11.029-38.437 29.554-26.908 47.737-66.087 46.48-109.489-2.258-77.979-66.802-147.341-144.804-146.116-14.761.232-29.187 2.82-42.871 7.385-22.753 15.176-54.385 59.42-42.739 149.235 15.364 118.49 40.673 150.008 80.004 145.513 32.943-3.765 41.257 38.59 26.354 63.062-11.56 18.983-22.977 54.761-23.501 85.799 4.199.214 8.425.323 12.677.323 60.626 0 116.098-22.032 158.876-58.51-15.207-24.991-35.815-49.712-56.263-63.7z" fill="#49b1f7"/><path d="m238.736 360.933c-39.331 4.495-64.64-27.023-80.004-145.513-11.765-90.734 20.64-134.024 43.437-148.756-56.225 16.789-100.93 66.897-106.742 125.193-.619 6.209-.105 12.48 1.528 18.502l1.824 6.723c1.886 6.954.271 14.386-4.323 19.936-14.438 17.445-26.535 28.85-26.535 43.051 0 10.272 20.004 12.822 25.392 14.69.859.298 1.433 1.104 1.433 2.013l-3.589 21.546c0 1.012.454 1.971 1.236 2.612l12.321 6.681c.795.652 1.142 1.705.891 2.702l-.739 2.932c-.806 3.198.158 6.583 2.529 8.875l6.348 6.138c3.95 3.819 6.18 9.079 6.18 14.573v7.277c0 8.312-.307 12.228 2.133 16.795 3.782 7.081 12.235 10.407 20.26 10.609 6.621.167 13.282-.895 19.62-3.104l17.157-5.979c.2-.07.401-.128.602-.177 3.276-.783 6.506 1.534 7.176 4.836l4.726 12.814c5.976 16.203 4.706 34.186-3.461 49.403-6.433 11.987-14.34 27.12-21.509 41.955 23.506 8.564 48.695 13.616 74.933 14.558.044-31.492 11.716-68.428 23.528-87.825 14.905-24.469 6.591-66.825-26.352-63.06z" fill="#1e9ef4"/><path d="m41.834 260c9.725-47.848 18.746-62.667 32.167-104.667 6.499-20.34-.84-36.145-10.139-47.038-36.39 42.755-58.363 98.159-58.363 158.703 0 74.287 33.068 140.845 85.28 185.776 79.235-24.714-64.116-118.132-48.945-192.774z" fill="#3c58a0"/><path d="m450.847 85.231c-3.342 3.663-17.863 21.656 4.841 35.754l43.813-11.148v-36.986z" fill="#ff7186"/><path d="m381.772 32.887-74.142 18.865v-30.372c0-.375.255-.703.618-.795l73.523-18.708v31.01z" fill="#ffdd40"/><path d="m335.92 13.544c-1.626 3.385-8.936 20.739 7.518 29.097l38.333-9.754v-31.01z" fill="#ffdd40"/><path d="m307.63 21.38v30.372l37.17-9.458c-17.364-9.434-6.589-29.333-6.589-29.333l-29.964 7.624c-.362.092-.617.42-.617.795z" fill="#ffc839"/><g><path d="m411.073 224.702c-3.866 0-7-3.134-7-7v-116.241c0-3.866 3.134-7 7-7s7 3.134 7 7v116.241c0 3.866-3.134 7-7 7z" fill="#ff4155"/></g><g><path d="m499.501 202.202c-3.866 0-7-3.134-7-7v-116.241c0-3.866 3.134-7 7-7s7 3.134 7 7v116.241c0 3.866-3.134 7-7 7z" fill="#ff4155"/></g><g><path d="m307.63 125.325c-3.866 0-7-3.134-7-7v-92.461c0-3.866 3.134-7 7-7s7 3.134 7 7v92.461c0 3.866-3.133 7-7 7z" fill="#ffc839"/></g><g><path d="m381.772 106.46c-3.866 0-7-3.134-7-7v-92.46c0-3.866 3.134-7 7-7s7 3.134 7 7v92.46c0 3.866-3.134 7-7 7z" fill="#ffc839"/></g><ellipse cx="431.809" cy="35.146" fill="#ff7186" rx="14.589" ry="14.589" transform="matrix(.707 -.707 .707 .707 101.622 315.629)"/><ellipse cx="308.63" cy="187.499" fill="#ffdd40" rx="21.653" ry="21.653" transform="matrix(.926 -.378 .378 .926 -47.956 130.45)"/><ellipse cx="389.33" cy="221.908" fill="#ff7186" rx="29.456" ry="21.543" transform="matrix(.947 -.322 .322 .947 -50.745 137.32)"/><ellipse cx="477.758" cy="199.407" fill="#ff7186" rx="29.456" ry="21.543" transform="matrix(.947 -.322 .322 .947 -38.774 164.616)"/><ellipse cx="290.532" cy="121.851" fill="#ffdd40" rx="24.697" ry="18.062" transform="matrix(.947 -.322 .322 .947 -23.769 100.141)"/><ellipse cx="364.673" cy="102.986" fill="#ffdd40" rx="24.697" ry="18.062" transform="matrix(.947 -.322 .322 .947 -13.733 123.028)"/><path d="m393.321 310.467c-11.811 34.309-9.654 73.699 48.471 109.6 33.601-41.937 53.712-95.151 53.712-153.069 0-.971-.014-1.938-.026-2.906-9.382-4.133-19.784-5.693-30.11-5.706-32.657-.042-61.417 21.202-72.047 52.081z" fill="#3c58a0"/><ellipse cx="460.668" cy="282.167" fill="#6a90cc" rx="10.167" ry="10.167" transform="matrix(.208 -.978 .978 .208 88.771 673.991)"/><ellipse cx="153.471" cy="442.607" fill="#6a90cc" rx="10.167" ry="10.167" transform="matrix(.938 -.347 .347 .938 -144.169 80.855)"/><ellipse cx="435.869" cy="346.632" fill="#4f71b6" rx="20.035" ry="20.035" transform="matrix(.451 -.893 .893 .451 -70.098 579.295)"/><circle cx="114.813" cy="80.083" fill="#4f71b6" r="15.167"/><g fill="#ffe98d"><circle cx="297.782" cy="116.98" r="7.25"/><circle cx="312.282" cy="182.386" r="7.25"/><ellipse cx="372.037" cy="99.095" rx="7.365" ry="7.365" transform="matrix(.231 -.973 .973 .231 189.863 438.277)"/></g><circle cx="398.705" cy="216.855" fill="#f9a0b1" r="9.375"/><circle cx="487.133" cy="194.827" fill="#f9a0b1" r="9.375"/><path d="m440.186 31.634c0 3.31-2.683 5.993-5.993 5.993s-5.993-2.683-5.993-5.993 2.683-5.993 5.993-5.993 5.993 2.683 5.993 5.993z" fill="#f9a0b1"/><path d="m411.073 132.337 46.034-11.713c-24.504-15.725-3.62-36.064-3.62-36.064l-42.413 10.792v36.985z" fill="#ff4155"/></g></svg>