<svg id="Layer_1" enable-background="new 0 0 512 512" height="512" viewBox="0 0 512 512" width="512" xmlns="http://www.w3.org/2000/svg"><g><path d="m409.377 453.49c52.699-44.938 86.127-111.807 86.127-186.493 0-135.311-109.691-245.002-245.002-245.002s-245.003 109.692-245.003 245.003c0 105.849 67.126 196.016 161.13 230.265z" fill="#ff7186"/><path d="m353.114 389.789c-12.246-8.377-21.142-20.805-25.242-35.065-3.987-13.868.359-28.723 11.029-38.437 29.554-26.908 47.736-66.087 46.48-109.489-2.258-77.979-66.802-147.341-144.804-146.116-14.761.232-29.187 2.82-42.871 7.385-22.753 15.176-54.385 59.42-42.739 149.235 15.364 118.49 40.673 150.008 80.004 145.513 32.943-3.765 41.257 38.59 26.354 63.062-11.56 18.983-22.978 54.761-23.501 85.799 4.199.214 8.425.323 12.677.323 60.625 0 116.098-22.031 158.875-58.51-15.206-24.991-35.814-49.712-56.262-63.7z" fill="#3c58a0"/><path d="m238.736 360.933c-39.331 4.495-64.64-27.023-80.004-145.513-11.765-90.734 20.64-134.024 43.436-148.756-56.224 16.789-100.93 66.897-106.742 125.193-.619 6.209-.105 12.48 1.528 18.502l1.824 6.723c1.886 6.954.271 14.386-4.323 19.936-14.438 17.445-26.535 28.851-26.535 43.051 0 10.272 20.004 12.822 25.392 14.69.859.298 1.433 1.104 1.433 2.013l-3.589 21.546c0 1.012.454 1.971 1.236 2.612l12.321 6.682c.795.652 1.142 1.705.891 2.702l-.739 2.932c-.806 3.198.158 6.583 2.529 8.875l6.348 6.138c3.95 3.819 6.18 9.078 6.18 14.573v7.277c0 8.311-.307 12.228 2.132 16.795 3.782 7.081 12.235 10.407 20.261 10.609 6.621.167 13.282-.895 19.62-3.104l17.157-5.979c.2-.07.401-.128.603-.177 3.276-.783 6.506 1.534 7.176 4.836l4.726 12.814c5.976 16.203 4.706 34.186-3.461 49.403-6.433 11.987-14.34 27.12-21.509 41.955 23.506 8.564 48.695 13.616 74.933 14.558.044-31.492 11.716-68.428 23.529-87.825 14.904-24.47 6.59-66.826-26.353-63.061z" fill="#2a428c"/><path d="m41.834 260c9.725-47.848 18.746-62.667 32.167-104.667 6.499-20.34-.84-36.145-10.139-47.038-36.39 42.755-58.363 98.159-58.363 158.703 0 74.287 33.068 140.846 85.28 185.776 79.235-24.714-64.116-118.133-48.945-192.774z" fill="#f9a0b1"/><path d="m441.097 420.933c34.023-42.066 54.406-95.618 54.406-153.936 0-7.417-.349-14.752-.994-22.001-23.515-.423-65.561-.374-82.623 33.964-20.425 41.103-50.469 90.453 29.211 141.973z" fill="#f9a0b1"/><path d="m429.263 110.237c9.841 1.572 20.348-2.147 31.25-11.021-.021-.755.106-1.532.426-2.293l37.606-89.271c1.61-3.822-1.418-7.985-5.55-7.631l-63.967 5.477c-2.483.213-4.514 2.064-4.955 4.517l-15.566 86.643c1.7 2.485 8.704 11.657 20.756 13.579z" fill="#ffdd40"/><path d="m500.982 104.575h-34.963c-3.942 0-6.61-4.018-5.079-7.651-33.229 28.309-51.562-1.673-51.562-1.673s-.195-.115-.559-.315l-8.434 46.945c-.607 3.38 1.991 6.486 5.425 6.486h42.238c3.461 0 6.065 3.152 5.413 6.55l-9.61 50.096c-1.188 6.193 7.273 9.205 10.265 3.653l51.72-95.965c1.977-3.672-.683-8.126-4.854-8.126z" fill="#ffc839"/><path d="m309.488 106.138c7.957 2.671 18.181-.089 30.387-8.167.007-.69.144-1.396.436-2.089l26.935-63.938c1.61-3.822-1.418-7.985-5.55-7.631l-45.384 3.886c-2.483.213-4.514 2.065-4.954 4.517l-11.697 65.106c1.357 2.47 4.305 6.463 9.827 8.316z" fill="#ffdd40"/><path d="m299.25 136.793h28.89c3.46 0 6.065 3.152 5.413 6.55l-7.583 39.529c-.799 4.167 4.893 6.193 6.906 2.458l39.704-73.67c1.979-3.672-.68-8.127-4.852-8.127h-22.337c-3.942 0-6.61-4.018-5.079-7.651-32.523 22.268-40.188-.632-40.188-.632l-6.298 35.057c-.608 3.379 1.99 6.486 5.424 6.486z" fill="#ffc839"/><ellipse cx="460.668" cy="282.167" fill="#fcd9e3" rx="10.167" ry="10.167" transform="matrix(.23 -.973 .973 .23 80.209 665.682)"/><ellipse cx="153.471" cy="442.607" fill="#fcd9e3" rx="10.167" ry="10.167" transform="matrix(.924 -.383 .383 .924 -157.696 92.422)"/><g fill="#fcc0cf"><ellipse cx="435.869" cy="346.632" rx="20.035" ry="20.035" transform="matrix(.707 -.707 .707 .707 -117.442 409.732)"/><circle cx="114.813" cy="80.083" r="15.167"/></g></g></svg>